<?xml version="1.0" encoding="UTF-8" standalone="no"?>
<!DOCTYPE svg PUBLIC "-//W3C//DTD SVG 1.1//EN" "http://www.w3.org/Graphics/SVG/1.1/DTD/svg11.dtd">
<svg xmlns="http://www.w3.org/2000/svg" version="1.1" viewBox="0.00 0.00 1233.00 379.00">
<path fill="none" d="
  M 1233.00 0.00
  L 1233.00 379.00
  L 0.00 379.00
  L 0.00 0.00
  L 1233.00 0.00
  Z
  M 474.16 39.66
  Q 473.90 45.91 473.52 52.05
  Q 473.25 56.47 473.44 64.60
  Q 473.51 67.65 471.49 68.96
  Q 468.64 70.80 464.58 71.01
  Q 458.50 71.32 449.50 72.09
  C 441.11 72.80 435.98 76.24 429.80 81.28
  A 12.36 12.25 18.1 0 1 425.04 83.67
  C 420.55 84.80 415.20 84.95 411.04 89.20
  L 134.43 89.22
  A 1.04 1.04 0.0 0 0 133.39 90.26
  L 133.39 92.96
  A 0.90 0.89 90.0 0 0 134.28 93.86
  L 450.75 93.86
  A 0.52 0.52 0.0 0 1 451.24 94.55
  L 447.71 104.64
  A 0.47 0.46 -4.5 0 0 448.37 105.20
  Q 462.90 97.43 470.73 93.47
  Q 471.98 92.84 473.55 92.49
  A 0.57 0.57 0.0 0 1 474.24 93.04
  Q 474.46 104.85 474.20 142.13
  Q 474.15 149.39 475.15 153.28
  C 477.48 162.35 485.19 170.03 493.71 173.02
  Q 497.54 174.36 510.40 174.35
  Q 582.78 174.32 653.98 174.24
  A 0.70 0.70 0.0 0 1 654.69 174.94
  L 654.87 203.03
  L 654.73 225.27
  A 0.91 0.90 9.8 0 1 653.53 226.11
  L 643.49 222.60
  A 0.38 0.38 0.0 0 0 643.03 223.14
  Q 648.96 234.09 656.19 248.79
  Q 656.56 249.54 656.51 250.49
  Q 655.47 251.09 654.15 250.75
  C 652.81 250.41 652.47 251.02 651.51 251.15
  A 1.20 1.20 0.0 0 1 650.48 250.78
  Q 648.65 248.86 646.39 250.88
  A 1.10 1.09 -61.7 0 1 645.51 251.15
  Q 644.35 250.98 644.13 250.63
  A 2.43 2.21 -33.6 0 0 640.81 250.12
  Q 640.80 250.13 640.76 250.81
  A 0.61 0.61 0.0 0 1 640.17 251.39
  Q 638.49 251.47 638.24 250.62
  A 1.67 1.56 -48.5 0 0 635.13 250.92
  Q 635.03 251.35 634.13 251.72
  A 0.81 0.79 52.6 0 1 633.31 251.60
  Q 632.24 250.73 632.07 250.20
  A 0.60 0.60 0.0 0 0 631.33 249.81
  Q 629.89 250.24 629.51 250.76
  A 1.35 1.23 39.6 0 1 627.59 250.85
  Q 625.54 248.99 623.54 250.00
  A 1.13 1.13 0.0 0 1 622.77 250.08
  L 622.30 249.97
  A 0.42 0.41 6.7 0 0 621.79 250.37
  L 621.79 251.00
  A 0.67 0.67 0.0 0 1 621.17 251.67
  Q 620.28 251.73 619.58 251.29
  A 0.41 0.40 -68.1 0 1 619.40 250.86
  Q 619.42 250.79 619.44 250.57
  A 0.39 0.38 -82.1 0 0 619.14 250.17
  L 614.84 249.12
  A 1.21 1.12 47.1 0 0 614.44 249.09
  Q 605.17 249.88 597.74 249.39
  A 4.26 4.02 -46.7 0 0 596.88 249.44
  Q 594.50 249.87 591.86 249.48
  A 1.33 1.30 -58.3 0 0 590.89 249.72
  Q 589.36 250.87 588.68 249.99
  A 2.68 2.10 -36.4 0 0 585.34 249.89
  Q 584.84 250.24 583.98 250.37
  A 1.10 1.09 56.6 0 1 583.27 250.22
  Q 581.31 249.01 578.68 250.03
  A 1.88 1.80 -51.9 0 1 577.84 250.15
  L 574.52 249.83
  A 1.33 1.32 22.7 0 0 573.37 250.30
  Q 573.36 250.31 573.32 250.39
  A 0.75 0.75 0.0 0 1 572.30 250.74
  C 570.63 249.86 568.45 248.82 567.10 250.32
  A 0.72 0.71 -49.2 0 1 566.12 250.40
  Q 565.27 249.71 564.03 249.43
  A 1.42 1.38 -45.9 0 0 563.37 249.45
  Q 562.57 249.67 561.91 250.84
  A 0.49 0.48 43.3 0 1 561.08 250.86
  Q 559.81 248.85 557.45 250.09
  A 1.76 1.73 39.2 0 1 556.13 250.21
  Q 553.18 249.33 551.19 250.50
  A 0.96 0.94 -43.7 0 1 550.21 250.49
  C 547.81 248.99 545.94 251.21 544.21 250.00
  A 2.43 2.36 43.1 0 0 541.37 250.05
  Q 539.87 251.22 537.84 249.86
  Q 536.92 249.25 534.80 250.00
  A 4.43 3.98 -54.5 0 1 533.95 250.19
  Q 533.40 250.24 532.79 249.82
  Q 532.03 249.31 531.12 249.48
  Q 529.78 249.74 529.67 250.48
  A 0.18 0.18 0.0 0 1 529.33 250.51
  Q 529.04 249.72 527.47 249.43
  A 1.28 1.26 35.7 0 0 526.64 249.56
  Q 525.60 250.11 524.55 250.05
  A 0.66 0.64 -82.5 0 0 523.87 250.58
  Q 523.82 250.84 523.82 250.85
  A 0.92 0.90 -77.0 0 1 522.98 251.39
  Q 521.43 251.36 520.65 251.66
  A 0.44 0.44 0.0 0 1 520.05 251.30
  Q 519.92 250.25 518.62 250.72
  A 0.66 0.66 0.0 0 1 517.84 250.45
  Q 516.74 248.69 513.67 250.47
  Q 512.70 251.04 511.68 250.27
  Q 510.30 249.23 508.27 250.69
  A 0.84 0.83 -55.4 0 1 507.57 250.82
  L 504.18 250.00
  A 1.10 1.09 27.1 0 0 503.11 250.34
  L 502.00 251.63
  A 0.72 0.71 43.7 0 1 500.93 251.65
  Q 499.58 250.22 498.20 251.28
  A 1.31 1.29 67.4 0 0 497.71 252.50
  Q 497.82 253.27 496.61 253.89
  A 2.04 1.96 -58.8 0 1 495.79 254.11
  Q 492.61 254.30 490.99 257.75
  A 1.88 1.85 88.6 0 1 490.20 258.59
  Q 489.22 259.13 488.85 259.96
  A 1.61 1.60 48.9 0 0 488.78 261.07
  Q 489.23 262.62 487.79 263.85
  A 1.52 1.52 0.0 0 0 487.32 264.64
  Q 487.04 265.76 487.29 268.52
  C 487.46 270.46 486.18 272.52 486.92 274.65
  A 2.63 2.59 -54.6 0 1 487.07 275.58
  Q 486.98 279.75 487.18 287.79
  C 487.21 289.15 486.64 291.49 487.27 292.52
  A 1.42 1.39 -55.3 0 1 487.45 293.56
  Q 486.80 296.54 487.34 299.34
  A 2.91 2.82 46.3 0 1 487.33 300.57
  C 486.78 303.10 487.71 305.31 487.00 307.79
  Q 486.65 309.02 487.06 310.84
  A 2.41 2.29 -45.9 0 1 487.05 311.91
  Q 486.45 314.35 487.06 316.43
  A 3.47 3.44 37.6 0 1 487.20 317.47
  L 486.99 327.11
  A 2.88 2.54 -41.4 0 1 486.94 327.51
  C 486.12 331.08 487.41 333.45 487.26 336.75
  Q 486.79 347.16 487.49 356.50
  Q 487.60 357.91 488.60 358.40
  A 0.88 0.87 -76.0 0 1 489.10 359.24
  Q 488.96 362.54 492.52 364.06
  A 1.23 1.21 -8.0 0 1 493.02 364.43
  Q 494.16 365.89 493.87 367.38
  A 0.85 0.85 0.0 0 0 494.79 368.39
  Q 496.50 368.22 497.35 368.60
  C 499.46 369.55 500.89 367.71 503.09 369.70
  A 1.14 1.14 0.0 0 0 504.03 369.99
  Q 504.87 369.85 505.91 369.27
  A 1.55 1.48 30.1 0 1 506.74 369.07
  Q 507.55 369.12 507.98 369.67
  A 1.28 1.27 -22.7 0 0 509.16 370.15
  Q 512.37 369.69 515.65 370.14
  Q 516.82 370.30 516.96 369.38
  A 0.83 0.68 38.3 0 1 518.39 369.35
  Q 519.18 370.69 521.06 370.00
  Q 521.80 369.72 522.00 369.08
  A 0.58 0.58 0.0 0 1 522.80 368.73
  Q 523.15 368.90 523.30 368.85
  A 0.49 0.49 0.0 0 1 523.93 369.33
  Q 523.90 370.03 524.73 370.11
  Q 526.63 370.30 527.63 369.40
  A 1.33 1.32 -41.2 0 1 529.53 369.52
  Q 530.64 370.82 532.56 369.84
  Q 532.83 369.70 532.85 369.54
  Q 532.92 368.94 532.91 368.91
  A 0.28 0.28 0.0 0 1 533.18 368.49
  Q 533.58 368.54 533.60 368.54
  A 0.89 0.83 -3.6 0 1 534.10 368.95
  C 535.27 371.11 538.80 369.86 540.53 369.42
  A 1.16 1.15 57.2 0 1 541.56 369.65
  C 542.83 370.72 544.59 369.93 546.02 369.53
  A 1.44 1.43 -38.9 0 1 547.11 369.64
  Q 549.05 370.68 550.89 369.54
  A 0.98 0.97 43.5 0 1 551.89 369.52
  Q 554.35 370.91 557.15 369.30
  A 0.65 0.65 0.0 0 1 557.92 369.39
  Q 560.24 371.53 563.18 369.30
  A 0.91 0.90 -51.5 0 1 564.10 369.19
  Q 564.63 369.43 565.03 369.95
  A 0.68 0.68 0.0 0 0 565.80 370.18
  Q 567.45 369.61 571.21 370.36
  Q 572.56 370.64 573.03 369.28
  A 0.63 0.63 0.0 0 1 573.56 368.86
  Q 574.83 368.74 574.91 369.32
  A 0.88 0.87 88.3 0 0 575.70 370.07
  Q 578.30 370.27 579.27 369.40
  A 0.77 0.76 39.8 0 1 580.20 369.32
  Q 582.64 370.94 584.85 369.21
  Q 585.10 369.02 585.66 369.02
  Q 586.19 369.01 586.15 369.34
  A 0.72 0.72 0.0 0 0 586.89 370.16
  L 590.64 370.01
  A 0.55 0.46 49.7 0 1 590.88 370.05
  Q 592.30 370.63 594.42 370.03
  Q 594.79 369.92 594.83 369.61
  Q 594.91 369.06 594.82 368.86
  A 0.29 0.29 0.0 0 1 595.19 368.46
  Q 596.57 368.99 596.85 369.72
  A 0.72 0.72 0.0 0 0 597.64 370.17
  Q 599.77 369.84 601.24 370.10
  Q 603.26 370.47 604.80 370.35
  Q 607.60 370.12 611.73 370.18
  Q 613.10 370.20 613.01 368.96
  A 0.41 0.41 0.0 0 1 613.59 368.56
  Q 614.24 368.87 614.64 369.70
  A 0.78 0.77 -11.3 0 0 615.31 370.14
  Q 617.13 370.19 618.72 369.20
  Q 619.46 368.74 619.96 369.56
  A 0.77 0.76 -14.0 0 0 620.58 369.93
  C 621.79 370.00 622.60 370.31 623.28 369.50
  Q 623.62 369.10 624.54 369.05
  A 0.43 0.43 0.0 0 1 624.98 369.38
  Q 625.30 370.71 628.47 369.66
  Q 629.79 369.22 630.73 369.65
  Q 631.73 370.11 634.20 369.76
  A 0.88 0.82 -66.8 0 0 634.65 369.56
  Q 636.10 368.38 636.98 369.69
  A 0.91 0.90 -13.4 0 0 637.62 370.08
  Q 639.81 370.38 640.61 369.82
  A 1.54 1.53 42.3 0 1 642.22 369.75
  L 642.96 370.16
  A 0.96 0.92 -30.3 0 0 643.46 370.28
  L 653.53 369.75
  A 0.43 0.42 -24.7 0 1 653.84 369.86
  Q 654.21 370.19 654.94 370.45
  A 1.52 1.43 46.7 0 0 655.78 370.50
  L 658.43 369.92
  A 1.87 1.82 47.6 0 1 659.46 369.98
  C 661.47 370.67 662.96 369.97 664.87 370.14
  Q 667.92 370.41 669.68 369.77
  A 0.47 0.47 0.0 0 1 670.17 369.88
  Q 670.33 370.02 670.35 370.03
  A 1.90 1.87 59.4 0 0 671.34 370.29
  L 676.59 370.19
  A 3.84 3.80 25.5 0 0 678.86 369.40
  Q 678.87 369.39 678.98 369.23
  A 0.61 0.61 0.0 0 1 680.08 369.42
  Q 680.14 369.66 680.19 369.79
  A 0.80 0.79 79.1 0 0 680.93 370.30
  L 684.48 370.30
  A 0.72 0.71 -76.5 0 0 685.12 369.90
  Q 685.46 369.23 686.24 369.07
  A 0.64 0.64 0.0 0 1 686.88 369.32
  Q 687.81 370.60 689.53 370.04
  Q 691.32 369.47 691.36 369.46
  A 1.00 0.98 67.2 0 1 692.19 369.81
  Q 692.81 370.54 694.01 370.11
  Q 696.60 369.17 698.61 370.13
  Q 699.69 370.64 702.13 369.36
  A 0.81 0.81 0.0 0 1 702.92 369.38
  Q 704.85 370.50 706.29 369.94
  Q 708.40 369.12 710.14 369.79
  Q 712.39 370.65 713.26 369.43
  A 0.92 0.89 18.2 0 1 714.04 369.05
  Q 714.98 369.10 715.07 369.30
  A 2.59 1.91 -35.2 0 0 718.68 369.37
  Q 718.96 369.13 718.97 369.12
  A 0.77 0.77 0.0 0 1 720.03 369.38
  Q 720.10 369.49 720.26 369.92
  Q 720.36 370.19 721.31 370.22
  C 723.07 370.30 724.12 369.45 725.87 369.69
  Q 731.97 370.53 737.24 369.34
  A 0.62 0.62 0.0 0 1 737.92 369.66
  Q 738.51 370.82 741.17 369.71
  Q 742.10 369.32 743.05 369.77
  Q 744.43 370.42 747.14 369.65
  A 1.88 1.85 45.5 0 1 748.24 369.67
  Q 750.76 370.48 753.72 369.59
  Q 754.61 369.32 755.42 369.98
  A 0.87 0.87 0.0 0 0 756.25 370.14
  Q 759.84 368.98 759.91 369.12
  A 2.56 1.88 -22.5 0 0 762.87 369.84
  Q 764.66 369.16 765.07 369.07
  A 0.77 0.76 -25.3 0 1 765.81 369.33
  Q 766.58 370.29 767.56 370.05
  Q 770.42 369.37 772.71 369.84
  Q 773.71 370.04 775.21 369.50
  Q 776.35 369.08 777.67 369.67
  A 1.81 1.80 -39.6 0 0 778.85 369.78
  L 780.54 369.38
  A 1.81 1.80 -43.1 0 1 781.51 369.41
  Q 784.29 370.26 787.30 369.49
  A 1.29 1.26 -37.5 0 1 788.21 369.60
  Q 789.34 370.22 789.75 370.14
  A 1.69 1.54 24.6 0 0 790.22 369.99
  L 792.00 369.13
  A 0.80 0.79 -36.6 0 1 792.89 369.26
  Q 794.56 370.79 797.01 369.75
  A 2.39 2.31 -49.7 0 1 798.44 369.61
  Q 801.62 370.31 803.77 369.41
  A 0.93 0.92 52.6 0 1 804.70 369.54
  Q 804.89 369.70 805.14 369.76
  Q 805.88 369.96 805.98 369.95
  Q 809.90 369.47 811.40 369.80
  C 813.15 370.19 814.39 368.60 816.33 368.55
  A 2.66 2.66 0.0 0 0 818.03 367.89
  Q 821.44 364.87 821.40 365.08
  A 0.02 0.01 -19.5 0 0 821.43 365.09
  L 826.24 359.50
  A 1.65 1.61 -20.1 0 0 826.60 358.75
  L 828.63 348.29
  A 0.87 0.87 0.0 0 0 828.63 347.97
  Q 828.08 345.42 828.49 343.77
  C 828.99 341.81 827.78 340.65 828.37 338.79
  A 0.22 0.22 0.0 0 0 828.10 338.52
  Q 827.92 338.58 827.90 338.58
  A 0.46 0.45 80.3 0 1 827.40 338.22
  Q 827.08 336.77 827.94 335.73
  A 0.27 0.27 0.0 0 1 828.41 335.90
  Q 828.42 336.97 828.09 337.82
  A 0.25 0.24 21.1 0 0 828.23 338.13
  L 828.24 338.13
  A 0.25 0.24 17.8 0 0 828.56 337.97
  Q 828.97 336.54 828.64 335.32
  Q 828.02 333.04 828.31 332.57
  A 0.19 0.19 0.0 0 0 828.09 332.29
  Q 827.69 332.41 827.49 332.29
  Q 827.23 332.14 827.44 329.75
  Q 827.47 329.39 827.88 329.33
  A 0.46 0.46 0.0 0 1 828.40 329.86
  Q 828.31 330.39 828.39 330.45
  A 0.26 0.26 0.0 0 0 828.80 330.19
  L 828.26 327.73
  A 1.85 1.79 -44.0 0 1 828.29 326.83
  Q 829.52 322.70 828.64 316.88
  A 0.85 0.85 0.0 0 1 828.64 316.62
  L 829.02 312.42
  A 1.35 1.29 -57.6 0 0 828.88 311.71
  L 828.25 310.47
  A 1.18 1.15 -50.8 0 1 828.17 309.59
  Q 829.03 306.88 828.31 304.98
  A 2.66 2.64 46.8 0 1 828.37 302.93
  Q 828.73 302.17 828.66 301.46
  Q 828.31 297.72 828.52 296.68
  C 828.95 294.58 827.44 293.15 828.00 291.11
  C 828.69 288.58 827.08 286.91 828.70 284.29
  A 1.21 1.20 -39.0 0 0 828.81 283.26
  Q 828.12 281.30 828.55 278.75
  A 2.28 2.27 36.5 0 0 828.33 277.32
  Q 827.34 275.38 827.92 273.55
  C 828.61 271.41 827.25 270.09 827.74 268.11
  C 828.14 266.46 827.36 265.28 826.55 264.09
  A 2.38 2.33 -66.2 0 1 826.16 263.05
  Q 825.59 258.53 821.82 255.83
  C 820.05 254.56 819.98 252.65 817.33 252.65
  Q 816.79 252.65 815.05 251.61
  Q 813.19 250.48 809.63 250.80
  A 2.53 2.45 -34.6 0 1 808.43 250.60
  Q 808.28 250.54 807.75 250.11
  Q 807.42 249.84 806.29 250.48
  Q 804.87 251.28 802.55 250.23
  Q 801.05 249.55 800.13 251.15
  A 0.59 0.59 0.0 0 1 799.43 251.42
  Q 797.87 250.91 797.31 251.36
  A 0.20 0.20 0.0 0 1 796.99 251.16
  Q 797.27 249.96 796.00 249.93
  Q 794.99 249.91 794.48 250.39
  A 1.88 1.80 -42.0 0 1 791.81 250.31
  Q 791.27 249.68 790.24 249.99
  Q 788.62 250.47 787.36 250.76
  A 1.39 1.38 -30.9 0 1 786.14 250.46
  Q 784.86 249.36 783.43 250.44
  Q 781.34 252.01 779.97 250.29
  A 0.96 0.95 -20.0 0 0 779.18 249.93
  Q 777.72 249.98 777.33 250.49
  A 2.14 2.09 44.3 0 1 774.03 250.49
  Q 772.78 248.97 770.79 250.47
  A 1.35 1.31 27.3 0 1 769.90 250.74
  Q 768.56 250.66 768.35 251.01
  A 2.78 1.57 17.8 0 1 765.61 251.57
  Q 764.74 251.35 765.27 250.35
  A 0.24 0.23 12.6 0 0 765.05 250.01
  L 757.71 250.24
  A 1.05 1.05 0.0 0 1 757.15 250.10
  Q 756.58 249.77 756.04 249.78
  Q 754.50 249.80 751.97 250.39
  A 1.04 1.00 16.4 0 0 751.47 250.65
  Q 750.10 251.87 748.17 251.49
  A 0.39 0.39 0.0 0 1 747.87 251.02
  L 747.94 250.75
  A 0.48 0.48 0.0 0 1 748.42 250.38
  Q 749.94 250.42 750.88 249.98
  A 0.17 0.17 0.0 0 0 750.83 249.66
  L 748.40 249.37
  A 1.17 1.17 0.0 0 0 747.30 249.87
  Q 746.26 251.37 745.11 249.79
  A 0.18 0.18 0.0 0 0 744.79 249.89
  L 744.79 250.96
  A 0.82 0.82 0.0 0 1 744.22 251.74
  Q 742.90 252.16 742.34 251.16
  A 0.51 0.51 0.0 0 0 741.62 250.97
  Q 741.35 251.13 739.55 250.08
  Q 737.66 248.97 736.49 250.35
  A 1.56 1.42 -37.7 0 1 733.97 250.15
  Q 733.82 249.79 733.26 249.83
  Q 731.39 249.95 731.18 250.53
  A 1.54 1.32 23.8 0 1 729.11 251.16
  Q 728.86 251.03 728.79 250.52
  A 1.04 1.04 0.0 0 0 728.07 249.65
  Q 726.83 249.27 726.16 250.37
  A 0.76 0.76 0.0 0 1 725.51 250.74
  Q 724.27 250.76 723.93 250.32
  A 1.81 1.65 -41.1 0 0 721.34 250.26
  Q 720.66 250.93 719.44 250.37
  A 0.42 0.41 -73.6 0 0 718.86 250.69
  Q 718.83 250.96 718.81 251.00
  A 0.95 0.95 0.0 0 1 718.07 251.61
  Q 716.52 251.88 716.12 250.66
  A 0.51 0.50 72.1 0 0 715.50 250.33
  Q 715.32 250.39 713.44 250.34
  Q 713.00 250.33 712.76 250.04
  Q 712.49 249.70 712.05 249.70
  A 0.54 0.54 0.0 0 0 711.52 250.08
  Q 711.28 250.83 710.30 250.65
  C 708.10 250.25 706.90 249.63 704.58 250.11
  Q 702.41 250.55 699.96 249.74
  C 698.63 249.30 698.39 250.73 696.98 250.29
  A 1.70 1.56 -16.5 0 1 696.59 250.10
  Q 695.95 249.70 694.98 249.61
  A 1.07 1.06 -66.1 0 0 694.09 249.96
  Q 692.67 251.47 690.69 249.93
  A 0.99 0.98 50.2 0 0 689.63 249.83
  Q 687.89 250.71 686.03 250.76
  A 1.29 1.27 -23.6 0 1 685.09 250.40
  Q 683.40 248.76 681.77 250.43
  A 1.63 1.61 -45.0 0 1 679.45 250.45
  Q 678.34 249.32 677.07 250.01
  A 1.05 1.05 0.0 0 0 676.53 251.02
  Q 676.53 251.10 676.57 251.32
  A 0.43 0.42 89.0 0 1 676.10 251.81
  L 673.66 251.53
  A 0.33 0.32 7.6 0 1 673.37 251.16
  Q 673.60 249.64 672.33 249.61
  Q 670.03 249.56 669.87 251.28
  A 0.58 0.57 83.1 0 1 669.48 251.78
  Q 668.70 252.03 668.05 251.55
  Q 667.88 251.43 667.90 251.14
  Q 667.91 250.97 667.88 250.79
  A 1.05 1.04 86.2 0 0 666.85 249.88
  L 665.24 249.88
  A 0.97 0.96 13.6 0 0 664.38 250.40
  L 664.20 250.75
  A 0.68 0.66 -73.5 0 1 663.53 251.12
  L 658.01 250.50
  Q 658.70 248.30 659.48 246.76
  Q 665.22 235.49 671.52 223.48
  A 0.77 0.77 0.0 0 0 670.57 222.41
  L 661.34 225.90
  A 0.95 0.95 0.0 0 1 660.06 225.02
  L 659.76 199.79
  L 659.81 175.00
  A 0.67 0.67 0.0 0 1 660.48 174.33
  Q 733.26 174.27 809.55 174.32
  Q 816.14 174.32 818.92 173.60
  C 829.80 170.79 840.60 159.22 840.64 147.75
  Q 840.72 125.44 840.57 94.23
  A 0.42 0.41 90.0 0 1 840.98 93.81
  L 1030.95 93.83
  L 1036.72 93.93
  A 1.19 1.19 0.0 0 1 1037.82 95.52
  L 1034.68 104.52
  A 0.59 0.59 0.0 0 0 1035.50 105.24
  L 1060.99 92.17
  A 0.93 0.93 0.0 0 0 1060.99 90.52
  L 1035.81 77.50
  A 0.65 0.65 0.0 0 0 1034.91 78.33
  L 1037.23 84.04
  Q 1038.04 86.39 1037.90 88.62
  A 0.57 0.57 0.0 0 1 1037.33 89.15
  L 841.21 89.15
  A 0.69 0.69 0.0 0 1 840.52 88.45
  Q 840.82 64.90 840.59 39.51
  C 840.46 26.22 832.82 14.41 820.26 10.57
  Q 816.76 9.51 800.59 9.51
  Q 645.68 9.57 503.01 9.55
  C 485.97 9.55 473.95 22.77 474.16 39.66
  Z
  M 1120.72 27.74
  A 0.73 0.72 45.3 0 0 1120.72 28.77
  L 1137.90 45.95
  A 1.24 1.23 55.9 0 0 1139.25 46.22
  C 1141.57 45.26 1143.98 45.54 1146.52 45.80
  C 1154.39 46.62 1157.74 55.43 1155.73 62.36
  A 1.10 1.10 0.0 0 0 1156.02 63.45
  Q 1161.99 69.22 1171.46 79.28
  Q 1173.32 81.25 1174.98 80.92
  Q 1182.88 79.34 1187.31 84.31
  C 1191.02 88.47 1191.90 94.60 1188.49 99.17
  Q 1184.03 105.14 1175.92 104.25
  A 3.76 3.60 61.3 0 1 1174.59 103.83
  Q 1171.20 102.02 1168.53 99.38
  C 1165.08 95.97 1167.13 91.93 1167.66 88.16
  A 0.60 0.59 25.7 0 0 1167.48 87.65
  L 1149.85 70.56
  A 0.41 0.40 56.8 0 0 1149.44 70.47
  Q 1148.83 70.68 1148.81 71.53
  Q 1148.37 90.31 1148.87 114.79
  A 1.86 1.85 -71.7 0 0 1149.58 116.21
  C 1153.00 118.91 1155.21 120.53 1155.62 124.63
  Q 1156.56 133.98 1149.15 137.49
  C 1143.97 139.96 1138.67 138.75 1134.80 135.01
  C 1128.86 129.29 1131.57 120.06 1138.42 116.19
  A 1.85 1.83 -14.8 0 0 1139.36 114.59
  L 1139.36 71.52
  A 1.54 1.54 0.0 0 0 1138.73 70.28
  C 1135.78 68.08 1132.36 65.08 1131.94 61.27
  Q 1131.58 58.05 1132.13 54.09
  A 3.24 3.22 -63.7 0 0 1131.21 51.34
  L 1114.45 34.58
  A 0.29 0.28 44.3 0 0 1114.04 34.58
  L 1065.03 83.82
  A 2.20 2.04 83.6 0 0 1064.66 84.32
  Q 1059.91 93.14 1066.71 100.33
  C 1084.79 119.45 1098.02 132.05 1117.22 151.93
  Q 1119.63 154.43 1131.85 166.54
  Q 1137.24 171.88 1140.28 172.77
  Q 1146.48 174.58 1152.80 169.29
  Q 1155.98 166.63 1160.10 162.35
  C 1176.36 145.52 1189.89 131.87 1221.73 99.73
  Q 1223.60 97.85 1224.22 95.24
  Q 1225.90 88.21 1221.30 82.98
  Q 1216.48 77.51 1206.22 67.28
  Q 1183.43 44.58 1160.57 21.68
  Q 1153.37 14.47 1149.99 12.13
  Q 1144.05 8.02 1136.59 11.92
  A 0.71 0.71 0.0 0 0 1136.38 12.08
  L 1120.72 27.74
  Z
  M 71.80 94.46
  C 80.80 94.38 89.21 90.51 94.74 83.35
  C 105.69 69.20 107.11 49.35 96.19 35.12
  C 90.67 27.92 81.11 22.71 71.19 22.80
  C 61.27 22.88 51.80 28.25 46.40 35.55
  C 35.73 49.96 37.49 69.78 48.68 83.74
  C 54.34 90.80 62.81 94.54 71.80 94.46
  Z
  M 316.58 78.21
  Q 317.70 78.67 319.80 77.23
  Q 325.80 73.13 331.04 68.75
  A 1.76 1.76 0.0 0 1 332.17 68.34
  L 357.46 68.34
  A 0.89 0.75 -50.1 0 0 357.74 68.29
  C 361.56 66.79 362.62 62.80 362.59 59.00
  Q 362.46 45.37 362.63 41.29
  C 362.88 34.79 360.88 30.91 354.02 30.95
  Q 322.70 31.16 321.73 31.13
  Q 315.36 30.91 313.47 32.20
  Q 309.79 34.72 309.90 39.47
  Q 310.19 51.86 309.90 61.08
  C 309.77 65.23 312.99 67.38 316.39 68.69
  A 1.00 1.00 0.0 0 1 317.02 69.74
  L 316.13 77.45
  A 0.73 0.72 14.7 0 0 316.58 78.21
  Z
  M 295.53 38.74
  A 1.26 1.26 0.0 0 0 294.74 36.49
  L 245.70 36.74
  A 1.26 1.26 0.0 0 0 244.94 39.00
  L 269.56 57.91
  A 1.26 1.26 0.0 0 0 271.11 57.90
  L 295.53 38.74
  Z
  M 270.25 61.14
  Q 269.70 61.14 268.75 60.52
  Q 259.62 54.52 251.45 47.82
  Q 246.69 43.92 244.46 42.73
  Q 244.15 42.56 243.96 42.58
  Q 243.33 42.65 243.32 43.31
  Q 243.20 58.24 243.19 69.25
  C 243.19 71.89 243.50 75.65 247.19 75.72
  Q 249.54 75.77 270.31 75.67
  Q 291.09 75.58 293.44 75.51
  C 297.12 75.40 297.40 71.64 297.38 69.00
  Q 297.27 57.99 297.01 43.06
  Q 296.99 42.40 296.36 42.34
  Q 296.17 42.32 295.86 42.50
  Q 293.64 43.71 288.92 47.65
  Q 280.81 54.42 271.74 60.51
  Q 270.79 61.14 270.25 61.14
  Z
  M 71.61 159.21
  C 87.38 159.23 103.08 158.62 117.72 155.97
  C 121.92 155.21 131.06 153.64 131.28 150.25
  Q 131.95 140.19 128.52 129.48
  Q 121.11 106.44 97.90 99.23
  A 3.39 3.10 52.7 0 0 97.07 99.08
  Q 93.14 98.91 91.70 99.66
  Q 81.81 104.86 71.69 104.84
  Q 61.57 104.83 51.71 99.60
  Q 50.26 98.85 46.33 99.01
  A 3.39 3.10 -52.6 0 0 45.50 99.15
  Q 22.27 106.30 14.79 129.31
  Q 11.33 140.01 11.97 150.08
  C 12.18 153.47 21.32 155.06 25.51 155.83
  C 40.15 158.53 55.85 159.18 71.61 159.21
  Z
  M 393.89 123.47
  L 393.89 109.22
  A 0.90 0.90 0.0 0 0 392.99 108.32
  L 390.98 108.32
  A 0.97 0.96 0.0 0 0 390.01 109.28
  L 390.01 135.48
  A 0.96 0.96 0.0 0 0 390.97 136.44
  L 393.20 136.44
  A 1.01 1.01 0.0 0 0 394.20 135.33
  Q 393.88 132.12 393.87 129.91
  A 1.58 1.35 -87.1 0 1 395.38 128.31
  Q 396.38 128.44 397.15 129.62
  Q 398.27 131.35 400.58 134.97
  A 3.10 3.09 -16.1 0 0 403.20 136.41
  L 405.30 136.41
  A 0.59 0.59 0.0 0 0 405.77 135.47
  L 398.26 125.37
  A 0.86 0.86 0.0 0 1 398.35 124.25
  L 404.32 118.28
  A 0.96 0.96 0.0 0 0 403.64 116.64
  L 402.71 116.64
  A 2.87 2.87 0.0 0 0 400.68 117.48
  L 394.46 123.70
  A 0.33 0.33 0.0 0 1 393.89 123.47
  Z
  M 285.2263 109.9010
  A 1.27 1.27 0.0 0 0 283.9630 108.6244
  L 282.3630 108.6160
  A 1.27 1.27 0.0 0 0 281.0864 109.8793
  L 280.9537 135.2190
  A 1.27 1.27 0.0 0 0 282.2170 136.4956
  L 283.8170 136.5040
  A 1.27 1.27 0.0 0 0 285.0936 135.2407
  L 285.2263 109.9010
  Z
  M 347.23 109.11
  A 0.61 0.61 0.0 0 0 346.62 108.50
  L 343.82 108.50
  A 0.61 0.61 0.0 0 0 343.21 109.11
  L 343.21 135.77
  A 0.61 0.61 0.0 0 0 343.82 136.38
  L 346.62 136.38
  A 0.61 0.61 0.0 0 0 347.23 135.77
  L 347.23 109.11
  Z
  M 275.69 109.36
  L 272.99 109.55
  A 0.79 0.79 0.0 0 0 272.26 110.39
  L 272.31 111.08
  A 2.32 2.03 86.1 0 0 274.49 113.25
  L 274.71 113.24
  A 2.32 2.03 86.1 0 0 276.58 110.79
  L 276.53 110.10
  A 0.79 0.79 0.0 0 0 275.69 109.36
  Z
  M 322.35 128.13
  L 322.00 128.20
  A 1.55 1.55 0.0 0 0 320.90 130.33
  Q 323.43 136.23 329.69 136.73
  C 333.76 137.06 338.58 135.88 339.66 131.36
  C 341.57 123.32 333.01 122.49 328.08 120.05
  C 319.40 115.77 333.69 107.33 336.16 117.42
  A 1.07 1.07 0.0 0 0 337.58 118.17
  L 338.89 117.68
  A 1.33 1.33 0.0 0 0 339.72 116.19
  C 337.91 106.60 321.88 107.25 321.56 116.94
  C 321.37 122.47 329.06 124.42 333.38 126.02
  Q 334.59 126.47 335.53 127.95
  C 337.14 130.48 335.00 132.59 332.39 133.11
  Q 326.61 134.25 324.70 129.39
  A 2.07 2.06 -16.7 0 0 322.35 128.13
  Z
  M 309.7898 111.3268
  A 1.30 1.30 0.0 0 0 309.0216 109.6565
  L 308.5714 109.4900
  A 1.30 1.30 0.0 0 0 306.9011 110.2583
  L 296.9302 137.2132
  A 1.30 1.30 0.0 0 0 297.6984 138.8835
  L 298.1486 139.0500
  A 1.30 1.30 0.0 0 0 299.8189 138.2817
  L 309.7898 111.3268
  Z
  M 201.99 135.91
  A 0.63 0.63 0.0 0 0 202.62 136.54
  L 217.99 136.54
  A 0.63 0.63 0.0 0 0 218.62 135.91
  L 218.62 133.76
  A 0.63 0.63 0.0 0 0 217.99 133.13
  L 206.45 133.13
  A 0.63 0.63 0.0 0 1 205.82 132.50
  L 205.82 124.94
  A 0.63 0.63 0.0 0 1 206.45 124.31
  L 216.29 124.31
  A 0.63 0.63 0.0 0 0 216.92 123.68
  L 216.92 121.77
  A 0.63 0.63 0.0 0 0 216.29 121.14
  L 206.45 121.14
  A 0.63 0.63 0.0 0 1 205.82 120.51
  L 205.82 113.76
  A 0.63 0.63 0.0 0 1 206.45 113.13
  L 218.22 113.13
  A 0.63 0.63 0.0 0 0 218.85 112.50
  L 218.85 110.49
  A 0.63 0.63 0.0 0 0 218.22 109.86
  L 202.62 109.86
  A 0.63 0.63 0.0 0 0 201.99 110.49
  L 201.99 135.91
  Z
  M 265.04 135.81
  Q 265.78 136.90 267.53 136.73
  A 1.30 1.30 0.0 0 0 268.70 135.28
  Q 268.03 129.76 268.11 124.33
  Q 268.23 115.84 259.95 116.37
  Q 255.47 116.66 253.38 120.25
  A 1.86 1.72 -66.2 0 0 254.30 122.91
  Q 254.61 123.00 255.61 122.33
  C 257.55 121.04 258.01 119.28 261.66 119.76
  A 2.54 2.52 -6.4 0 1 263.70 121.38
  L 264.35 123.09
  A 0.89 0.88 -5.8 0 1 263.38 124.27
  C 260.00 123.72 253.33 125.09 252.72 129.26
  Q 251.89 134.91 256.91 136.60
  Q 259.38 137.43 264.05 135.51
  A 0.83 0.82 -27.9 0 1 265.04 135.81
  Z
  M 367.73 135.40
  C 366.54 131.71 366.58 128.96 366.66 124.23
  C 366.72 120.31 365.92 117.53 362.02 116.56
  Q 356.01 115.05 352.04 119.98
  A 1.84 1.84 0.0 0 0 352.71 122.82
  Q 352.72 122.83 353.74 122.49
  Q 354.75 122.16 356.22 120.92
  C 359.25 118.39 362.98 119.16 362.89 123.75
  A 0.56 0.56 0.0 0 1 362.31 124.30
  C 357.83 124.15 352.44 124.30 351.37 129.22
  Q 350.67 132.45 352.77 134.95
  C 355.03 137.63 359.81 136.66 362.69 135.25
  A 0.84 0.83 49.9 0 1 363.55 135.33
  Q 363.76 135.48 363.92 135.80
  C 364.47 136.90 366.50 136.84 367.31 136.42
  A 0.86 0.85 -23.0 0 0 367.73 135.40
  Z
  M 385.82 123.49
  A 0.91 0.91 0.0 0 0 386.72 122.43
  C 385.48 115.35 376.69 114.59 372.54 119.09
  C 369.80 122.06 369.74 129.09 371.60 132.50
  Q 374.28 137.40 380.06 136.63
  Q 384.60 136.02 386.21 132.49
  Q 386.72 131.37 386.28 130.51
  A 1.73 1.44 -35.4 0 0 383.80 130.32
  Q 383.13 130.89 382.64 131.66
  C 381.54 133.38 379.59 133.79 377.71 133.24
  C 372.28 131.67 372.30 118.07 380.52 119.74
  Q 382.48 120.14 382.77 122.65
  A 0.95 0.95 0.0 0 0 383.71 123.49
  L 385.82 123.49
  Z
  M 236.02 118.33
  C 233.75 115.66 228.66 116.11 226.01 117.45
  A 0.77 0.76 55.0 0 1 225.09 117.28
  Q 224.11 116.22 222.32 116.66
  A 0.89 0.87 83.4 0 0 221.65 117.52
  L 221.65 135.60
  A 0.96 0.96 0.0 0 0 222.61 136.56
  L 224.53 136.56
  A 1.07 1.07 0.0 0 0 225.60 135.49
  L 225.60 123.34
  A 3.38 3.38 0.0 0 1 228.52 119.99
  L 229.97 119.79
  A 3.06 3.06 0.0 0 1 233.44 122.82
  L 233.44 135.27
  A 1.25 1.25 0.0 0 0 234.69 136.52
  L 235.89 136.52
  A 1.39 1.38 90.0 0 0 237.27 135.13
  L 237.27 123.53
  A 3.98 3.97 88.3 0 1 241.01 119.56
  L 241.30 119.54
  A 3.71 3.70 88.3 0 1 245.23 123.24
  L 245.23 135.19
  A 1.38 1.38 0.0 0 0 246.61 136.57
  L 247.44 136.57
  A 1.57 1.57 0.0 0 0 249.01 134.96
  Q 248.84 127.88 248.70 122.42
  C 248.61 118.93 247.55 117.73 244.53 116.71
  Q 240.92 115.48 237.03 118.44
  A 0.74 0.74 0.0 0 1 236.02 118.33
  Z
  M 276.5739 117.2668
  A 0.82 0.82 0.0 0 0 275.7525 116.4482
  L 273.6925 116.4518
  A 0.82 0.82 0.0 0 0 272.8739 117.2732
  L 272.9061 135.7132
  A 0.82 0.82 0.0 0 0 273.7275 136.5318
  L 275.7875 136.5282
  A 0.82 0.82 0.0 0 0 276.6061 135.7068
  L 276.5739 117.2668
  Z
  M 1142.04 195.37
  A 0.81 0.81 0.0 0 0 1142.84 194.42
  C 1142.03 189.75 1138.56 186.86 1133.69 186.60
  C 1127.48 186.27 1123.57 189.41 1122.38 195.56
  C 1119.98 207.98 1124.95 218.82 1139.72 214.22
  Q 1141.47 213.67 1143.16 210.85
  A 0.57 0.53 -30.4 0 0 1143.25 210.55
  L 1143.25 201.21
  A 0.66 0.66 0.0 0 0 1142.59 200.55
  L 1133.56 200.55
  A 0.77 0.77 0.0 0 0 1132.79 201.32
  L 1132.79 203.35
  A 0.67 0.67 0.0 0 0 1133.46 204.02
  L 1137.99 204.02
  A 0.82 0.82 0.0 0 1 1138.81 204.84
  L 1138.81 208.91
  A 2.23 2.22 82.3 0 1 1137.18 211.06
  C 1126.18 214.08 1125.22 204.79 1126.00 197.02
  C 1126.46 192.52 1130.00 188.95 1134.65 190.12
  C 1137.54 190.85 1138.12 192.13 1138.65 194.74
  A 0.80 0.79 -5.8 0 0 1139.43 195.37
  L 1142.04 195.37
  Z
  M 1148.3414 186.9395
  A 2.26 2.05 -131.2 0 0 1148.2875 189.9903
  A 2.26 2.05 -131.2 0 0 1151.3186 190.3405
  A 2.26 2.05 -131.2 0 0 1151.3725 187.2897
  A 2.26 2.05 -131.2 0 0 1148.3414 186.9395
  Z
  M 1158.06 197.76
  Q 1158.13 202.75 1157.92 210.50
  C 1157.80 215.01 1161.29 215.62 1164.90 215.18
  A 0.84 0.83 86.5 0 0 1165.63 214.35
  L 1165.63 212.45
  A 0.73 0.73 0.0 0 0 1164.81 211.73
  Q 1162.44 212.03 1162.36 211.16
  Q 1161.85 205.39 1162.14 197.74
  A 0.83 0.82 86.7 0 1 1162.84 196.94
  L 1164.80 196.63
  A 1.43 1.43 0.0 0 0 1164.75 193.79
  Q 1164.25 193.71 1163.04 193.86
  A 0.99 0.98 -3.0 0 1 1161.92 192.86
  Q 1161.99 190.45 1161.96 190.34
  A 2.01 2.01 0.0 0 0 1158.05 190.34
  Q 1158.04 190.36 1158.11 193.01
  A 1.01 1.01 0.0 0 1 1157.12 194.04
  Q 1156.00 194.05 1155.43 194.39
  A 1.25 1.22 -61.8 0 0 1156.10 196.70
  Q 1156.91 196.64 1157.43 196.84
  A 1.01 1.01 0.0 0 1 1158.06 197.76
  Z
  M 1152.0383 195.2213
  A 1.27 1.27 0.0 0 0 1150.7750 193.9446
  L 1149.0550 193.9356
  A 1.27 1.27 0.0 0 0 1147.7784 195.1990
  L 1147.6817 213.6587
  A 1.27 1.27 0.0 0 0 1148.9450 214.9354
  L 1150.6650 214.9444
  A 1.27 1.27 0.0 0 0 1151.9416 213.6810
  L 1152.0383 195.2213
  Z"
/>
<path fill="#151213" d="
  M 1037.23 84.04
  L 1038.51 88.82
  A 1.71 1.70 80.4 0 1 1036.99 90.96
  Q 1033.74 91.20 1030.95 93.83
  L 840.98 93.81
  A 0.42 0.41 90.0 0 0 840.57 94.23
  Q 840.72 125.44 840.64 147.75
  C 840.60 159.22 829.80 170.79 818.92 173.60
  Q 816.14 174.32 809.55 174.32
  Q 733.26 174.27 660.48 174.33
  A 0.67 0.67 0.0 0 0 659.81 175.00
  L 659.76 199.79
  L 655.57 200.26
  A 0.64 0.63 89.5 0 0 655.00 200.85
  L 654.87 203.03
  L 654.69 174.94
  A 0.70 0.70 0.0 0 0 653.98 174.24
  Q 582.78 174.32 510.40 174.35
  Q 497.54 174.36 493.71 173.02
  C 485.19 170.03 477.48 162.35 475.15 153.28
  Q 474.15 149.39 474.20 142.13
  Q 474.46 104.85 474.24 93.04
  A 0.57 0.57 0.0 0 0 473.55 92.49
  Q 471.98 92.84 470.73 93.47
  Q 462.90 97.43 448.37 105.20
  A 0.47 0.46 -4.5 0 1 447.71 104.64
  L 451.24 94.55
  A 0.52 0.52 0.0 0 0 450.75 93.86
  L 134.28 93.86
  A 0.90 0.89 -90.0 0 1 133.39 92.96
  L 133.39 90.26
  A 1.04 1.04 0.0 0 1 134.43 89.22
  L 411.04 89.20
  L 450.47 89.19
  A 0.43 0.43 0.0 0 0 450.90 88.70
  L 450.20 84.01
  A 3.52 3.45 23.7 0 0 449.59 82.49
  Q 448.02 80.24 447.59 77.98
  A 0.53 0.53 0.0 0 1 448.34 77.40
  Q 458.63 82.30 469.65 89.09
  Q 470.74 89.76 472.83 90.13
  A 1.12 1.12 0.0 0 0 474.14 89.03
  L 474.16 39.66
  C 473.95 22.77 485.97 9.55 503.01 9.55
  Q 645.68 9.57 800.59 9.51
  Q 816.76 9.51 820.26 10.57
  C 832.82 14.41 840.46 26.22 840.59 39.51
  Q 840.82 64.90 840.52 88.45
  A 0.69 0.69 0.0 0 0 841.21 89.15
  L 1037.33 89.15
  A 0.57 0.57 0.0 0 0 1037.90 88.62
  Q 1038.04 86.39 1037.23 84.04
  Z
  M 835.64 38.44
  A 24.08 24.08 0.0 0 0 811.56 14.36
  L 503.00 14.36
  A 24.08 24.08 0.0 0 0 478.92 38.44
  L 478.92 145.26
  A 24.08 24.08 0.0 0 0 503.00 169.34
  L 811.56 169.34
  A 24.08 24.08 0.0 0 0 835.64 145.26
  L 835.64 38.44
  Z"
/>
<path fill="#020203" d="
  M 1120.72 27.74
  L 1136.38 12.08
  A 0.71 0.71 0.0 0 1 1136.59 11.92
  Q 1144.05 8.02 1149.99 12.13
  Q 1153.37 14.47 1160.57 21.68
  Q 1183.43 44.58 1206.22 67.28
  Q 1216.48 77.51 1221.30 82.98
  Q 1225.90 88.21 1224.22 95.24
  Q 1223.60 97.85 1221.73 99.73
  C 1189.89 131.87 1176.36 145.52 1160.10 162.35
  Q 1155.98 166.63 1152.80 169.29
  Q 1146.48 174.58 1140.28 172.77
  Q 1137.24 171.88 1131.85 166.54
  Q 1119.63 154.43 1117.22 151.93
  C 1098.02 132.05 1084.79 119.45 1066.71 100.33
  Q 1059.91 93.14 1064.66 84.32
  A 2.20 2.04 83.6 0 1 1065.03 83.82
  L 1114.04 34.58
  A 0.29 0.28 44.3 0 1 1114.45 34.58
  L 1131.21 51.34
  A 3.24 3.22 -63.7 0 1 1132.13 54.09
  Q 1131.58 58.05 1131.94 61.27
  C 1132.36 65.08 1135.78 68.08 1138.73 70.28
  A 1.54 1.54 0.0 0 1 1139.36 71.52
  L 1139.36 114.59
  A 1.85 1.83 -14.8 0 1 1138.42 116.19
  C 1131.57 120.06 1128.86 129.29 1134.80 135.01
  C 1138.67 138.75 1143.97 139.96 1149.15 137.49
  Q 1156.56 133.98 1155.62 124.63
  C 1155.21 120.53 1153.00 118.91 1149.58 116.21
  A 1.86 1.85 -71.7 0 1 1148.87 114.79
  Q 1148.37 90.31 1148.81 71.53
  Q 1148.83 70.68 1149.44 70.47
  A 0.41 0.40 56.8 0 1 1149.85 70.56
  L 1167.48 87.65
  A 0.60 0.59 25.7 0 1 1167.66 88.16
  C 1167.13 91.93 1165.08 95.97 1168.53 99.38
  Q 1171.20 102.02 1174.59 103.83
  A 3.76 3.60 61.3 0 0 1175.92 104.25
  Q 1184.03 105.14 1188.49 99.17
  C 1191.90 94.60 1191.02 88.47 1187.31 84.31
  Q 1182.88 79.34 1174.98 80.92
  Q 1173.32 81.25 1171.46 79.28
  Q 1161.99 69.22 1156.02 63.45
  A 1.10 1.10 0.0 0 1 1155.73 62.36
  C 1157.74 55.43 1154.39 46.62 1146.52 45.80
  C 1143.98 45.54 1141.57 45.26 1139.25 46.22
  A 1.24 1.23 55.9 0 1 1137.90 45.95
  L 1120.72 28.77
  A 0.73 0.72 45.3 0 1 1120.72 27.74
  Z"
/>
<path fill="#f3f3f2" d="
  M 835.64 145.26
  A 24.08 24.08 0.0 0 1 811.56 169.34
  L 503.00 169.34
  A 24.08 24.08 0.0 0 1 478.92 145.26
  L 478.92 38.44
  A 24.08 24.08 0.0 0 1 503.00 14.36
  L 811.56 14.36
  A 24.08 24.08 0.0 0 1 835.64 38.44
  L 835.64 145.26
  Z
  M 642.02 71.18
  A 3.78 3.78 0.0 0 0 638.24 67.40
  A 3.78 3.78 0.0 0 0 634.46 71.18
  A 3.78 3.78 0.0 0 0 638.24 74.96
  A 3.78 3.78 0.0 0 0 642.02 71.18
  Z
  M 609.49 103.05
  Q 617.02 103.05 618.31 103.00
  A 0.88 0.88 0.0 0 1 619.16 103.57
  L 623.14 114.10
  A 1.67 1.67 0.0 0 0 624.70 115.18
  L 629.01 115.18
  A 0.90 0.90 0.0 0 0 629.85 113.97
  L 612.96 69.25
  A 2.05 2.04 -10.4 0 0 611.04 67.93
  Q 609.63 67.94 609.46 67.94
  Q 609.30 67.94 607.89 67.93
  A 2.05 2.04 10.3 0 0 605.97 69.26
  L 589.15 114.00
  A 0.90 0.90 0.0 0 0 589.99 115.21
  L 594.30 115.20
  A 1.67 1.67 0.0 0 0 595.86 114.12
  L 599.82 103.58
  A 0.88 0.88 0.0 0 1 600.67 103.01
  Q 601.96 103.06 609.49 103.05
  Z
  M 722.74 110.08
  C 719.61 110.61 716.96 111.37 716.86 106.96
  Q 716.65 97.70 716.87 86.25
  A 0.75 0.75 0.0 0 1 717.62 85.51
  L 722.44 85.51
  A 0.91 0.91 0.0 0 0 723.35 84.60
  L 723.35 81.00
  A 0.69 0.68 0.0 0 0 722.66 80.32
  L 717.76 80.32
  A 0.86 0.86 0.0 0 1 716.90 79.46
  L 716.90 72.35
  A 0.88 0.88 0.0 0 0 716.02 71.47
  L 711.71 71.47
  A 0.98 0.98 0.0 0 0 710.73 72.45
  L 710.73 79.69
  A 0.57 0.57 0.0 0 1 710.16 80.26
  L 705.29 80.26
  A 0.59 0.59 0.0 0 0 704.70 80.85
  L 704.70 84.52
  A 0.90 0.90 0.0 0 0 705.60 85.42
  L 709.97 85.42
  A 0.85 0.85 0.0 0 1 710.82 86.28
  Q 710.62 97.72 710.67 108.22
  Q 710.70 114.67 717.75 115.99
  Q 718.92 116.22 722.73 115.37
  A 0.74 0.74 0.0 0 0 723.31 114.65
  L 723.36 110.61
  A 0.54 0.53 85.4 0 0 722.74 110.08
  Z
  M 656.55 82.57
  L 656.55 80.93
  A 0.68 0.67 0.0 0 0 655.87 80.26
  L 651.12 80.26
  A 0.84 0.83 0.0 0 0 650.28 81.09
  L 650.28 114.03
  A 1.27 1.27 0.0 0 0 651.55 115.30
  L 655.84 115.30
  A 1.09 1.09 0.0 0 0 656.93 114.21
  L 656.93 91.18
  A 1.08 0.99 63.3 0 1 657.09 90.62
  Q 660.52 85.30 666.65 85.89
  A 0.86 0.85 2.8 0 0 667.59 85.05
  L 667.59 80.69
  A 0.96 0.95 3.8 0 0 666.76 79.75
  Q 661.31 79.02 657.48 82.95
  A 0.54 0.54 0.0 0 1 656.55 82.57
  Z
  M 693.90 113.15
  Q 693.75 113.91 693.84 114.55
  A 0.69 0.69 0.0 0 0 694.52 115.14
  L 699.49 115.14
  A 0.68 0.68 0.0 0 0 700.17 114.46
  L 700.17 80.79
  A 0.62 0.61 90.0 0 0 699.56 80.17
  L 694.81 80.17
  A 0.94 0.94 0.0 0 0 693.87 81.13
  Q 694.04 88.40 693.90 101.10
  Q 693.86 105.09 692.76 106.74
  C 690.04 110.82 683.27 111.61 680.30 107.93
  Q 678.94 106.25 678.81 99.82
  Q 678.58 88.59 678.71 81.01
  A 0.90 0.90 0.0 0 0 677.81 80.09
  L 673.34 80.09
  A 0.87 0.87 0.0 0 0 672.47 80.96
  Q 672.39 94.86 672.69 104.96
  Q 672.86 110.97 677.26 114.02
  C 680.77 116.46 687.34 117.16 691.61 113.99
  Q 693.30 112.73 693.40 112.70
  A 0.39 0.39 0.0 0 1 693.90 113.15
  Z
  M 641.5111 81.1942
  A 0.87 0.87 0.0 0 0 640.6396 80.3257
  L 635.6596 80.3344
  A 0.87 0.87 0.0 0 0 634.7911 81.2059
  L 634.8489 114.3458
  A 0.87 0.87 0.0 0 0 635.7204 115.2143
  L 640.7004 115.2056
  A 0.87 0.87 0.0 0 0 641.5689 114.3341
  L 641.5111 81.1942
  Z"
/>
<path fill="#020203" d="
  M 71.19 22.80
  C 81.11 22.71 90.67 27.92 96.19 35.12
  C 107.11 49.35 105.69 69.20 94.74 83.35
  C 89.21 90.51 80.80 94.38 71.80 94.46
  C 62.81 94.54 54.34 90.80 48.68 83.74
  C 37.49 69.78 35.73 49.96 46.40 35.55
  C 51.80 28.25 61.27 22.88 71.19 22.80
  Z"
/>
<path fill="#020203" d="
  M 316.13 77.45
  L 317.02 69.74
  A 1.00 1.00 0.0 0 0 316.39 68.69
  C 312.99 67.38 309.77 65.23 309.90 61.08
  Q 310.19 51.86 309.90 39.47
  Q 309.79 34.72 313.47 32.20
  Q 315.36 30.91 321.73 31.13
  Q 322.70 31.16 354.02 30.95
  C 360.88 30.91 362.88 34.79 362.63 41.29
  Q 362.46 45.37 362.59 59.00
  C 362.62 62.80 361.56 66.79 357.74 68.29
  A 0.89 0.75 -50.1 0 1 357.46 68.34
  L 332.17 68.34
  A 1.76 1.76 0.0 0 0 331.04 68.75
  Q 325.80 73.13 319.80 77.23
  Q 317.70 78.67 316.58 78.21
  A 0.73 0.72 14.7 0 1 316.13 77.45
  Z
  M 322.4794 46.8675
  A 3.54 3.31 -116.7 0 0 321.1129 51.5172
  A 3.54 3.31 -116.7 0 0 325.6606 53.1925
  A 3.54 3.31 -116.7 0 0 327.0271 48.5428
  A 3.54 3.31 -116.7 0 0 322.4794 46.8675
  Z
  M 334.37 48.69
  A 0.69 0.66 70.6 0 0 333.18 48.08
  C 331.76 50.25 333.91 52.60 335.84 53.60
  A 1.43 1.42 39.1 0 0 337.39 53.45
  Q 340.29 51.15 338.51 47.75
  A 2.19 2.18 69.5 0 0 336.06 46.63
  L 335.78 46.70
  A 1.50 1.50 0.0 0 0 334.73 48.71
  Q 335.29 50.15 334.97 50.77
  A 0.27 0.27 0.0 0 1 334.47 50.70
  Q 334.19 49.35 334.37 48.69
  Z
  M 346.7866 47.4677
  A 3.20 3.00 -126.5 0 0 346.2784 51.8245
  A 3.20 3.00 -126.5 0 0 350.5934 52.6123
  A 3.20 3.00 -126.5 0 0 351.1016 48.2555
  A 3.20 3.00 -126.5 0 0 346.7866 47.4677
  Z"
/>
<path fill="#020203" d="
  M 295.53 38.74
  L 271.11 57.90
  A 1.26 1.26 0.0 0 1 269.56 57.91
  L 244.94 39.00
  A 1.26 1.26 0.0 0 1 245.70 36.74
  L 294.74 36.49
  A 1.26 1.26 0.0 0 1 295.53 38.74
  Z"
/>
<path fill="#f3f3f2" d="
  M 474.16 39.66
  L 474.14 89.03
  A 1.12 1.12 0.0 0 1 472.83 90.13
  Q 470.74 89.76 469.65 89.09
  Q 458.63 82.30 448.34 77.40
  A 0.53 0.53 0.0 0 0 447.59 77.98
  Q 448.02 80.24 449.59 82.49
  A 3.52 3.45 23.7 0 1 450.20 84.01
  L 450.90 88.70
  A 0.43 0.43 0.0 0 1 450.47 89.19
  L 411.04 89.20
  C 415.20 84.95 420.55 84.80 425.04 83.67
  A 12.36 12.25 18.1 0 0 429.80 81.28
  C 435.98 76.24 441.11 72.80 449.50 72.09
  Q 458.50 71.32 464.58 71.01
  Q 468.64 70.80 471.49 68.96
  Q 473.51 67.65 473.44 64.60
  Q 473.25 56.47 473.52 52.05
  Q 473.90 45.91 474.16 39.66
  Z"
/>
<path fill="#020203" d="
  M 270.31 75.67
  Q 249.54 75.77 247.19 75.72
  C 243.50 75.65 243.19 71.89 243.19 69.25
  Q 243.20 58.24 243.32 43.31
  Q 243.33 42.65 243.96 42.58
  Q 244.15 42.56 244.46 42.73
  Q 246.69 43.92 251.45 47.82
  Q 259.62 54.52 268.75 60.52
  Q 269.70 61.14 270.25 61.14
  Q 270.79 61.14 271.74 60.51
  Q 280.81 54.42 288.92 47.65
  Q 293.64 43.71 295.86 42.50
  Q 296.17 42.32 296.36 42.34
  Q 296.99 42.40 297.01 43.06
  Q 297.27 57.99 297.38 69.00
  C 297.40 71.64 297.12 75.40 293.44 75.51
  Q 291.09 75.58 270.31 75.67
  Z"
/>
<path fill="none" d="
  M 322.4794 46.8675
  A 3.54 3.31 -116.7 0 1 327.0271 48.5428
  A 3.54 3.31 -116.7 0 1 325.6606 53.1925
  A 3.54 3.31 -116.7 0 1 321.1129 51.5172
  A 3.54 3.31 -116.7 0 1 322.4794 46.8675
  Z
  M 324.02 49.90
  Q 323.94 49.64 323.82 49.57
  A 0.14 0.14 0.0 0 0 323.62 49.72
  Q 323.67 50.02 323.87 50.06
  A 0.13 0.13 0.0 0 0 324.02 49.90
  Z"
/>
<path fill="none" d="
  M 334.37 48.69
  Q 334.19 49.35 334.47 50.70
  A 0.27 0.27 0.0 0 0 334.97 50.77
  Q 335.29 50.15 334.73 48.71
  A 1.50 1.50 0.0 0 1 335.78 46.70
  L 336.06 46.63
  A 2.19 2.18 69.5 0 1 338.51 47.75
  Q 340.29 51.15 337.39 53.45
  A 1.43 1.42 39.1 0 1 335.84 53.60
  C 333.91 52.60 331.76 50.25 333.18 48.08
  A 0.69 0.66 70.6 0 1 334.37 48.69
  Z"
/>
<ellipse fill="none" cx="0.00" cy="0.00" transform="translate(348.69,50.04) rotate(-126.5)" rx="3.20" ry="3.00"/>
<path fill="#f3f3f2" d="
  M 323.87 50.06
  Q 323.67 50.02 323.62 49.72
  A 0.14 0.14 0.0 0 1 323.82 49.57
  Q 323.94 49.64 324.02 49.90
  A 0.13 0.13 0.0 0 1 323.87 50.06
  Z"
/>
<circle fill="#151213" cx="638.24" cy="71.18" r="3.78"/>
<path fill="#151213" d="
  M 609.46 67.94
  Q 609.63 67.94 611.04 67.93
  A 2.05 2.04 -10.4 0 1 612.96 69.25
  L 629.85 113.97
  A 0.90 0.90 0.0 0 1 629.01 115.18
  L 624.70 115.18
  A 1.67 1.67 0.0 0 1 623.14 114.10
  L 619.16 103.57
  A 0.88 0.88 0.0 0 0 618.31 103.00
  Q 617.02 103.05 609.49 103.05
  Q 601.96 103.06 600.67 103.01
  A 0.88 0.88 0.0 0 0 599.82 103.58
  L 595.86 114.12
  A 1.67 1.67 0.0 0 1 594.30 115.20
  L 589.99 115.21
  A 0.90 0.90 0.0 0 1 589.15 114.00
  L 605.97 69.26
  A 2.05 2.04 10.3 0 1 607.89 67.93
  Q 609.30 67.94 609.46 67.94
  Z
  M 602.37 96.68
  A 0.50 0.50 0.0 0 0 602.84 97.34
  L 615.94 97.34
  A 0.50 0.50 0.0 0 0 616.41 96.68
  L 609.86 77.29
  A 0.50 0.50 0.0 0 0 608.92 77.29
  L 602.37 96.68
  Z"
/>
<path fill="#151213" d="
  M 722.74 110.08
  A 0.54 0.53 85.4 0 1 723.36 110.61
  L 723.31 114.65
  A 0.74 0.74 0.0 0 1 722.73 115.37
  Q 718.92 116.22 717.75 115.99
  Q 710.70 114.67 710.67 108.22
  Q 710.62 97.72 710.82 86.28
  A 0.85 0.85 0.0 0 0 709.97 85.42
  L 705.60 85.42
  A 0.90 0.90 0.0 0 1 704.70 84.52
  L 704.70 80.85
  A 0.59 0.59 0.0 0 1 705.29 80.26
  L 710.16 80.26
  A 0.57 0.57 0.0 0 0 710.73 79.69
  L 710.73 72.45
  A 0.98 0.98 0.0 0 1 711.71 71.47
  L 716.02 71.47
  A 0.88 0.88 0.0 0 1 716.90 72.35
  L 716.90 79.46
  A 0.86 0.86 0.0 0 0 717.76 80.32
  L 722.66 80.32
  A 0.69 0.68 0.0 0 1 723.35 81.00
  L 723.35 84.60
  A 0.91 0.91 0.0 0 1 722.44 85.51
  L 717.62 85.51
  A 0.75 0.75 0.0 0 0 716.87 86.25
  Q 716.65 97.70 716.86 106.96
  C 716.96 111.37 719.61 110.61 722.74 110.08
  Z"
/>
<path fill="#f3f3f2" d="
  M 602.37 96.68
  L 608.92 77.29
  A 0.50 0.50 0.0 0 1 609.86 77.29
  L 616.41 96.68
  A 0.50 0.50 0.0 0 1 615.94 97.34
  L 602.84 97.34
  A 0.50 0.50 0.0 0 1 602.37 96.68
  Z"
/>
<path fill="#020203" d="
  M 1030.95 93.83
  Q 1033.74 91.20 1036.99 90.96
  A 1.71 1.70 80.4 0 0 1038.51 88.82
  L 1037.23 84.04
  L 1034.91 78.33
  A 0.65 0.65 0.0 0 1 1035.81 77.50
  L 1060.99 90.52
  A 0.93 0.93 0.0 0 1 1060.99 92.17
  L 1035.50 105.24
  A 0.59 0.59 0.0 0 1 1034.68 104.52
  L 1037.82 95.52
  A 1.19 1.19 0.0 0 0 1036.72 93.93
  L 1030.95 93.83
  Z"
/>
<path fill="#151213" d="
  M 656.55 82.57
  A 0.54 0.54 0.0 0 0 657.48 82.95
  Q 661.31 79.02 666.76 79.75
  A 0.96 0.95 3.8 0 1 667.59 80.69
  L 667.59 85.05
  A 0.86 0.85 2.8 0 1 666.65 85.89
  Q 660.52 85.30 657.09 90.62
  A 1.08 0.99 63.3 0 0 656.93 91.18
  L 656.93 114.21
  A 1.09 1.09 0.0 0 1 655.84 115.30
  L 651.55 115.30
  A 1.27 1.27 0.0 0 1 650.28 114.03
  L 650.28 81.09
  A 0.84 0.83 0.0 0 1 651.12 80.26
  L 655.87 80.26
  A 0.68 0.67 -0.0 0 1 656.55 80.93
  L 656.55 82.57
  Z"
/>
<path fill="#151213" d="
  M 693.40 112.70
  Q 693.30 112.73 691.61 113.99
  C 687.34 117.16 680.77 116.46 677.26 114.02
  Q 672.86 110.97 672.69 104.96
  Q 672.39 94.86 672.47 80.96
  A 0.87 0.87 0.0 0 1 673.34 80.09
  L 677.81 80.09
  A 0.90 0.90 0.0 0 1 678.71 81.01
  Q 678.58 88.59 678.81 99.82
  Q 678.94 106.25 680.30 107.93
  C 683.27 111.61 690.04 110.82 692.76 106.74
  Q 693.86 105.09 693.90 101.10
  Q 694.04 88.40 693.87 81.13
  A 0.94 0.94 0.0 0 1 694.81 80.17
  L 699.56 80.17
  A 0.62 0.61 -90.0 0 1 700.17 80.79
  L 700.17 114.46
  A 0.68 0.68 0.0 0 1 699.49 115.14
  L 694.52 115.14
  A 0.69 0.69 0.0 0 1 693.84 114.55
  Q 693.75 113.91 693.90 113.15
  A 0.39 0.39 0.0 0 0 693.40 112.70
  Z"
/>
<rect fill="#151213" x="-3.36" y="-17.44" transform="translate(638.18,97.77) rotate(-0.1)" width="6.72" height="34.88" rx="0.87"/>
<path fill="#020203" d="
  M 71.69 104.84
  Q 81.81 104.86 91.70 99.66
  Q 93.14 98.91 97.07 99.08
  A 3.39 3.10 52.7 0 1 97.90 99.23
  Q 121.11 106.44 128.52 129.48
  Q 131.95 140.19 131.28 150.25
  C 131.06 153.64 121.92 155.21 117.72 155.97
  C 103.08 158.62 87.38 159.23 71.61 159.21
  C 55.85 159.18 40.15 158.53 25.51 155.83
  C 21.32 155.06 12.18 153.47 11.97 150.08
  Q 11.33 140.01 14.79 129.31
  Q 22.27 106.30 45.50 99.15
  A 3.39 3.10 -52.6 0 1 46.33 99.01
  Q 50.26 98.85 51.71 99.60
  Q 61.57 104.83 71.69 104.84
  Z"
/>
<path fill="#151213" d="
  M 393.89 123.47
  A 0.33 0.33 0.0 0 0 394.46 123.70
  L 400.68 117.48
  A 2.87 2.87 0.0 0 1 402.71 116.64
  L 403.64 116.64
  A 0.96 0.96 0.0 0 1 404.32 118.28
  L 398.35 124.25
  A 0.86 0.86 0.0 0 0 398.26 125.37
  L 405.77 135.47
  A 0.59 0.59 0.0 0 1 405.30 136.41
  L 403.20 136.41
  A 3.10 3.09 -16.1 0 1 400.58 134.97
  Q 398.27 131.35 397.15 129.62
  Q 396.38 128.44 395.38 128.31
  A 1.58 1.35 -87.1 0 0 393.87 129.91
  Q 393.88 132.12 394.20 135.33
  A 1.01 1.01 0.0 0 1 393.20 136.44
  L 390.97 136.44
  A 0.96 0.96 0.0 0 1 390.01 135.48
  L 390.01 109.28
  A 0.97 0.96 -0.0 0 1 390.98 108.32
  L 392.99 108.32
  A 0.90 0.90 0.0 0 1 393.89 109.22
  L 393.89 123.47
  Z"
/>
<rect fill="#151213" x="-2.07" y="-13.94" transform="translate(283.09,122.56) rotate(0.3)" width="4.14" height="27.88" rx="1.27"/>
<rect fill="#151213" x="343.21" y="108.50" width="4.02" height="27.88" rx="0.61"/>
<path fill="#151213" d="
  M 275.69 109.36
  A 0.79 0.79 0.0 0 1 276.53 110.10
  L 276.58 110.79
  A 2.32 2.03 86.1 0 1 274.71 113.24
  L 274.49 113.25
  A 2.32 2.03 86.1 0 1 272.31 111.08
  L 272.26 110.39
  A 0.79 0.79 0.0 0 1 272.99 109.55
  L 275.69 109.36
  Z"
/>
<path fill="#151213" d="
  M 322.35 128.13
  A 2.07 2.06 -16.7 0 1 324.70 129.39
  Q 326.61 134.25 332.39 133.11
  C 335.00 132.59 337.14 130.48 335.53 127.95
  Q 334.59 126.47 333.38 126.02
  C 329.06 124.42 321.37 122.47 321.56 116.94
  C 321.88 107.25 337.91 106.60 339.72 116.19
  A 1.33 1.33 0.0 0 1 338.89 117.68
  L 337.58 118.17
  A 1.07 1.07 0.0 0 1 336.16 117.42
  C 333.69 107.33 319.40 115.77 328.08 120.05
  C 333.01 122.49 341.57 123.32 339.66 131.36
  C 338.58 135.88 333.76 137.06 329.69 136.73
  Q 323.43 136.23 320.90 130.33
  A 1.55 1.55 0.0 0 1 322.00 128.20
  L 322.35 128.13
  Z"
/>
<rect fill="#151213" x="-1.54" y="-15.67" transform="translate(303.36,124.27) rotate(20.3)" width="3.08" height="31.34" rx="1.30"/>
<path fill="#151213" d="
  M 201.99 135.91
  L 201.99 110.49
  A 0.63 0.63 0.0 0 1 202.62 109.86
  L 218.22 109.86
  A 0.63 0.63 0.0 0 1 218.85 110.49
  L 218.85 112.50
  A 0.63 0.63 0.0 0 1 218.22 113.13
  L 206.45 113.13
  A 0.63 0.63 0.0 0 0 205.82 113.76
  L 205.82 120.51
  A 0.63 0.63 0.0 0 0 206.45 121.14
  L 216.29 121.14
  A 0.63 0.63 0.0 0 1 216.92 121.77
  L 216.92 123.68
  A 0.63 0.63 0.0 0 1 216.29 124.31
  L 206.45 124.31
  A 0.63 0.63 0.0 0 0 205.82 124.94
  L 205.82 132.50
  A 0.63 0.63 0.0 0 0 206.45 133.13
  L 217.99 133.13
  A 0.63 0.63 0.0 0 1 218.62 133.76
  L 218.62 135.91
  A 0.63 0.63 0.0 0 1 217.99 136.54
  L 202.62 136.54
  A 0.63 0.63 0.0 0 1 201.99 135.91
  Z"
/>
<path fill="#151213" d="
  M 264.05 135.51
  Q 259.38 137.43 256.91 136.60
  Q 251.89 134.91 252.72 129.26
  C 253.33 125.09 260.00 123.72 263.38 124.27
  A 0.89 0.88 -5.8 0 0 264.35 123.09
  L 263.70 121.38
  A 2.54 2.52 -6.4 0 0 261.66 119.76
  C 258.01 119.28 257.55 121.04 255.61 122.33
  Q 254.61 123.00 254.30 122.91
  A 1.86 1.72 -66.2 0 1 253.38 120.25
  Q 255.47 116.66 259.95 116.37
  Q 268.23 115.84 268.11 124.33
  Q 268.03 129.76 268.70 135.28
  A 1.30 1.30 0.0 0 1 267.53 136.73
  Q 265.78 136.90 265.04 135.81
  A 0.83 0.82 -27.9 0 0 264.05 135.51
  Z
  M 263.65 127.24
  Q 259.68 127.41 258.28 127.79
  C 255.83 128.47 255.55 133.08 258.70 133.23
  C 260.60 133.33 263.72 133.17 264.13 130.64
  Q 264.47 128.56 264.38 127.85
  A 0.70 0.70 0.0 0 0 263.65 127.24
  Z"
/>
<path fill="#151213" d="
  M 367.31 136.42
  C 366.50 136.84 364.47 136.90 363.92 135.80
  Q 363.76 135.48 363.55 135.33
  A 0.84 0.83 49.9 0 0 362.69 135.25
  C 359.81 136.66 355.03 137.63 352.77 134.95
  Q 350.67 132.45 351.37 129.22
  C 352.44 124.30 357.83 124.15 362.31 124.30
  A 0.56 0.56 0.0 0 0 362.89 123.75
  C 362.98 119.16 359.25 118.39 356.22 120.92
  Q 354.75 122.16 353.74 122.49
  Q 352.72 122.83 352.71 122.82
  A 1.84 1.84 0.0 0 1 352.04 119.98
  Q 356.01 115.05 362.02 116.56
  C 365.92 117.53 366.72 120.31 366.66 124.23
  C 366.58 128.96 366.54 131.71 367.73 135.40
  A 0.86 0.85 -23.0 0 1 367.31 136.42
  Z
  M 362.36 127.01
  C 359.40 126.80 353.87 127.44 355.05 131.59
  A 2.31 2.28 -5.6 0 0 357.09 133.24
  Q 359.09 133.39 360.89 132.57
  C 363.01 131.59 362.77 129.72 362.87 127.58
  A 0.55 0.54 -87.2 0 0 362.36 127.01
  Z"
/>
<path fill="#151213" d="
  M 385.82 123.49
  L 383.71 123.49
  A 0.95 0.95 0.0 0 1 382.77 122.65
  Q 382.48 120.14 380.52 119.74
  C 372.30 118.07 372.28 131.67 377.71 133.24
  C 379.59 133.79 381.54 133.38 382.64 131.66
  Q 383.13 130.89 383.80 130.32
  A 1.73 1.44 -35.4 0 1 386.28 130.51
  Q 386.72 131.37 386.21 132.49
  Q 384.60 136.02 380.06 136.63
  Q 374.28 137.40 371.60 132.50
  C 369.74 129.09 369.80 122.06 372.54 119.09
  C 376.69 114.59 385.48 115.35 386.72 122.43
  A 0.91 0.91 0.0 0 1 385.82 123.49
  Z"
/>
<path fill="#151213" d="
  M 236.02 118.33
  A 0.74 0.74 0.0 0 0 237.03 118.44
  Q 240.92 115.48 244.53 116.71
  C 247.55 117.73 248.61 118.93 248.70 122.42
  Q 248.84 127.88 249.01 134.96
  A 1.57 1.57 0.0 0 1 247.44 136.57
  L 246.61 136.57
  A 1.38 1.38 0.0 0 1 245.23 135.19
  L 245.23 123.24
  A 3.71 3.70 88.3 0 0 241.30 119.54
  L 241.01 119.56
  A 3.98 3.97 88.3 0 0 237.27 123.53
  L 237.27 135.13
  A 1.39 1.38 90.0 0 1 235.89 136.52
  L 234.69 136.52
  A 1.25 1.25 0.0 0 1 233.44 135.27
  L 233.44 122.82
  A 3.06 3.06 0.0 0 0 229.97 119.79
  L 228.52 119.99
  A 3.38 3.38 0.0 0 0 225.60 123.34
  L 225.60 135.49
  A 1.07 1.07 0.0 0 1 224.53 136.56
  L 222.61 136.56
  A 0.96 0.96 0.0 0 1 221.65 135.60
  L 221.65 117.52
  A 0.89 0.87 83.4 0 1 222.32 116.66
  Q 224.11 116.22 225.09 117.28
  A 0.77 0.76 55.0 0 0 226.01 117.45
  C 228.66 116.11 233.75 115.66 236.02 118.33
  Z"
/>
<rect fill="#151213" x="-1.85" y="-10.04" transform="translate(274.74,126.49) rotate(-0.1)" width="3.70" height="20.08" rx="0.82"/>
<path fill="none" d="
  M 362.36 127.01
  A 0.55 0.54 -87.2 0 1 362.87 127.58
  C 362.77 129.72 363.01 131.59 360.89 132.57
  Q 359.09 133.39 357.09 133.24
  A 2.31 2.28 -5.6 0 1 355.05 131.59
  C 353.87 127.44 359.40 126.80 362.36 127.01
  Z"
/>
<path fill="none" d="
  M 264.38 127.85
  Q 264.47 128.56 264.13 130.64
  C 263.72 133.17 260.60 133.33 258.70 133.23
  C 255.55 133.08 255.83 128.47 258.28 127.79
  Q 259.68 127.41 263.65 127.24
  A 0.70 0.70 0.0 0 1 264.38 127.85
  Z"
/>
<path fill="#151213" d="
  M 1142.04 195.37
  L 1139.43 195.37
  A 0.80 0.79 -5.8 0 1 1138.65 194.74
  C 1138.12 192.13 1137.54 190.85 1134.65 190.12
  C 1130.00 188.95 1126.46 192.52 1126.00 197.02
  C 1125.22 204.79 1126.18 214.08 1137.18 211.06
  A 2.23 2.22 82.3 0 0 1138.81 208.91
  L 1138.81 204.84
  A 0.82 0.82 0.0 0 0 1137.99 204.02
  L 1133.46 204.02
  A 0.67 0.67 0.0 0 1 1132.79 203.35
  L 1132.79 201.32
  A 0.77 0.77 0.0 0 1 1133.56 200.55
  L 1142.59 200.55
  A 0.66 0.66 0.0 0 1 1143.25 201.21
  L 1143.25 210.55
  A 0.57 0.53 -30.4 0 1 1143.16 210.85
  Q 1141.47 213.67 1139.72 214.22
  C 1124.95 218.82 1119.98 207.98 1122.38 195.56
  C 1123.57 189.41 1127.48 186.27 1133.69 186.60
  C 1138.56 186.86 1142.03 189.75 1142.84 194.42
  A 0.81 0.81 0.0 0 1 1142.04 195.37
  Z"
/>
<ellipse fill="#151213" cx="0.00" cy="0.00" transform="translate(1149.83,188.64) rotate(-131.2)" rx="2.26" ry="2.05"/>
<path fill="#151213" d="
  M 1157.43 196.84
  Q 1156.91 196.64 1156.10 196.70
  A 1.25 1.22 -61.8 0 1 1155.43 194.39
  Q 1156.00 194.05 1157.12 194.04
  A 1.01 1.01 0.0 0 0 1158.11 193.01
  Q 1158.04 190.36 1158.05 190.34
  A 2.01 2.01 0.0 0 1 1161.96 190.34
  Q 1161.99 190.45 1161.92 192.86
  A 0.99 0.98 -3.0 0 0 1163.04 193.86
  Q 1164.25 193.71 1164.75 193.79
  A 1.43 1.43 0.0 0 1 1164.80 196.63
  L 1162.84 196.94
  A 0.83 0.82 86.7 0 0 1162.14 197.74
  Q 1161.85 205.39 1162.36 211.16
  Q 1162.44 212.03 1164.81 211.73
  A 0.73 0.73 0.0 0 1 1165.63 212.45
  L 1165.63 214.35
  A 0.84 0.83 86.5 0 1 1164.90 215.18
  C 1161.29 215.62 1157.80 215.01 1157.92 210.50
  Q 1158.13 202.75 1158.06 197.76
  A 1.01 1.01 0.0 0 0 1157.43 196.84
  Z"
/>
<rect fill="#151213" x="-2.13" y="-10.50" transform="translate(1149.86,204.44) rotate(0.3)" width="4.26" height="21.00" rx="1.27"/>
<path fill="#020203" d="
  M 659.76 199.79
  L 660.06 225.02
  A 0.95 0.95 0.0 0 0 661.34 225.90
  L 670.57 222.41
  A 0.77 0.77 0.0 0 1 671.52 223.48
  Q 665.22 235.49 659.48 246.76
  Q 658.70 248.30 658.01 250.50
  Q 658.00 250.93 657.63 251.44
  A 0.52 0.52 0.0 0 1 656.73 251.36
  Q 656.56 251.00 656.51 250.49
  Q 656.56 249.54 656.19 248.79
  Q 648.96 234.09 643.03 223.14
  A 0.38 0.38 0.0 0 1 643.49 222.60
  L 653.53 226.11
  A 0.91 0.90 9.8 0 0 654.73 225.27
  L 654.87 203.03
  L 655.00 200.85
  A 0.64 0.63 89.5 0 1 655.57 200.26
  L 659.76 199.79
  Z"
/>
<path fill="#f3f3f2" d="
  M 656.51 250.49
  Q 656.56 251.00 656.73 251.36
  A 0.52 0.52 0.0 0 0 657.63 251.44
  Q 658.00 250.93 658.01 250.50
  L 663.53 251.12
  A 0.68 0.66 -73.5 0 0 664.20 250.75
  L 664.38 250.40
  A 0.97 0.96 13.6 0 1 665.24 249.88
  L 666.85 249.88
  A 1.05 1.04 86.2 0 1 667.88 250.79
  Q 667.91 250.97 667.90 251.14
  Q 667.88 251.43 668.05 251.55
  Q 668.70 252.03 669.48 251.78
  A 0.58 0.57 83.1 0 0 669.87 251.28
  Q 670.03 249.56 672.33 249.61
  Q 673.60 249.64 673.37 251.16
  A 0.33 0.32 7.6 0 0 673.66 251.53
  L 676.10 251.81
  A 0.43 0.42 89.0 0 0 676.57 251.32
  Q 676.53 251.10 676.53 251.02
  A 1.05 1.05 0.0 0 1 677.07 250.01
  Q 678.34 249.32 679.45 250.45
  A 1.63 1.61 -45.0 0 0 681.77 250.43
  Q 683.40 248.76 685.09 250.40
  A 1.29 1.27 -23.6 0 0 686.03 250.76
  Q 687.89 250.71 689.63 249.83
  A 0.99 0.98 50.2 0 1 690.69 249.93
  Q 692.67 251.47 694.09 249.96
  A 1.07 1.06 -66.1 0 1 694.98 249.61
  Q 695.95 249.70 696.59 250.10
  A 1.70 1.56 -16.5 0 0 696.98 250.29
  C 698.39 250.73 698.63 249.30 699.96 249.74
  Q 702.41 250.55 704.58 250.11
  C 706.90 249.63 708.10 250.25 710.30 250.65
  Q 711.28 250.83 711.52 250.08
  A 0.54 0.54 0.0 0 1 712.05 249.70
  Q 712.49 249.70 712.76 250.04
  Q 713.00 250.33 713.44 250.34
  Q 715.32 250.39 715.50 250.33
  A 0.51 0.50 72.1 0 1 716.12 250.66
  Q 716.52 251.88 718.07 251.61
  A 0.95 0.95 0.0 0 0 718.81 251.00
  Q 718.83 250.96 718.86 250.69
  A 0.42 0.41 -73.6 0 1 719.44 250.37
  Q 720.66 250.93 721.34 250.26
  A 1.81 1.65 -41.1 0 1 723.93 250.32
  Q 724.27 250.76 725.51 250.74
  A 0.76 0.76 0.0 0 0 726.16 250.37
  Q 726.83 249.27 728.07 249.65
  A 1.04 1.04 0.0 0 1 728.79 250.52
  Q 728.86 251.03 729.11 251.16
  A 1.54 1.32 23.8 0 0 731.18 250.53
  Q 731.39 249.95 733.26 249.83
  Q 733.82 249.79 733.97 250.15
  A 1.56 1.42 -37.7 0 0 736.49 250.35
  Q 737.66 248.97 739.55 250.08
  Q 741.35 251.13 741.62 250.97
  A 0.51 0.51 0.0 0 1 742.34 251.16
  Q 742.90 252.16 744.22 251.74
  A 0.82 0.82 0.0 0 0 744.79 250.96
  L 744.79 249.89
  A 0.18 0.18 0.0 0 1 745.11 249.79
  Q 746.26 251.37 747.30 249.87
  A 1.17 1.17 0.0 0 1 748.40 249.37
  L 750.83 249.66
  A 0.17 0.17 0.0 0 1 750.88 249.98
  Q 749.94 250.42 748.42 250.38
  A 0.48 0.48 0.0 0 0 747.94 250.75
  L 747.87 251.02
  A 0.39 0.39 0.0 0 0 748.17 251.49
  Q 750.10 251.87 751.47 250.65
  A 1.04 1.00 16.4 0 1 751.97 250.39
  Q 754.50 249.80 756.04 249.78
  Q 756.58 249.77 757.15 250.10
  A 1.05 1.05 0.0 0 0 757.71 250.24
  L 765.05 250.01
  A 0.24 0.23 12.6 0 1 765.27 250.35
  Q 764.74 251.35 765.61 251.57
  A 2.78 1.57 17.8 0 0 768.35 251.01
  Q 768.56 250.66 769.90 250.74
  A 1.35 1.31 27.3 0 0 770.79 250.47
  Q 772.78 248.97 774.03 250.49
  A 2.14 2.09 44.3 0 0 777.33 250.49
  Q 777.72 249.98 779.18 249.93
  A 0.96 0.95 -20.0 0 1 779.97 250.29
  Q 781.34 252.01 783.43 250.44
  Q 784.86 249.36 786.14 250.46
  A 1.39 1.38 -30.9 0 0 787.36 250.76
  Q 788.62 250.47 790.24 249.99
  Q 791.27 249.68 791.81 250.31
  A 1.88 1.80 -42.0 0 0 794.48 250.39
  Q 794.99 249.91 796.00 249.93
  Q 797.27 249.96 796.99 251.16
  A 0.20 0.20 0.0 0 0 797.31 251.36
  Q 797.87 250.91 799.43 251.42
  A 0.59 0.59 0.0 0 0 800.13 251.15
  Q 801.05 249.55 802.55 250.23
  Q 804.87 251.28 806.29 250.48
  Q 807.42 249.84 807.75 250.11
  Q 808.28 250.54 808.43 250.60
  A 2.53 2.45 -34.6 0 0 809.63 250.80
  Q 813.19 250.48 815.05 251.61
  Q 816.79 252.65 817.33 252.65
  C 819.98 252.65 820.05 254.56 821.82 255.83
  Q 825.59 258.53 826.16 263.05
  A 2.38 2.33 -66.2 0 0 826.55 264.09
  C 827.36 265.28 828.14 266.46 827.74 268.11
  C 827.25 270.09 828.61 271.41 827.92 273.55
  Q 827.34 275.38 828.33 277.32
  A 2.28 2.27 36.5 0 1 828.55 278.75
  Q 828.12 281.30 828.81 283.26
  A 1.21 1.20 -39.0 0 1 828.70 284.29
  C 827.08 286.91 828.69 288.58 828.00 291.11
  C 827.44 293.15 828.95 294.58 828.52 296.68
  Q 828.31 297.72 828.66 301.46
  Q 828.73 302.17 828.37 302.93
  A 2.66 2.64 46.8 0 0 828.31 304.98
  Q 829.03 306.88 828.17 309.59
  A 1.18 1.15 -50.8 0 0 828.25 310.47
  L 828.88 311.71
  A 1.35 1.29 -57.6 0 1 829.02 312.42
  L 828.64 316.62
  A 0.85 0.85 0.0 0 0 828.64 316.88
  Q 829.52 322.70 828.29 326.83
  A 1.85 1.79 -44.0 0 0 828.26 327.73
  L 828.80 330.19
  A 0.26 0.26 0.0 0 1 828.39 330.45
  Q 828.31 330.39 828.40 329.86
  A 0.46 0.46 0.0 0 0 827.88 329.33
  Q 827.47 329.39 827.44 329.75
  Q 827.23 332.14 827.49 332.29
  Q 827.69 332.41 828.09 332.29
  A 0.19 0.19 0.0 0 1 828.31 332.57
  Q 828.02 333.04 828.64 335.32
  Q 828.97 336.54 828.56 337.97
  A 0.25 0.24 17.8 0 1 828.24 338.13
  L 828.23 338.13
  A 0.25 0.24 21.1 0 1 828.09 337.82
  Q 828.42 336.97 828.41 335.90
  A 0.27 0.27 0.0 0 0 827.94 335.73
  Q 827.08 336.77 827.40 338.22
  A 0.46 0.45 80.3 0 0 827.90 338.58
  Q 827.92 338.58 828.10 338.52
  A 0.22 0.22 0.0 0 1 828.37 338.79
  C 827.78 340.65 828.99 341.81 828.49 343.77
  Q 828.08 345.42 828.63 347.97
  A 0.87 0.87 0.0 0 1 828.63 348.29
  L 826.60 358.75
  A 1.65 1.61 -20.1 0 1 826.24 359.50
  L 821.43 365.09
  A 0.02 0.01 -19.5 0 1 821.40 365.08
  Q 821.44 364.87 818.03 367.89
  A 2.66 2.66 0.0 0 1 816.33 368.55
  C 814.39 368.60 813.15 370.19 811.40 369.80
  Q 809.90 369.47 805.98 369.95
  Q 805.88 369.96 805.14 369.76
  Q 804.89 369.70 804.70 369.54
  A 0.93 0.92 52.6 0 0 803.77 369.41
  Q 801.62 370.31 798.44 369.61
  A 2.39 2.31 -49.7 0 0 797.01 369.75
  Q 794.56 370.79 792.89 369.26
  A 0.80 0.79 -36.6 0 0 792.00 369.13
  L 790.22 369.99
  A 1.69 1.54 24.6 0 1 789.75 370.14
  Q 789.34 370.22 788.21 369.60
  A 1.29 1.26 -37.5 0 0 787.30 369.49
  Q 784.29 370.26 781.51 369.41
  A 1.81 1.80 -43.1 0 0 780.54 369.38
  L 778.85 369.78
  A 1.81 1.80 -39.6 0 1 777.67 369.67
  Q 776.35 369.08 775.21 369.50
  Q 773.71 370.04 772.71 369.84
  Q 770.42 369.37 767.56 370.05
  Q 766.58 370.29 765.81 369.33
  A 0.77 0.76 -25.3 0 0 765.07 369.07
  Q 764.66 369.16 762.87 369.84
  A 2.56 1.88 -22.5 0 1 759.91 369.12
  Q 759.84 368.98 756.25 370.14
  A 0.87 0.87 0.0 0 1 755.42 369.98
  Q 754.61 369.32 753.72 369.59
  Q 750.76 370.48 748.24 369.67
  A 1.88 1.85 45.5 0 0 747.14 369.65
  Q 744.43 370.42 743.05 369.77
  Q 742.10 369.32 741.17 369.71
  Q 738.51 370.82 737.92 369.66
  A 0.62 0.62 0.0 0 0 737.24 369.34
  Q 731.97 370.53 725.87 369.69
  C 724.12 369.45 723.07 370.30 721.31 370.22
  Q 720.36 370.19 720.26 369.92
  Q 720.10 369.49 720.03 369.38
  A 0.77 0.77 0.0 0 0 718.97 369.12
  Q 718.96 369.13 718.68 369.37
  A 2.59 1.91 -35.2 0 1 715.07 369.30
  Q 714.98 369.10 714.04 369.05
  A 0.92 0.89 18.2 0 0 713.26 369.43
  Q 712.39 370.65 710.14 369.79
  Q 708.40 369.12 706.29 369.94
  Q 704.85 370.50 702.92 369.38
  A 0.81 0.81 0.0 0 0 702.13 369.36
  Q 699.69 370.64 698.61 370.13
  Q 696.60 369.17 694.01 370.11
  Q 692.81 370.54 692.19 369.81
  A 1.00 0.98 67.2 0 0 691.36 369.46
  Q 691.32 369.47 689.53 370.04
  Q 687.81 370.60 686.88 369.32
  A 0.64 0.64 0.0 0 0 686.24 369.07
  Q 685.46 369.23 685.12 369.90
  A 0.72 0.71 -76.5 0 1 684.48 370.30
  L 680.93 370.30
  A 0.80 0.79 79.1 0 1 680.19 369.79
  Q 680.14 369.66 680.08 369.42
  A 0.61 0.61 0.0 0 0 678.98 369.23
  Q 678.87 369.39 678.86 369.40
  A 3.84 3.80 25.5 0 1 676.59 370.19
  L 671.34 370.29
  A 1.90 1.87 59.4 0 1 670.35 370.03
  Q 670.33 370.02 670.17 369.88
  A 0.47 0.47 0.0 0 0 669.68 369.77
  Q 667.92 370.41 664.87 370.14
  C 662.96 369.97 661.47 370.67 659.46 369.98
  A 1.87 1.82 47.6 0 0 658.43 369.92
  L 655.78 370.50
  A 1.52 1.43 46.7 0 1 654.94 370.45
  Q 654.21 370.19 653.84 369.86
  A 0.43 0.42 -24.7 0 0 653.53 369.75
  L 643.46 370.28
  A 0.96 0.92 -30.3 0 1 642.96 370.16
  L 642.22 369.75
  A 1.54 1.53 42.3 0 0 640.61 369.82
  Q 639.81 370.38 637.62 370.08
  A 0.91 0.90 -13.4 0 1 636.98 369.69
  Q 636.10 368.38 634.65 369.56
  A 0.88 0.82 -66.8 0 1 634.20 369.76
  Q 631.73 370.11 630.73 369.65
  Q 629.79 369.22 628.47 369.66
  Q 625.30 370.71 624.98 369.38
  A 0.43 0.43 0.0 0 0 624.54 369.05
  Q 623.62 369.10 623.28 369.50
  C 622.60 370.31 621.79 370.00 620.58 369.93
  A 0.77 0.76 -14.0 0 1 619.96 369.56
  Q 619.46 368.74 618.72 369.20
  Q 617.13 370.19 615.31 370.14
  A 0.78 0.77 -11.3 0 1 614.64 369.70
  Q 614.24 368.87 613.59 368.56
  A 0.41 0.41 0.0 0 0 613.01 368.96
  Q 613.10 370.20 611.73 370.18
  Q 607.60 370.12 604.80 370.35
  Q 603.26 370.47 601.24 370.10
  Q 599.77 369.84 597.64 370.17
  A 0.72 0.72 0.0 0 1 596.85 369.72
  Q 596.57 368.99 595.19 368.46
  A 0.29 0.29 0.0 0 0 594.82 368.86
  Q 594.91 369.06 594.83 369.61
  Q 594.79 369.92 594.42 370.03
  Q 592.30 370.63 590.88 370.05
  A 0.55 0.46 49.7 0 0 590.64 370.01
  L 586.89 370.16
  A 0.72 0.72 0.0 0 1 586.15 369.34
  Q 586.19 369.01 585.66 369.02
  Q 585.10 369.02 584.85 369.21
  Q 582.64 370.94 580.20 369.32
  A 0.77 0.76 39.8 0 0 579.27 369.40
  Q 578.30 370.27 575.70 370.07
  A 0.88 0.87 88.3 0 1 574.91 369.32
  Q 574.83 368.74 573.56 368.86
  A 0.63 0.63 0.0 0 0 573.03 369.28
  Q 572.56 370.64 571.21 370.36
  Q 567.45 369.61 565.80 370.18
  A 0.68 0.68 0.0 0 1 565.03 369.95
  Q 564.63 369.43 564.10 369.19
  A 0.91 0.90 -51.5 0 0 563.18 369.30
  Q 560.24 371.53 557.92 369.39
  A 0.65 0.65 0.0 0 0 557.15 369.30
  Q 554.35 370.91 551.89 369.52
  A 0.98 0.97 43.5 0 0 550.89 369.54
  Q 549.05 370.68 547.11 369.64
  A 1.44 1.43 -38.9 0 0 546.02 369.53
  C 544.59 369.93 542.83 370.72 541.56 369.65
  A 1.16 1.15 57.2 0 0 540.53 369.42
  C 538.80 369.86 535.27 371.11 534.10 368.95
  A 0.89 0.83 -3.6 0 0 533.60 368.54
  Q 533.58 368.54 533.18 368.49
  A 0.28 0.28 0.0 0 0 532.91 368.91
  Q 532.92 368.94 532.85 369.54
  Q 532.83 369.70 532.56 369.84
  Q 530.64 370.82 529.53 369.52
  A 1.33 1.32 -41.2 0 0 527.63 369.40
  Q 526.63 370.30 524.73 370.11
  Q 523.90 370.03 523.93 369.33
  A 0.49 0.49 0.0 0 0 523.30 368.85
  Q 523.15 368.90 522.80 368.73
  A 0.58 0.58 0.0 0 0 522.00 369.08
  Q 521.80 369.72 521.06 370.00
  Q 519.18 370.69 518.39 369.35
  A 0.83 0.68 38.3 0 0 516.96 369.38
  Q 516.82 370.30 515.65 370.14
  Q 512.37 369.69 509.16 370.15
  A 1.28 1.27 -22.7 0 1 507.98 369.67
  Q 507.55 369.12 506.74 369.07
  A 1.55 1.48 30.1 0 0 505.91 369.27
  Q 504.87 369.85 504.03 369.99
  A 1.14 1.14 0.0 0 1 503.09 369.70
  C 500.89 367.71 499.46 369.55 497.35 368.60
  Q 496.50 368.22 494.79 368.39
  A 0.85 0.85 0.0 0 1 493.87 367.38
  Q 494.16 365.89 493.02 364.43
  A 1.23 1.21 -8.0 0 0 492.52 364.06
  Q 488.96 362.54 489.10 359.24
  A 0.88 0.87 -76.0 0 0 488.60 358.40
  Q 487.60 357.91 487.49 356.50
  Q 486.79 347.16 487.26 336.75
  C 487.41 333.45 486.12 331.08 486.94 327.51
  A 2.88 2.54 -41.4 0 0 486.99 327.11
  L 487.20 317.47
  A 3.47 3.44 37.6 0 0 487.06 316.43
  Q 486.45 314.35 487.05 311.91
  A 2.41 2.29 -45.9 0 0 487.06 310.84
  Q 486.65 309.02 487.00 307.79
  C 487.71 305.31 486.78 303.10 487.33 300.57
  A 2.91 2.82 46.3 0 0 487.34 299.34
  Q 486.80 296.54 487.45 293.56
  A 1.42 1.39 -55.3 0 0 487.27 292.52
  C 486.64 291.49 487.21 289.15 487.18 287.79
  Q 486.98 279.75 487.07 275.58
  A 2.63 2.59 -54.6 0 0 486.92 274.65
  C 486.18 272.52 487.46 270.46 487.29 268.52
  Q 487.04 265.76 487.32 264.64
  A 1.52 1.52 0.0 0 1 487.79 263.85
  Q 489.23 262.62 488.78 261.07
  A 1.61 1.60 48.9 0 1 488.85 259.96
  Q 489.22 259.13 490.20 258.59
  A 1.88 1.85 88.6 0 0 490.99 257.75
  Q 492.61 254.30 495.79 254.11
  A 2.04 1.96 -58.8 0 0 496.61 253.89
  Q 497.82 253.27 497.71 252.50
  A 1.31 1.29 67.4 0 1 498.20 251.28
  Q 499.58 250.22 500.93 251.65
  A 0.72 0.71 43.7 0 0 502.00 251.63
  L 503.11 250.34
  A 1.10 1.09 27.1 0 1 504.18 250.00
  L 507.57 250.82
  A 0.84 0.83 -55.4 0 0 508.27 250.69
  Q 510.30 249.23 511.68 250.27
  Q 512.70 251.04 513.67 250.47
  Q 516.74 248.69 517.84 250.45
  A 0.66 0.66 0.0 0 0 518.62 250.72
  Q 519.92 250.25 520.05 251.30
  A 0.44 0.44 0.0 0 0 520.65 251.66
  Q 521.43 251.36 522.98 251.39
  A 0.92 0.90 -77.0 0 0 523.82 250.85
  Q 523.82 250.84 523.87 250.58
  A 0.66 0.64 -82.5 0 1 524.55 250.05
  Q 525.60 250.11 526.64 249.56
  A 1.28 1.26 35.7 0 1 527.47 249.43
  Q 529.04 249.72 529.33 250.51
  A 0.18 0.18 0.0 0 0 529.67 250.48
  Q 529.78 249.74 531.12 249.48
  Q 532.03 249.31 532.79 249.82
  Q 533.40 250.24 533.95 250.19
  A 4.43 3.98 -54.5 0 0 534.80 250.00
  Q 536.92 249.25 537.84 249.86
  Q 539.87 251.22 541.37 250.05
  A 2.43 2.36 43.1 0 1 544.21 250.00
  C 545.94 251.21 547.81 248.99 550.21 250.49
  A 0.96 0.94 -43.7 0 0 551.19 250.50
  Q 553.18 249.33 556.13 250.21
  A 1.76 1.73 39.2 0 0 557.45 250.09
  Q 559.81 248.85 561.08 250.86
  A 0.49 0.48 43.3 0 0 561.91 250.84
  Q 562.57 249.67 563.37 249.45
  A 1.42 1.38 -45.9 0 1 564.03 249.43
  Q 565.27 249.71 566.12 250.40
  A 0.72 0.71 -49.2 0 0 567.10 250.32
  C 568.45 248.82 570.63 249.86 572.30 250.74
  A 0.75 0.75 0.0 0 0 573.32 250.39
  Q 573.36 250.31 573.37 250.30
  A 1.33 1.32 22.7 0 1 574.52 249.83
  L 577.84 250.15
  A 1.88 1.80 -51.9 0 0 578.68 250.03
  Q 581.31 249.01 583.27 250.22
  A 1.10 1.09 56.6 0 0 583.98 250.37
  Q 584.84 250.24 585.34 249.89
  A 2.68 2.10 -36.4 0 1 588.68 249.99
  Q 589.36 250.87 590.89 249.72
  A 1.33 1.30 -58.3 0 1 591.86 249.48
  Q 594.50 249.87 596.88 249.44
  A 4.26 4.02 -46.7 0 1 597.74 249.39
  Q 605.17 249.88 614.44 249.09
  A 1.21 1.12 47.1 0 1 614.84 249.12
  L 619.14 250.17
  A 0.39 0.38 -82.1 0 1 619.44 250.57
  Q 619.42 250.79 619.40 250.86
  A 0.41 0.40 -68.1 0 0 619.58 251.29
  Q 620.28 251.73 621.17 251.67
  A 0.67 0.67 0.0 0 0 621.79 251.00
  L 621.79 250.37
  A 0.42 0.41 6.7 0 1 622.30 249.97
  L 622.77 250.08
  A 1.13 1.13 0.0 0 0 623.54 250.00
  Q 625.54 248.99 627.59 250.85
  A 1.35 1.23 39.6 0 0 629.51 250.76
  Q 629.89 250.24 631.33 249.81
  A 0.60 0.60 0.0 0 1 632.07 250.20
  Q 632.24 250.73 633.31 251.60
  A 0.81 0.79 52.6 0 0 634.13 251.72
  Q 635.03 251.35 635.13 250.92
  A 1.67 1.56 -48.5 0 1 638.24 250.62
  Q 638.49 251.47 640.17 251.39
  A 0.61 0.61 0.0 0 0 640.76 250.81
  Q 640.80 250.13 640.81 250.12
  A 2.43 2.21 -33.6 0 1 644.13 250.63
  Q 644.35 250.98 645.51 251.15
  A 1.10 1.09 -61.7 0 0 646.39 250.88
  Q 648.65 248.86 650.48 250.78
  A 1.20 1.20 0.0 0 0 651.51 251.15
  C 652.47 251.02 652.81 250.41 654.15 250.75
  Q 655.47 251.09 656.51 250.49
  Z
  M 592.84 287.13
  Q 592.81 291.30 593.06 292.23
  Q 595.83 302.77 605.73 301.45
  C 610.27 300.84 612.95 297.78 613.65 293.40
  A 1.13 1.13 0.0 0 0 612.54 292.08
  L 611.26 292.08
  A 1.53 1.51 -84.1 0 0 609.78 293.30
  Q 608.85 297.77 604.26 298.12
  C 597.92 298.61 596.55 292.10 596.58 287.15
  C 596.62 282.21 598.08 275.72 604.41 276.29
  Q 608.99 276.71 609.86 281.19
  A 1.53 1.51 84.9 0 0 611.33 282.43
  L 612.61 282.45
  A 1.13 1.13 0.0 0 0 613.73 281.14
  C 613.09 276.75 610.46 273.66 605.93 272.98
  Q 596.05 271.53 593.13 282.02
  Q 592.87 282.96 592.84 287.13
  Z
  M 767.51 275.12
  A 2.24 2.24 0.0 0 0 765.27 272.88
  A 2.24 2.24 0.0 0 0 763.03 275.12
  A 2.24 2.24 0.0 0 0 765.27 277.36
  A 2.24 2.24 0.0 0 0 767.51 275.12
  Z
  M 755.87 279.85
  L 755.87 276.36
  A 1.39 1.39 0.0 0 0 754.48 274.97
  L 753.21 274.97
  A 1.00 1.00 0.0 0 0 752.21 275.97
  L 752.21 279.85
  A 0.63 0.63 0.0 0 1 751.58 280.48
  L 748.92 280.48
  A 1.02 1.02 0.0 0 0 747.90 281.50
  L 747.90 282.20
  A 1.23 1.22 -90.0 0 0 749.12 283.43
  L 751.13 283.43
  A 0.86 0.86 0.0 0 1 751.99 284.29
  Q 751.97 287.93 751.95 297.52
  Q 751.94 302.19 758.91 301.27
  A 0.82 0.82 0.0 0 0 759.63 300.46
  L 759.63 299.98
  A 1.48 1.48 0.0 0 0 758.11 298.50
  Q 755.77 298.56 755.86 295.35
  Q 755.94 292.46 755.93 284.65
  A 1.25 1.25 0.0 0 1 757.18 283.40
  L 759.00 283.40
  A 0.71 0.71 0.0 0 0 759.71 282.69
  L 759.71 281.08
  A 0.76 0.76 0.0 0 0 758.95 280.32
  L 756.35 280.32
  A 0.48 0.47 0.0 0 1 755.87 279.85
  Z
  M 698.07 281.21
  L 698.07 300.42
  A 0.94 0.93 0.0 0 0 699.01 301.35
  L 701.12 301.35
  A 0.94 0.93 -0.6 0 0 702.06 300.40
  Q 701.90 290.37 702.15 287.02
  C 702.35 284.32 704.93 284.11 707.01 283.95
  A 1.16 1.16 0.0 0 0 708.04 283.07
  L 708.48 281.25
  A 0.89 0.89 0.0 0 0 707.62 280.15
  Q 704.92 280.15 703.07 281.20
  A 0.78 0.77 -44.0 0 1 702.28 281.19
  Q 700.71 280.20 698.80 280.40
  A 0.81 0.81 0.0 0 0 698.07 281.21
  Z
  M 625.8420 279.9628
  A 10.93 9.45 -91.3 0 0 616.6424 291.1044
  A 10.93 9.45 -91.3 0 0 626.3380 301.8172
  A 10.93 9.45 -91.3 0 0 635.5376 290.6756
  A 10.93 9.45 -91.3 0 0 625.8420 279.9628
  Z
  M 642.96 281.31
  Q 642.00 280.11 639.46 280.43
  A 0.45 0.44 -3.7 0 0 639.07 280.87
  L 639.07 300.37
  A 1.03 1.03 0.0 0 0 640.10 301.40
  L 642.06 301.40
  A 1.03 1.03 0.0 0 0 643.09 300.35
  L 642.94 288.41
  A 4.74 4.72 83.2 0 1 646.61 283.73
  L 647.00 283.63
  A 3.49 3.48 -7.4 0 1 651.38 286.99
  L 651.38 300.37
  A 0.99 0.99 0.0 0 0 652.37 301.36
  L 654.51 301.36
  A 0.94 0.94 0.0 0 0 655.45 300.44
  Q 655.53 295.01 655.41 287.57
  C 655.36 283.88 653.99 280.60 650.05 280.23
  Q 646.04 279.86 643.61 281.42
  A 0.49 0.49 0.0 0 1 642.96 281.31
  Z
  M 667.17 294.40
  A 0.27 0.26 -46.9 0 1 666.67 294.42
  L 661.53 280.82
  A 0.69 0.67 -9.7 0 0 660.89 280.38
  L 658.78 280.38
  A 0.64 0.64 0.0 0 0 658.17 281.23
  L 664.80 300.36
  A 1.45 1.41 -80.5 0 0 665.21 300.95
  Q 666.17 301.78 667.55 301.32
  A 1.21 1.19 -88.8 0 0 668.31 300.58
  L 675.08 281.19
  A 0.58 0.57 -80.3 0 0 674.54 280.42
  L 672.50 280.42
  A 1.50 1.50 0.0 0 0 671.06 281.49
  L 667.17 294.40
  Z
  M 683.03 292.14
  L 692.90 292.14
  A 1.82 1.82 0.0 0 0 694.72 290.39
  C 694.83 287.31 693.36 281.58 689.69 280.61
  C 681.61 278.48 677.12 284.10 677.36 291.63
  C 677.53 297.14 680.33 301.04 686.03 301.60
  Q 690.53 302.05 693.65 298.91
  A 1.75 1.74 -36.2 0 0 693.97 296.89
  L 693.66 296.29
  A 1.23 1.22 -37.9 0 0 691.65 296.04
  Q 688.65 299.45 684.35 297.90
  A 3.19 3.19 0.0 0 1 682.60 296.35
  L 681.62 294.44
  A 1.58 1.58 0.0 0 1 683.03 292.14
  Z
  M 710.35 295.18
  C 711.17 299.79 714.92 302.07 719.63 301.66
  C 725.36 301.15 729.62 295.52 724.24 291.01
  Q 723.31 290.23 717.24 288.49
  Q 715.66 288.04 715.05 286.99
  A 2.07 1.96 62.1 0 1 715.85 284.11
  C 718.01 283.11 721.58 283.18 722.42 286.04
  Q 722.96 287.85 725.82 286.63
  A 0.70 0.69 75.5 0 0 726.24 285.91
  C 725.41 279.55 715.26 278.07 712.07 282.89
  C 710.83 284.77 710.50 287.55 712.24 289.43
  C 715.31 292.76 721.68 291.94 722.49 294.95
  A 2.37 2.22 71.8 0 1 721.20 297.73
  Q 716.20 299.73 714.37 295.39
  A 1.62 1.55 -87.6 0 0 713.71 294.64
  Q 712.62 294.03 710.82 294.46
  A 0.63 0.63 0.0 0 0 710.35 295.18
  Z
  M 741.40 288.49
  Q 740.61 288.53 737.02 288.65
  C 731.87 288.83 728.74 292.70 730.05 297.57
  C 731.25 302.09 737.97 302.18 741.37 300.24
  A 1.00 1.00 0.0 0 1 742.55 300.37
  Q 743.88 301.59 745.80 301.26
  A 1.09 1.08 77.9 0 0 746.66 299.92
  L 745.89 296.93
  A 2.23 2.08 -50.6 0 1 745.84 296.13
  Q 746.21 293.40 746.09 287.00
  Q 745.98 281.23 740.51 280.35
  Q 733.18 279.17 730.34 284.66
  A 1.40 1.40 0.0 0 0 731.42 286.69
  L 731.51 286.70
  A 3.16 3.16 0.0 0 0 734.48 285.35
  C 737.06 281.56 742.70 283.19 742.21 287.74
  A 0.85 0.84 2.0 0 1 741.40 288.49
  Z
  M 767.2730 281.0365
  A 0.73 0.73 0.0 0 0 766.5417 280.3078
  L 764.0017 280.3122
  A 0.73 0.73 0.0 0 0 763.2730 281.0435
  L 763.3070 300.5435
  A 0.73 0.73 0.0 0 0 764.0383 301.2722
  L 766.5783 301.2678
  A 0.73 0.73 0.0 0 0 767.3070 300.5365
  L 767.2730 281.0365
  Z
  M 780.0864 279.8850
  A 10.96 9.46 -93.0 0 0 771.2130 291.3251
  A 10.96 9.46 -93.0 0 0 781.2336 301.7750
  A 10.96 9.46 -93.0 0 0 790.1070 290.3349
  A 10.96 9.46 -93.0 0 0 780.0864 279.8850
  Z
  M 797.39 281.61
  Q 796.91 279.99 794.10 280.67
  A 0.76 0.76 0.0 0 0 793.52 281.41
  L 793.52 299.96
  A 1.36 1.35 90.0 0 0 794.87 301.32
  L 796.62 301.32
  A 0.96 0.96 0.0 0 0 797.58 300.36
  L 797.58 287.70
  A 4.19 4.19 0.0 0 1 801.43 283.52
  L 801.95 283.47
  A 3.92 3.92 0.0 0 1 806.19 287.38
  L 806.19 299.57
  A 1.80 1.79 90.0 0 0 807.98 301.37
  L 809.27 301.37
  A 0.95 0.95 0.0 0 0 810.22 300.42
  Q 810.24 288.74 809.81 285.76
  C 808.88 279.45 802.40 279.05 798.14 281.88
  A 0.50 0.50 0.0 0 1 797.39 281.61
  Z
  M 541.02 289.88
  L 534.29 283.15
  A 2.54 2.52 -22.4 0 0 532.50 282.41
  L 512.06 282.41
  A 1.81 1.74 26.7 0 0 511.05 282.72
  C 508.41 284.55 507.74 286.28 507.77 289.73
  Q 508.00 313.51 507.89 332.49
  C 507.87 335.58 508.96 336.69 511.09 338.38
  Q 512.17 339.24 516.15 339.25
  Q 556.30 339.37 568.52 339.39
  C 573.83 339.40 577.26 338.11 577.32 332.50
  Q 577.40 324.52 577.29 297.98
  C 577.26 292.28 574.14 290.29 568.33 290.41
  Q 557.41 290.64 542.43 290.48
  A 2.02 2.01 -21.8 0 1 541.02 289.88
  Z
  M 678.95 331.87
  L 678.95 316.07
  A 0.54 0.53 0.0 0 0 678.41 315.54
  L 675.64 315.54
  A 0.55 0.55 0.0 0 0 675.09 316.09
  L 675.09 344.68
  A 0.96 0.95 0.0 0 0 676.05 345.63
  L 678.14 345.63
  A 0.99 0.98 87.6 0 0 679.12 344.56
  C 678.95 342.46 678.48 338.59 679.62 337.01
  A 1.07 1.07 0.0 0 1 681.35 337.00
  L 687.18 344.85
  A 2.18 2.17 -18.3 0 0 688.92 345.72
  L 690.82 345.72
  A 0.79 0.79 0.0 0 0 691.45 344.46
  L 683.93 334.34
  A 0.96 0.96 0.0 0 1 683.97 333.14
  L 690.20 325.90
  A 0.84 0.83 20.3 0 0 689.56 324.52
  L 688.23 324.52
  A 3.78 3.78 0.0 0 0 685.37 325.83
  L 679.87 332.21
  A 0.52 0.52 0.0 0 1 678.95 331.87
  Z
  M 649.1573 324.1117
  A 11.04 9.41 -91.0 0 0 639.9414 335.3142
  A 11.04 9.41 -91.0 0 0 649.5427 346.1883
  A 11.04 9.41 -91.0 0 0 658.7586 334.9858
  A 11.04 9.41 -91.0 0 0 649.1573 324.1117
  Z
  M 693.14 339.40
  C 693.91 344.05 697.66 346.38 702.40 346.02
  C 708.17 345.57 712.52 339.95 707.15 335.35
  Q 706.23 334.56 700.14 332.74
  Q 698.55 332.27 697.95 331.21
  A 2.09 1.97 62.7 0 1 698.79 328.32
  C 700.97 327.34 704.56 327.45 705.37 330.33
  Q 705.90 332.16 708.79 330.96
  A 0.70 0.69 76.1 0 0 709.22 330.24
  C 708.45 323.84 698.26 322.24 695.00 327.06
  C 693.73 328.93 693.37 331.73 695.10 333.64
  C 698.15 337.02 704.57 336.26 705.35 339.30
  A 2.38 2.23 72.4 0 1 704.02 342.08
  Q 698.97 344.04 697.18 339.65
  A 1.63 1.56 -87.0 0 0 696.52 338.89
  Q 695.43 338.27 693.62 338.68
  A 0.64 0.63 78.8 0 0 693.14 339.40
  Z
  M 717.08 326.27
  Q 717.21 324.46 714.34 324.46
  A 1.07 1.07 0.0 0 0 713.27 325.53
  L 713.27 351.70
  A 1.38 1.38 0.0 0 0 714.65 353.08
  L 716.24 353.08
  A 1.01 1.01 0.0 0 0 717.25 352.07
  L 717.25 345.41
  A 0.52 0.52 0.0 0 1 718.02 344.95
  Q 721.61 346.83 725.92 345.19
  C 730.94 343.27 730.72 335.82 730.08 331.62
  C 729.03 324.66 723.18 322.04 717.49 326.49
  A 0.26 0.25 -16.4 0 1 717.08 326.27
  Z
  M 749.92 345.82
  A 0.60 0.59 -3.6 0 0 750.50 345.17
  Q 749.73 337.23 749.78 330.75
  Q 749.82 325.75 744.98 324.64
  Q 738.01 323.03 734.56 328.66
  A 1.49 1.34 -70.2 0 0 735.47 330.88
  C 736.86 331.01 738.31 329.52 739.60 328.26
  A 1.79 1.76 -69.6 0 1 740.67 327.76
  C 744.11 327.38 746.04 328.51 746.10 332.07
  A 0.55 0.55 0.0 0 1 745.51 332.63
  C 741.91 332.41 737.77 332.81 735.12 335.78
  C 733.00 338.16 733.05 342.37 735.60 344.50
  C 738.20 346.67 742.04 345.98 745.27 344.89
  A 1.19 1.17 -38.8 0 1 746.24 344.99
  Q 747.82 345.87 749.92 345.82
  Z
  M 753.79 335.07
  C 753.75 339.30 755.07 343.72 759.21 345.37
  C 764.10 347.32 770.15 345.06 770.92 339.27
  A 0.67 0.67 0.0 0 0 770.44 338.53
  Q 767.97 337.80 767.19 339.31
  C 765.88 341.88 764.38 343.19 761.24 342.40
  C 758.37 341.68 757.55 337.76 757.57 335.11
  C 757.60 332.45 758.49 328.55 761.38 327.88
  C 764.53 327.15 766.00 328.48 767.26 331.08
  Q 768.02 332.60 770.50 331.92
  A 0.67 0.67 0.0 0 0 770.99 331.19
  C 770.33 325.38 764.32 323.01 759.40 324.87
  C 755.23 326.45 753.82 330.84 753.79 335.07
  Z
  M 777.96 336.29
  L 790.35 336.29
  A 0.63 0.62 -1.7 0 0 790.98 335.63
  C 790.70 330.98 790.46 325.79 784.85 324.65
  Q 778.43 323.34 775.18 328.39
  C 773.48 331.03 773.48 334.07 773.65 337.33
  C 774.10 346.22 785.18 349.07 790.38 342.27
  A 1.20 1.19 -67.0 0 0 789.61 340.36
  Q 788.26 340.15 787.29 340.86
  Q 781.83 344.83 778.08 339.46
  Q 777.40 338.48 777.51 336.71
  A 0.45 0.45 0.0 0 1 777.96 336.29
  Z
  M 618.87 337.95
  A 0.40 0.40 0.0 0 1 618.10 337.93
  L 614.92 325.61
  A 1.37 1.36 -7.0 0 0 613.59 324.58
  L 611.81 324.58
  A 0.66 0.66 0.0 0 0 611.17 325.42
  Q 615.21 340.41 616.39 344.43
  Q 616.73 345.58 617.81 346.04
  A 1.55 1.45 -69.1 0 0 619.79 345.07
  Q 621.64 339.66 624.00 331.62
  A 0.36 0.36 0.0 0 1 624.69 331.63
  Q 626.59 338.47 628.48 343.98
  Q 629.04 345.60 630.38 345.89
  A 1.74 1.74 0.0 0 0 632.43 344.65
  Q 637.24 327.08 637.41 326.46
  A 1.35 1.35 0.0 0 0 636.16 324.75
  L 635.67 324.71
  A 1.79 1.78 -80.7 0 0 633.79 326.07
  L 630.98 337.64
  A 0.51 0.50 43.0 0 1 630.01 337.67
  Q 629.18 335.03 626.27 325.75
  Q 625.69 323.93 623.15 324.98
  A 0.98 0.96 -3.5 0 0 622.59 325.60
  L 618.87 337.95
  Z
  M 662.29 325.50
  L 662.39 344.67
  A 0.94 0.93 -0.3 0 0 663.34 345.59
  L 665.44 345.58
  A 0.94 0.93 -0.9 0 0 666.38 344.62
  Q 666.16 334.62 666.39 331.27
  C 666.58 328.58 669.15 328.35 671.22 328.18
  A 1.16 1.16 0.0 0 0 672.25 327.30
  L 672.68 325.48
  A 0.89 0.88 -83.4 0 0 671.81 324.39
  Q 669.12 324.40 667.28 325.46
  A 0.77 0.77 0.0 0 1 666.49 325.45
  Q 664.92 324.48 663.01 324.69
  A 0.81 0.81 0.0 0 0 662.29 325.50
  Z"
/>
<path fill="#151213" d="
  M 596.58 287.15
  C 596.55 292.10 597.92 298.61 604.26 298.12
  Q 608.85 297.77 609.78 293.30
  A 1.53 1.51 -84.1 0 1 611.26 292.08
  L 612.54 292.08
  A 1.13 1.13 0.0 0 1 613.65 293.40
  C 612.95 297.78 610.27 300.84 605.73 301.45
  Q 595.83 302.77 593.06 292.23
  Q 592.81 291.30 592.84 287.13
  Q 592.87 282.96 593.13 282.02
  Q 596.05 271.53 605.93 272.98
  C 610.46 273.66 613.09 276.75 613.73 281.14
  A 1.13 1.13 0.0 0 1 612.61 282.45
  L 611.33 282.43
  A 1.53 1.51 84.9 0 1 609.86 281.19
  Q 608.99 276.71 604.41 276.29
  C 598.08 275.72 596.62 282.21 596.58 287.15
  Z"
/>
<circle fill="#151213" cx="765.27" cy="275.12" r="2.24"/>
<path fill="#151213" d="
  M 755.87 279.85
  A 0.48 0.47 0.0 0 0 756.35 280.32
  L 758.95 280.32
  A 0.76 0.76 0.0 0 1 759.71 281.08
  L 759.71 282.69
  A 0.71 0.71 0.0 0 1 759.00 283.40
  L 757.18 283.40
  A 1.25 1.25 0.0 0 0 755.93 284.65
  Q 755.94 292.46 755.86 295.35
  Q 755.77 298.56 758.11 298.50
  A 1.48 1.48 0.0 0 1 759.63 299.98
  L 759.63 300.46
  A 0.82 0.82 0.0 0 1 758.91 301.27
  Q 751.94 302.19 751.95 297.52
  Q 751.97 287.93 751.99 284.29
  A 0.86 0.86 0.0 0 0 751.13 283.43
  L 749.12 283.43
  A 1.23 1.22 -90.0 0 1 747.90 282.20
  L 747.90 281.50
  A 1.02 1.02 0.0 0 1 748.92 280.48
  L 751.58 280.48
  A 0.63 0.63 0.0 0 0 752.21 279.85
  L 752.21 275.97
  A 1.00 1.00 0.0 0 1 753.21 274.97
  L 754.48 274.97
  A 1.39 1.39 0.0 0 1 755.87 276.36
  L 755.87 279.85
  Z"
/>
<path fill="#151213" d="
  M 698.80 280.40
  Q 700.71 280.20 702.28 281.19
  A 0.78 0.77 -44.0 0 0 703.07 281.20
  Q 704.92 280.15 707.62 280.15
  A 0.89 0.89 0.0 0 1 708.48 281.25
  L 708.04 283.07
  A 1.16 1.16 0.0 0 1 707.01 283.95
  C 704.93 284.11 702.35 284.32 702.15 287.02
  Q 701.90 290.37 702.06 300.40
  A 0.94 0.93 -0.6 0 1 701.12 301.35
  L 699.01 301.35
  A 0.94 0.93 -0.0 0 1 698.07 300.42
  L 698.07 281.21
  A 0.81 0.81 0.0 0 1 698.80 280.40
  Z"
/>
<path fill="#151213" d="
  M 625.8420 279.9628
  A 10.93 9.45 -91.3 0 1 635.5376 290.6756
  A 10.93 9.45 -91.3 0 1 626.3380 301.8172
  A 10.93 9.45 -91.3 0 1 616.6424 291.1044
  A 10.93 9.45 -91.3 0 1 625.8420 279.9628
  Z
  M 626.1039 283.2603
  A 7.58 5.60 -90.5 0 0 620.5702 290.8889
  A 7.58 5.60 -90.5 0 0 626.2361 298.4197
  A 7.58 5.60 -90.5 0 0 631.7698 290.7911
  A 7.58 5.60 -90.5 0 0 626.1039 283.2603
  Z"
/>
<path fill="#151213" d="
  M 643.61 281.42
  Q 646.04 279.86 650.05 280.23
  C 653.99 280.60 655.36 283.88 655.41 287.57
  Q 655.53 295.01 655.45 300.44
  A 0.94 0.94 0.0 0 1 654.51 301.36
  L 652.37 301.36
  A 0.99 0.99 0.0 0 1 651.38 300.37
  L 651.38 286.99
  A 3.49 3.48 -7.4 0 0 647.00 283.63
  L 646.61 283.73
  A 4.74 4.72 83.2 0 0 642.94 288.41
  L 643.09 300.35
  A 1.03 1.03 0.0 0 1 642.06 301.40
  L 640.10 301.40
  A 1.03 1.03 0.0 0 1 639.07 300.37
  L 639.07 280.87
  A 0.45 0.44 -3.7 0 1 639.46 280.43
  Q 642.00 280.11 642.96 281.31
  A 0.49 0.49 0.0 0 0 643.61 281.42
  Z"
/>
<path fill="#151213" d="
  M 667.17 294.40
  L 671.06 281.49
  A 1.50 1.50 0.0 0 1 672.50 280.42
  L 674.54 280.42
  A 0.58 0.57 -80.3 0 1 675.08 281.19
  L 668.31 300.58
  A 1.21 1.19 -88.8 0 1 667.55 301.32
  Q 666.17 301.78 665.21 300.95
  A 1.45 1.41 -80.5 0 1 664.80 300.36
  L 658.17 281.23
  A 0.64 0.64 0.0 0 1 658.78 280.38
  L 660.89 280.38
  A 0.69 0.67 -9.7 0 1 661.53 280.82
  L 666.67 294.42
  A 0.27 0.26 -46.9 0 0 667.17 294.40
  Z"
/>
<path fill="#151213" d="
  M 683.03 292.14
  A 1.58 1.58 0.0 0 0 681.62 294.44
  L 682.60 296.35
  A 3.19 3.19 0.0 0 0 684.35 297.90
  Q 688.65 299.45 691.65 296.04
  A 1.23 1.22 -37.9 0 1 693.66 296.29
  L 693.97 296.89
  A 1.75 1.74 -36.2 0 1 693.65 298.91
  Q 690.53 302.05 686.03 301.60
  C 680.33 301.04 677.53 297.14 677.36 291.63
  C 677.12 284.10 681.61 278.48 689.69 280.61
  C 693.36 281.58 694.83 287.31 694.72 290.39
  A 1.82 1.82 0.0 0 1 692.90 292.14
  L 683.03 292.14
  Z
  M 682.18 288.87
  L 690.26 288.77
  A 0.57 0.57 0.0 0 0 690.83 288.19
  L 690.82 287.97
  A 4.63 4.60 89.3 0 0 686.17 283.40
  L 686.15 283.40
  A 4.63 4.60 89.3 0 0 681.60 288.09
  L 681.61 288.31
  A 0.57 0.57 0.0 0 0 682.18 288.87
  Z"
/>
<path fill="#151213" d="
  M 710.82 294.46
  Q 712.62 294.03 713.71 294.64
  A 1.62 1.55 -87.6 0 1 714.37 295.39
  Q 716.20 299.73 721.20 297.73
  A 2.37 2.22 71.8 0 0 722.49 294.95
  C 721.68 291.94 715.31 292.76 712.24 289.43
  C 710.50 287.55 710.83 284.77 712.07 282.89
  C 715.26 278.07 725.41 279.55 726.24 285.91
  A 0.70 0.69 75.5 0 1 725.82 286.63
  Q 722.96 287.85 722.42 286.04
  C 721.58 283.18 718.01 283.11 715.85 284.11
  A 2.07 1.96 62.1 0 0 715.05 286.99
  Q 715.66 288.04 717.24 288.49
  Q 723.31 290.23 724.24 291.01
  C 729.62 295.52 725.36 301.15 719.63 301.66
  C 714.92 302.07 711.17 299.79 710.35 295.18
  A 0.63 0.63 0.0 0 1 710.82 294.46
  Z"
/>
<path fill="#151213" d="
  M 742.21 287.74
  C 742.70 283.19 737.06 281.56 734.48 285.35
  A 3.16 3.16 0.0 0 1 731.51 286.70
  L 731.42 286.69
  A 1.40 1.40 0.0 0 1 730.34 284.66
  Q 733.18 279.17 740.51 280.35
  Q 745.98 281.23 746.09 287.00
  Q 746.21 293.40 745.84 296.13
  A 2.23 2.08 -50.6 0 0 745.89 296.93
  L 746.66 299.92
  A 1.09 1.08 77.9 0 1 745.80 301.26
  Q 743.88 301.59 742.55 300.37
  A 1.00 1.00 0.0 0 0 741.37 300.24
  C 737.97 302.18 731.25 302.09 730.05 297.57
  C 728.74 292.70 731.87 288.83 737.02 288.65
  Q 740.61 288.53 741.40 288.49
  A 0.85 0.84 2.0 0 0 742.21 287.74
  Z
  M 742.2630 293.2645
  A 4.48 3.21 -19.5 0 0 736.9685 291.7341
  A 4.48 3.21 -19.5 0 0 733.8170 296.2555
  A 4.48 3.21 -19.5 0 0 739.1115 297.7859
  A 4.48 3.21 -19.5 0 0 742.2630 293.2645
  Z"
/>
<rect fill="#151213" x="-2.00" y="-10.48" transform="translate(765.29,290.79) rotate(-0.1)" width="4.00" height="20.96" rx="0.73"/>
<path fill="#151213" d="
  M 780.0864 279.8850
  A 10.96 9.46 -93.0 0 1 790.1070 290.3349
  A 10.96 9.46 -93.0 0 1 781.2336 301.7750
  A 10.96 9.46 -93.0 0 1 771.2130 291.3251
  A 10.96 9.46 -93.0 0 1 780.0864 279.8850
  Z
  M 780.6098 283.1701
  A 7.67 5.48 -90.3 0 0 775.1701 290.8687
  A 7.67 5.48 -90.3 0 0 780.6902 298.5099
  A 7.67 5.48 -90.3 0 0 786.1299 290.8113
  A 7.67 5.48 -90.3 0 0 780.6098 283.1701
  Z"
/>
<path fill="#151213" d="
  M 798.14 281.88
  C 802.40 279.05 808.88 279.45 809.81 285.76
  Q 810.24 288.74 810.22 300.42
  A 0.95 0.95 0.0 0 1 809.27 301.37
  L 807.98 301.37
  A 1.80 1.79 90.0 0 1 806.19 299.57
  L 806.19 287.38
  A 3.92 3.92 0.0 0 0 801.95 283.47
  L 801.43 283.52
  A 4.19 4.19 0.0 0 0 797.58 287.70
  L 797.58 300.36
  A 0.96 0.96 0.0 0 1 796.62 301.32
  L 794.87 301.32
  A 1.36 1.35 -90.0 0 1 793.52 299.96
  L 793.52 281.41
  A 0.76 0.76 0.0 0 1 794.10 280.67
  Q 796.91 279.99 797.39 281.61
  A 0.50 0.50 0.0 0 0 798.14 281.88
  Z"
/>
<path fill="#151213" d="
  M 541.02 289.88
  A 2.02 2.01 -21.8 0 0 542.43 290.48
  Q 557.41 290.64 568.33 290.41
  C 574.14 290.29 577.26 292.28 577.29 297.98
  Q 577.40 324.52 577.32 332.50
  C 577.26 338.11 573.83 339.40 568.52 339.39
  Q 556.30 339.37 516.15 339.25
  Q 512.17 339.24 511.09 338.38
  C 508.96 336.69 507.87 335.58 507.89 332.49
  Q 508.00 313.51 507.77 289.73
  C 507.74 286.28 508.41 284.55 511.05 282.72
  A 1.81 1.74 26.7 0 1 512.06 282.41
  L 532.50 282.41
  A 2.54 2.52 -22.4 0 1 534.29 283.15
  L 541.02 289.88
  Z
  M 572.28 297.69
  A 1.30 1.30 0.0 0 0 570.98 296.39
  L 514.20 296.39
  A 1.30 1.30 0.0 0 0 512.90 297.69
  L 512.90 332.51
  A 1.30 1.30 0.0 0 0 514.20 333.81
  L 570.98 333.81
  A 1.30 1.30 0.0 0 0 572.28 332.51
  L 572.28 297.69
  Z"
/>
<ellipse fill="#f3f3f2" cx="0.00" cy="0.00" transform="translate(626.17,290.84) rotate(-90.5)" rx="7.58" ry="5.60"/>
<path fill="#f3f3f2" d="
  M 682.18 288.87
  A 0.57 0.57 0.0 0 1 681.61 288.31
  L 681.60 288.09
  A 4.63 4.60 89.3 0 1 686.15 283.40
  L 686.17 283.40
  A 4.63 4.60 89.3 0 1 690.82 287.97
  L 690.83 288.19
  A 0.57 0.57 0.0 0 1 690.26 288.77
  L 682.18 288.87
  Z"
/>
<ellipse fill="#f3f3f2" cx="0.00" cy="0.00" transform="translate(780.65,290.84) rotate(-90.3)" rx="7.67" ry="5.48"/>
<ellipse fill="#f3f3f2" cx="0.00" cy="0.00" transform="translate(738.04,294.76) rotate(-19.5)" rx="4.48" ry="3.21"/>
<path fill="#f3f3f2" d="
  M 572.28 332.51
  A 1.30 1.30 0.0 0 1 570.98 333.81
  L 514.20 333.81
  A 1.30 1.30 0.0 0 1 512.90 332.51
  L 512.90 297.69
  A 1.30 1.30 0.0 0 1 514.20 296.39
  L 570.98 296.39
  A 1.30 1.30 0.0 0 1 572.28 297.69
  L 572.28 332.51
  Z
  M 552.47 304.86
  A 0.76 0.76 0.0 0 0 551.71 304.10
  L 543.72 304.10
  A 0.76 0.76 0.0 0 0 542.96 304.86
  L 542.96 328.59
  A 0.76 0.76 0.0 0 0 543.72 329.35
  L 561.47 329.35
  A 0.76 0.76 0.0 0 0 562.23 328.59
  L 562.23 314.85
  A 0.76 0.76 0.0 0 0 561.47 314.09
  L 553.23 314.09
  A 0.76 0.76 0.0 0 1 552.47 313.33
  L 552.47 304.86
  Z
  M 561.86 311.85
  L 555.17 304.42
  A 0.10 0.10 0.0 0 0 555.03 304.41
  L 554.99 304.45
  A 5.01 3.21 48.0 0 0 555.96 310.32
  L 556.08 310.45
  A 5.01 3.21 48.0 0 0 561.82 312.03
  L 561.86 311.99
  A 0.10 0.10 0.0 0 0 561.86 311.85
  Z"
/>
<path fill="#020203" d="
  M 552.47 304.86
  L 552.47 313.33
  A 0.76 0.76 0.0 0 0 553.23 314.09
  L 561.47 314.09
  A 0.76 0.76 0.0 0 1 562.23 314.85
  L 562.23 328.59
  A 0.76 0.76 0.0 0 1 561.47 329.35
  L 543.72 329.35
  A 0.76 0.76 0.0 0 1 542.96 328.59
  L 542.96 304.86
  A 0.76 0.76 0.0 0 1 543.72 304.10
  L 551.71 304.10
  A 0.76 0.76 0.0 0 1 552.47 304.86
  Z"
/>
<path fill="#151213" d="
  M 561.86 311.85
  A 0.10 0.10 0.0 0 1 561.86 311.99
  L 561.82 312.03
  A 5.01 3.21 48.0 0 1 556.08 310.45
  L 555.96 310.32
  A 5.01 3.21 48.0 0 1 554.99 304.45
  L 555.03 304.41
  A 0.10 0.10 0.0 0 1 555.17 304.42
  L 561.86 311.85
  Z"
/>
<path fill="#151213" d="
  M 678.95 331.87
  A 0.52 0.52 0.0 0 0 679.87 332.21
  L 685.37 325.83
  A 3.78 3.78 0.0 0 1 688.23 324.52
  L 689.56 324.52
  A 0.84 0.83 20.3 0 1 690.20 325.90
  L 683.97 333.14
  A 0.96 0.96 0.0 0 0 683.93 334.34
  L 691.45 344.46
  A 0.79 0.79 0.0 0 1 690.82 345.72
  L 688.92 345.72
  A 2.18 2.17 -18.3 0 1 687.18 344.85
  L 681.35 337.00
  A 1.07 1.07 0.0 0 0 679.62 337.01
  C 678.48 338.59 678.95 342.46 679.12 344.56
  A 0.99 0.98 87.6 0 1 678.14 345.63
  L 676.05 345.63
  A 0.96 0.95 -0.0 0 1 675.09 344.68
  L 675.09 316.09
  A 0.55 0.55 0.0 0 1 675.64 315.54
  L 678.41 315.54
  A 0.54 0.53 -0.0 0 1 678.95 316.07
  L 678.95 331.87
  Z"
/>
<path fill="#151213" d="
  M 649.1573 324.1117
  A 11.04 9.41 -91.0 0 1 658.7586 334.9858
  A 11.04 9.41 -91.0 0 1 649.5427 346.1883
  A 11.04 9.41 -91.0 0 1 639.9414 335.3142
  A 11.04 9.41 -91.0 0 1 649.1573 324.1117
  Z
  M 649.1848 327.4623
  A 7.58 5.57 -91.4 0 0 643.8017 335.1761
  A 7.58 5.57 -91.4 0 0 649.5552 342.6177
  A 7.58 5.57 -91.4 0 0 654.9383 334.9039
  A 7.58 5.57 -91.4 0 0 649.1848 327.4623
  Z"
/>
<path fill="#151213" d="
  M 693.14 339.40
  A 0.64 0.63 78.8 0 1 693.62 338.68
  Q 695.43 338.27 696.52 338.89
  A 1.63 1.56 -87.0 0 1 697.18 339.65
  Q 698.97 344.04 704.02 342.08
  A 2.38 2.23 72.4 0 0 705.35 339.30
  C 704.57 336.26 698.15 337.02 695.10 333.64
  C 693.37 331.73 693.73 328.93 695.00 327.06
  C 698.26 322.24 708.45 323.84 709.22 330.24
  A 0.70 0.69 76.1 0 1 708.79 330.96
  Q 705.90 332.16 705.37 330.33
  C 704.56 327.45 700.97 327.34 698.79 328.32
  A 2.09 1.97 62.7 0 0 697.95 331.21
  Q 698.55 332.27 700.14 332.74
  Q 706.23 334.56 707.15 335.35
  C 712.52 339.95 708.17 345.57 702.40 346.02
  C 697.66 346.38 693.91 344.05 693.14 339.40
  Z"
/>
<path fill="#151213" d="
  M 717.08 326.27
  A 0.26 0.25 -16.4 0 0 717.49 326.49
  C 723.18 322.04 729.03 324.66 730.08 331.62
  C 730.72 335.82 730.94 343.27 725.92 345.19
  Q 721.61 346.83 718.02 344.95
  A 0.52 0.52 0.0 0 0 717.25 345.41
  L 717.25 352.07
  A 1.01 1.01 0.0 0 1 716.24 353.08
  L 714.65 353.08
  A 1.38 1.38 0.0 0 1 713.27 351.70
  L 713.27 325.53
  A 1.07 1.07 0.0 0 1 714.34 324.46
  Q 717.21 324.46 717.08 326.27
  Z
  M 717.20 335.18
  Q 717.15 339.12 717.45 340.00
  C 718.27 342.48 721.81 343.49 723.98 341.82
  C 726.24 340.10 726.63 338.14 726.66 335.29
  C 726.69 332.43 726.35 330.46 724.13 328.69
  C 722.00 326.97 718.44 327.90 717.56 330.36
  Q 717.24 331.24 717.20 335.18
  Z"
/>
<path fill="#151213" d="
  M 749.92 345.82
  Q 747.82 345.87 746.24 344.99
  A 1.19 1.17 -38.8 0 0 745.27 344.89
  C 742.04 345.98 738.20 346.67 735.60 344.50
  C 733.05 342.37 733.00 338.16 735.12 335.78
  C 737.77 332.81 741.91 332.41 745.51 332.63
  A 0.55 0.55 0.0 0 0 746.10 332.07
  C 746.04 328.51 744.11 327.38 740.67 327.76
  A 1.79 1.76 -69.6 0 0 739.60 328.26
  C 738.31 329.52 736.86 331.01 735.47 330.88
  A 1.49 1.34 -70.2 0 1 734.56 328.66
  Q 738.01 323.03 744.98 324.64
  Q 749.82 325.75 749.78 330.75
  Q 749.73 337.23 750.50 345.17
  A 0.60 0.59 -3.6 0 1 749.92 345.82
  Z
  M 745.78 335.79
  C 742.67 335.48 736.81 335.98 737.93 340.39
  A 2.44 2.41 -3.9 0 0 740.03 342.20
  Q 742.13 342.42 744.06 341.61
  C 746.33 340.65 746.13 338.66 746.30 336.41
  A 0.58 0.57 -85.5 0 0 745.78 335.79
  Z"
/>
<path fill="#151213" d="
  M 757.57 335.11
  C 757.55 337.76 758.37 341.68 761.24 342.40
  C 764.38 343.19 765.88 341.88 767.19 339.31
  Q 767.97 337.80 770.44 338.53
  A 0.67 0.67 0.0 0 1 770.92 339.27
  C 770.15 345.06 764.10 347.32 759.21 345.37
  C 755.07 343.72 753.75 339.30 753.79 335.07
  C 753.82 330.84 755.23 326.45 759.40 324.87
  C 764.32 323.01 770.33 325.38 770.99 331.19
  A 0.67 0.67 0.0 0 1 770.50 331.92
  Q 768.02 332.60 767.26 331.08
  C 766.00 328.48 764.53 327.15 761.38 327.88
  C 758.49 328.55 757.60 332.45 757.57 335.11
  Z"
/>
<path fill="#151213" d="
  M 777.51 336.71
  Q 777.40 338.48 778.08 339.46
  Q 781.83 344.83 787.29 340.86
  Q 788.26 340.15 789.61 340.36
  A 1.20 1.19 -67.0 0 1 790.38 342.27
  C 785.18 349.07 774.10 346.22 773.65 337.33
  C 773.48 334.07 773.48 331.03 775.18 328.39
  Q 778.43 323.34 784.85 324.65
  C 790.46 325.79 790.70 330.98 790.98 335.63
  A 0.63 0.62 -1.7 0 1 790.35 336.29
  L 777.96 336.29
  A 0.45 0.45 0.0 0 0 777.51 336.71
  Z
  M 778.18 332.97
  L 786.48 333.05
  A 0.40 0.40 0.0 0 0 786.89 332.66
  L 786.89 332.34
  A 4.66 4.52 -89.4 0 0 782.42 327.63
  L 782.36 327.63
  A 4.66 4.52 -89.4 0 0 777.79 332.24
  L 777.79 332.56
  A 0.40 0.40 0.0 0 0 778.18 332.97
  Z"
/>
<path fill="#151213" d="
  M 618.87 337.95
  L 622.59 325.60
  A 0.98 0.96 -3.5 0 1 623.15 324.98
  Q 625.69 323.93 626.27 325.75
  Q 629.18 335.03 630.01 337.67
  A 0.51 0.50 43.0 0 0 630.98 337.64
  L 633.79 326.07
  A 1.79 1.78 -80.7 0 1 635.67 324.71
  L 636.16 324.75
  A 1.35 1.35 0.0 0 1 637.41 326.46
  Q 637.24 327.08 632.43 344.65
  A 1.74 1.74 0.0 0 1 630.38 345.89
  Q 629.04 345.60 628.48 343.98
  Q 626.59 338.47 624.69 331.63
  A 0.36 0.36 0.0 0 0 624.00 331.62
  Q 621.64 339.66 619.79 345.07
  A 1.55 1.45 -69.1 0 1 617.81 346.04
  Q 616.73 345.58 616.39 344.43
  Q 615.21 340.41 611.17 325.42
  A 0.66 0.66 0.0 0 1 611.81 324.58
  L 613.59 324.58
  A 1.37 1.36 -7.0 0 1 614.92 325.61
  L 618.10 337.93
  A 0.40 0.40 0.0 0 0 618.87 337.95
  Z"
/>
<path fill="#151213" d="
  M 662.29 325.50
  A 0.81 0.81 0.0 0 1 663.01 324.69
  Q 664.92 324.48 666.49 325.45
  A 0.77 0.77 0.0 0 0 667.28 325.46
  Q 669.12 324.40 671.81 324.39
  A 0.89 0.88 -83.4 0 1 672.68 325.48
  L 672.25 327.30
  A 1.16 1.16 0.0 0 1 671.22 328.18
  C 669.15 328.35 666.58 328.58 666.39 331.27
  Q 666.16 334.62 666.38 344.62
  A 0.94 0.93 -0.9 0 1 665.44 345.58
  L 663.34 345.59
  A 0.94 0.93 -0.3 0 1 662.39 344.67
  L 662.29 325.50
  Z"
/>
<ellipse fill="#f3f3f2" cx="0.00" cy="0.00" transform="translate(649.37,335.04) rotate(-91.4)" rx="7.58" ry="5.57"/>
<path fill="#f3f3f2" d="
  M 726.66 335.29
  C 726.63 338.14 726.24 340.10 723.98 341.82
  C 721.81 343.49 718.27 342.48 717.45 340.00
  Q 717.15 339.12 717.20 335.18
  Q 717.24 331.24 717.56 330.36
  C 718.44 327.90 722.00 326.97 724.13 328.69
  C 726.35 330.46 726.69 332.43 726.66 335.29
  Z"
/>
<path fill="#f3f3f2" d="
  M 778.18 332.97
  A 0.40 0.40 0.0 0 1 777.79 332.56
  L 777.79 332.24
  A 4.66 4.52 -89.4 0 1 782.36 327.63
  L 782.42 327.63
  A 4.66 4.52 -89.4 0 1 786.89 332.34
  L 786.89 332.66
  A 0.40 0.40 0.0 0 1 786.48 333.05
  L 778.18 332.97
  Z"
/>
<path fill="#f3f3f2" d="
  M 746.30 336.41
  C 746.13 338.66 746.33 340.65 744.06 341.61
  Q 742.13 342.42 740.03 342.20
  A 2.44 2.41 -3.9 0 1 737.93 340.39
  C 736.81 335.98 742.67 335.48 745.78 335.79
  A 0.58 0.57 -85.5 0 1 746.30 336.41
  Z"
/>
</svg>
