<?xml version="1.0" encoding="UTF-8" standalone="no"?>
<!DOCTYPE svg PUBLIC "-//W3C//DTD SVG 1.1//EN" "http://www.w3.org/Graphics/SVG/1.1/DTD/svg11.dtd">
<svg xmlns="http://www.w3.org/2000/svg" version="1.1" viewBox="0.00 0.00 1302.00 267.00">
<path fill="none" d="
  M 1302.00 0.00
  L 1302.00 267.00
  L 0.00 267.00
  L 0.00 0.00
  L 1302.00 0.00
  Z
  M 683.10 17.46
  A 0.85 0.85 0.0 0 0 682.25 16.61
  Q 675.09 16.65 653.80 16.72
  Q 647.75 16.74 647.75 22.03
  Q 647.80 55.23 647.09 89.52
  C 646.96 95.88 652.84 95.50 657.24 95.45
  Q 680.18 95.18 699.66 95.21
  C 703.32 95.21 706.52 94.68 706.91 90.72
  C 707.45 85.18 706.70 79.57 706.77 73.41
  Q 707.03 50.59 706.99 43.32
  A 1.71 1.71 0.0 0 0 705.28 41.62
  L 684.30 41.62
  A 1.20 1.20 0.0 0 1 683.10 40.42
  L 683.10 17.46
  Z
  M 704.86 38.33
  A 0.45 0.45 0.0 0 0 705.18 37.56
  L 687.06 19.63
  A 0.45 0.45 0.0 0 0 686.29 19.96
  L 686.64 37.74
  A 0.45 0.45 0.0 0 0 687.08 38.18
  L 704.86 38.33
  Z
  M 601.07 101.01
  L 601.25 148.70
  A 1.12 1.11 21.7 0 0 601.60 149.51
  Q 602.01 149.90 603.71 151.28
  C 609.65 156.06 609.96 163.16 605.43 168.95
  Q 600.87 174.78 593.40 173.06
  C 588.22 171.87 583.95 168.39 582.98 163.00
  C 581.80 156.37 585.50 151.93 591.13 148.83
  A 1.29 1.27 -17.3 0 0 591.80 147.57
  Q 591.34 143.02 591.41 138.25
  Q 591.55 129.33 591.75 101.33
  A 1.35 1.35 0.0 0 0 590.95 100.08
  C 585.68 97.73 581.72 92.86 582.77 86.74
  Q 583.19 84.33 583.29 83.57
  A 2.10 2.10 0.0 0 0 582.86 82.01
  Q 581.49 80.24 579.65 78.65
  Q 578.22 77.42 576.30 75.25
  Q 571.63 69.99 564.38 63.75
  A 0.57 0.57 0.0 0 0 563.59 63.78
  Q 527.94 99.20 513.93 113.41
  Q 509.55 117.85 509.19 123.64
  C 508.94 127.86 510.88 131.19 513.82 133.95
  C 519.46 139.23 526.03 146.16 530.15 150.27
  Q 563.16 183.23 581.14 201.95
  Q 586.22 207.23 589.36 208.99
  C 597.33 213.46 602.45 209.44 608.07 203.82
  Q 611.48 200.41 619.03 192.43
  A 2.11 2.11 0.0 0 0 619.60 190.72
  Q 616.67 165.93 636.23 152.44
  C 641.49 148.81 648.50 146.37 654.97 146.36
  Q 659.29 146.36 663.30 146.81
  A 1.47 1.47 0.0 0 0 664.46 146.42
  Q 674.47 136.87 679.16 131.85
  C 681.92 128.89 681.80 125.86 681.68 121.97
  C 681.58 118.88 679.93 116.90 677.93 114.61
  Q 672.22 108.08 663.81 99.92
  A 2.69 2.68 66.9 0 0 661.95 99.17
  Q 659.19 99.16 654.40 99.14
  C 649.30 99.11 646.05 97.07 644.22 92.72
  A 2.68 2.57 34.3 0 1 644.02 91.77
  L 643.83 81.18
  A 3.60 3.59 -67.2 0 0 642.84 78.75
  Q 638.10 73.73 631.05 67.00
  C 621.94 58.32 614.14 50.23 605.31 41.67
  Q 599.06 35.61 591.12 38.31
  C 588.76 39.11 586.80 40.89 584.93 42.68
  Q 577.73 49.60 571.70 55.90
  A 1.40 1.39 -36.5 0 0 571.46 57.48
  Q 571.69 57.93 572.57 58.93
  Q 580.67 68.04 589.41 75.51
  A 1.64 1.59 61.3 0 0 590.64 75.89
  C 592.12 75.74 593.55 75.14 595.03 75.13
  Q 606.86 74.98 608.18 87.33
  A 0.76 0.70 -42.6 0 1 608.17 87.45
  L 607.53 92.00
  A 1.24 1.23 -63.5 0 0 607.87 93.03
  L 626.81 111.97
  A 1.09 1.07 -29.2 0 0 627.84 112.25
  Q 638.66 109.55 643.64 118.51
  C 650.25 130.38 635.91 142.91 625.02 134.23
  C 620.36 130.52 619.03 125.64 620.72 119.92
  A 0.71 0.70 31.1 0 0 620.54 119.22
  L 601.96 100.64
  A 0.52 0.52 0.0 0 0 601.07 101.01
  Z
  M 739.36 127.74
  C 737.66 131.21 736.04 133.85 735.16 137.97
  A 0.29 0.28 -7.4 0 0 735.57 138.28
  L 761.35 125.58
  A 0.56 0.56 0.0 0 1 762.16 126.09
  Q 761.69 154.76 762.10 177.93
  C 762.29 189.07 770.77 198.55 781.04 201.37
  Q 784.15 202.22 798.57 202.22
  Q 888.47 202.20 940.00 202.13
  C 951.50 202.11 960.73 195.85 964.80 185.06
  Q 966.40 180.81 966.40 178.81
  Q 966.46 158.95 966.26 127.37
  A 0.49 0.48 -90.0 0 1 966.74 126.88
  L 1105.42 126.88
  A 0.74 0.73 10.2 0 1 1106.11 127.87
  L 1102.35 137.79
  A 0.50 0.50 0.0 0 0 1102.79 138.46
  Q 1103.13 138.49 1103.54 138.29
  Q 1108.00 136.17 1128.62 125.72
  A 1.15 1.15 0.0 0 0 1129.07 124.08
  Q 1128.49 123.18 1127.67 122.79
  Q 1115.69 117.18 1103.93 110.30
  Q 1103.58 110.09 1102.67 109.98
  A 0.34 0.34 0.0 0 0 1102.30 110.44
  L 1106.20 120.97
  A 0.74 0.74 0.0 0 1 1105.51 121.96
  L 966.85 121.96
  A 0.55 0.55 0.0 0 1 966.30 121.41
  Q 966.25 92.40 966.26 76.09
  C 966.27 67.99 965.07 62.24 960.55 56.24
  Q 955.84 49.98 948.76 47.45
  Q 945.44 46.27 934.09 46.27
  Q 808.01 46.29 785.23 46.37
  Q 781.67 46.39 777.90 48.13
  Q 767.38 52.98 763.46 63.27
  Q 762.11 66.81 762.10 74.37
  Q 762.06 98.53 762.18 122.80
  A 0.51 0.51 0.0 0 1 761.43 123.25
  L 736.53 109.93
  A 0.55 0.55 0.0 0 0 735.74 110.27
  Q 735.63 110.65 735.84 111.19
  Q 737.08 114.40 739.64 121.21
  A 0.56 0.56 0.0 0 1 739.12 121.96
  L 684.02 121.96
  A 0.68 0.68 0.0 0 0 683.34 122.64
  L 683.34 126.15
  A 0.64 0.64 0.0 0 0 683.98 126.79
  L 738.76 126.79
  A 0.66 0.66 0.0 0 1 739.36 127.74
  Z
  M 1200.80 88.08
  Q 1223.62 88.11 1264.08 88.28
  A 0.53 0.53 0.0 0 0 1264.50 87.42
  Q 1256.31 77.15 1244.70 61.24
  Q 1241.78 57.24 1238.11 56.02
  A 3.25 3.03 54.6 0 0 1237.42 55.88
  Q 1235.55 55.74 1200.84 55.70
  Q 1166.13 55.65 1164.26 55.78
  A 3.25 3.03 -54.4 0 0 1163.57 55.92
  Q 1159.90 57.13 1156.97 61.13
  Q 1145.31 77.01 1137.10 87.26
  A 0.53 0.53 0.0 0 0 1137.52 88.12
  Q 1177.97 88.05 1200.80 88.08
  Z
  M 79.57 137.77
  C 96.31 137.29 107.12 123.12 109.96 107.79
  C 113.80 86.96 100.76 64.31 77.45 64.99
  C 54.14 65.66 42.44 89.04 47.50 109.61
  C 51.21 124.75 62.83 138.26 79.57 137.77
  Z
  M 145.83 129.99
  L 137.15 130.00
  A 0.63 0.63 0.0 0 0 136.52 130.63
  L 136.52 136.74
  A 0.48 0.47 90.0 0 0 136.99 137.22
  L 476.18 137.22
  A 0.56 0.56 0.0 0 1 476.72 137.93
  L 472.99 150.86
  A 0.43 0.43 0.0 0 0 473.60 151.36
  L 507.75 133.59
  A 0.43 0.43 0.0 0 0 507.74 132.82
  L 472.79 115.07
  A 0.56 0.56 0.0 0 0 472.03 115.82
  Q 475.19 122.32 476.65 129.27
  A 0.64 0.63 84.4 0 1 476.03 130.03
  L 466.04 130.06
  Q 466.26 128.39 466.09 124.00
  Q 465.53 110.14 466.60 89.00
  C 466.89 83.26 466.91 78.39 462.22 74.56
  C 459.38 72.24 455.87 72.54 451.50 72.54
  Q 387.25 72.49 377.25 72.49
  Q 276.47 72.45 189.00 72.47
  Q 173.75 72.47 158.49 72.53
  C 144.03 72.58 146.68 87.45 147.33 97.75
  Q 148.29 113.06 145.83 129.99
  Z
  M 1052.9145 76.8235
  A 0.74 0.74 0.0 0 0 1052.1758 76.0822
  L 1049.6758 76.0778
  A 0.74 0.74 0.0 0 0 1048.9345 76.8165
  L 1048.8855 104.8765
  A 0.74 0.74 0.0 0 0 1049.6242 105.6178
  L 1052.1242 105.6222
  A 0.74 0.74 0.0 0 0 1052.8655 104.8835
  L 1052.9145 76.8235
  Z
  M 983.20 77.46
  L 983.16 105.38
  A 0.28 0.28 0.0 0 0 983.44 105.66
  L 990.86 105.68
  A 12.26 12.06 0.1 0 0 1003.14 93.64
  L 1003.14 89.28
  A 12.26 12.06 0.1 0 0 990.90 77.20
  L 983.48 77.18
  A 0.28 0.28 0.0 0 0 983.20 77.46
  Z
  M 1023.76 96.46
  A 0.66 0.66 0.0 0 0 1024.40 95.66
  C 1023.89 93.47 1023.74 89.83 1022.81 88.28
  C 1020.07 83.76 1014.05 83.33 1009.97 86.36
  C 1005.48 89.69 1005.11 99.46 1009.21 103.19
  Q 1014.19 107.72 1021.09 104.69
  Q 1022.95 103.88 1023.61 102.54
  A 1.41 1.41 0.0 0 0 1021.72 100.65
  L 1018.75 102.11
  A 0.67 0.65 -64.3 0 1 1018.56 102.18
  Q 1012.33 103.67 1010.72 97.36
  A 0.72 0.72 0.0 0 1 1011.42 96.46
  L 1023.76 96.46
  Z
  M 1031.41 86.40
  Q 1031.34 85.37 1030.23 84.81
  A 2.02 1.71 14.7 0 0 1027.33 86.20
  Q 1027.78 101.77 1027.42 112.91
  A 0.81 0.81 0.0 0 0 1028.23 113.75
  L 1030.77 113.75
  A 0.71 0.70 -0.0 0 0 1031.48 113.05
  L 1031.48 105.08
  A 0.36 0.35 -76.7 0 1 1031.99 104.76
  Q 1036.54 107.11 1040.35 104.97
  C 1045.25 102.22 1045.81 94.74 1043.98 89.84
  Q 1041.44 83.02 1034.38 84.81
  Q 1034.04 84.90 1031.97 86.63
  A 0.34 0.34 0.0 0 1 1031.41 86.40
  Z
  M 1066.1671 84.2801
  A 10.91 9.45 -89.7 0 0 1056.6601 95.1405
  A 10.91 9.45 -89.7 0 0 1066.0529 106.0999
  A 10.91 9.45 -89.7 0 0 1075.5599 95.2395
  A 10.91 9.45 -89.7 0 0 1066.1671 84.2801
  Z
  M 1085.83 98.77
  L 1081.00 85.70
  A 1.49 1.48 -10.2 0 0 1079.61 84.74
  L 1077.83 84.74
  A 0.72 0.71 -9.3 0 0 1077.15 85.68
  L 1083.59 104.33
  A 1.17 1.05 -56.1 0 1 1083.65 104.75
  Q 1083.50 109.66 1079.11 110.36
  A 1.69 1.69 0.0 0 0 1079.03 113.68
  Q 1083.56 114.63 1085.63 109.86
  Q 1086.26 108.40 1094.24 85.53
  A 0.66 0.66 0.0 0 0 1093.62 84.65
  L 1091.57 84.65
  A 1.69 1.68 8.0 0 0 1089.95 85.87
  L 1086.24 98.75
  A 0.22 0.22 0.0 0 1 1085.83 98.77
  Z
  M 1247.16 112.54
  A 0.87 0.87 0.0 0 1 1248.52 112.57
  Q 1255.94 122.26 1264.12 130.57
  A 0.91 0.91 0.0 0 0 1265.15 130.75
  Q 1267.68 129.57 1269.05 127.54
  A 3.70 3.69 62.2 0 0 1269.69 125.46
  L 1269.69 100.90
  A 1.95 1.95 0.0 0 0 1269.54 100.15
  Q 1268.61 97.98 1266.65 96.36
  Q 1265.32 95.27 1261.60 95.29
  C 1216.05 95.62 1178.77 95.30 1139.26 95.44
  C 1134.52 95.46 1132.38 98.96 1132.37 103.62
  Q 1132.34 117.32 1132.28 124.78
  A 3.26 3.20 35.6 0 0 1132.47 125.87
  Q 1133.64 129.03 1136.84 130.46
  A 2.21 2.11 -31.6 0 0 1137.73 130.65
  L 1231.28 130.65
  A 1.87 1.86 -70.0 0 0 1232.71 129.98
  L 1247.16 112.54
  Z
  M 1239.85 192.51
  L 1256.08 192.51
  A 0.43 0.42 -90.0 0 0 1256.50 192.08
  L 1256.50 155.59
  A 0.36 0.36 0.0 0 1 1256.86 155.23
  L 1275.71 155.23
  A 0.33 0.33 0.0 0 0 1275.96 154.69
  L 1248.67 122.76
  A 0.63 0.62 -45.3 0 0 1247.71 122.77
  L 1221.96 153.83
  A 0.87 0.87 0.0 0 0 1222.63 155.25
  L 1239.04 155.25
  A 0.50 0.50 0.0 0 1 1239.54 155.75
  L 1239.54 192.20
  A 0.31 0.31 0.0 0 0 1239.85 192.51
  Z
  M 1225.50 139.25
  A 0.49 0.49 0.0 0 0 1225.13 138.43
  Q 1171.41 138.74 1141.75 138.59
  Q 1139.54 138.58 1138.58 138.61
  C 1135.19 138.71 1132.55 141.33 1132.48 144.53
  Q 1132.39 148.74 1132.29 164.64
  Q 1132.27 169.08 1133.81 171.08
  Q 1135.95 173.86 1140.25 173.85
  Q 1201.75 173.70 1233.00 173.57
  A 0.61 0.60 -0.5 0 0 1233.60 172.97
  L 1233.60 162.73
  A 0.54 0.54 0.0 0 0 1233.06 162.19
  L 1208.11 162.19
  A 0.44 0.44 0.0 0 1 1207.75 161.50
  Q 1216.19 149.64 1225.50 139.25
  Z
  M 78.68 147.56
  Q 73.87 147.56 71.96 147.09
  Q 64.10 145.18 57.26 140.89
  A 1.42 1.42 0.0 0 0 56.28 140.68
  Q 49.46 141.76 44.53 144.38
  C 29.21 152.52 21.78 165.64 19.12 182.56
  Q 18.26 187.99 18.48 192.05
  A 2.47 2.45 -78.7 0 0 19.86 194.13
  Q 24.84 196.53 30.72 197.63
  Q 53.32 201.85 78.62 201.88
  Q 103.92 201.91 126.53 197.73
  Q 132.42 196.65 137.40 194.26
  A 2.47 2.45 78.9 0 0 138.79 192.18
  Q 139.02 188.12 138.17 182.69
  C 135.54 165.76 128.14 152.63 112.84 144.45
  Q 107.92 141.82 101.10 140.73
  A 1.42 1.42 0.0 0 0 100.12 140.94
  Q 93.27 145.21 85.41 147.11
  Q 83.49 147.57 78.68 147.56
  Z
  M 661.1155 150.3735
  A 34.00 33.35 -81.5 0 0 623.1063 179.0706
  A 34.00 33.35 -81.5 0 0 651.0645 217.6265
  A 34.00 33.35 -81.5 0 0 689.0737 188.9294
  A 34.00 33.35 -81.5 0 0 661.1155 150.3735
  Z
  M 603.7192 226.8436
  A 1.34 1.34 0.0 0 0 602.2382 225.6613
  L 600.8072 225.8218
  A 1.34 1.34 0.0 0 0 599.6249 227.3029
  L 599.7408 228.3364
  A 1.34 1.34 0.0 0 0 601.2218 229.5187
  L 602.6528 229.3582
  A 1.34 1.34 0.0 0 0 603.8351 227.8771
  L 603.7192 226.8436
  Z
  M 590.78 244.07
  L 590.78 248.09
  A 2.34 2.34 0.0 0 1 589.15 250.32
  C 581.89 252.64 577.87 248.44 577.60 241.75
  C 577.34 235.27 578.19 227.26 587.25 229.41
  Q 589.60 229.96 590.66 233.18
  A 2.14 2.13 -9.0 0 0 592.69 234.65
  L 593.19 234.65
  A 1.56 1.56 0.0 0 0 594.67 232.58
  Q 592.73 226.95 587.93 226.31
  C 576.46 224.79 573.83 231.07 573.57 241.01
  C 573.42 246.76 576.55 252.23 582.15 253.79
  C 586.20 254.93 591.19 254.09 594.31 251.01
  A 1.43 1.39 68.5 0 0 594.73 250.00
  L 594.73 240.56
  A 0.64 0.64 0.0 0 0 594.09 239.92
  L 585.61 239.92
  A 1.35 1.35 0.0 0 0 584.26 241.27
  L 584.26 242.12
  A 1.05 1.05 0.0 0 0 585.31 243.17
  L 589.88 243.17
  A 0.90 0.90 0.0 0 1 590.78 244.07
  Z
  M 606.75 233.42
  L 606.75 235.41
  A 0.74 0.73 -0.0 0 0 607.49 236.14
  L 609.40 236.14
  A 0.63 0.62 86.9 0 1 610.02 236.70
  Q 610.15 238.00 610.08 248.28
  Q 610.04 254.61 615.98 254.44
  A 2.20 2.20 0.0 0 0 618.00 252.96
  L 618.15 252.51
  A 1.03 1.03 0.0 0 0 617.18 251.14
  L 615.25 251.14
  A 1.29 1.29 0.0 0 1 613.96 249.85
  L 613.96 236.67
  A 0.74 0.74 0.0 0 1 614.70 235.93
  L 617.07 235.93
  A 0.99 0.99 0.0 0 0 618.06 234.94
  L 618.06 234.24
  A 1.00 0.99 -82.4 0 0 617.33 233.28
  Q 616.48 233.06 614.71 233.17
  A 0.75 0.74 -1.5 0 1 613.92 232.43
  L 613.92 228.55
  A 0.67 0.67 0.0 0 0 613.25 227.88
  L 610.61 227.88
  A 0.73 0.72 0.0 0 0 609.88 228.60
  L 609.88 232.17
  A 0.72 0.72 0.0 0 1 609.16 232.89
  L 607.29 232.89
  A 0.54 0.53 -0.0 0 0 606.75 233.42
  Z
  M 603.51 232.79
  L 600.39 232.77
  A 0.46 0.46 0.0 0 0 599.92 233.23
  L 599.83 252.00
  A 2.09 1.66 -89.7 0 0 601.47 254.10
  L 602.19 254.10
  A 2.09 1.66 -89.7 0 0 603.87 252.02
  L 603.96 233.25
  A 0.46 0.46 0.0 0 0 603.51 232.79
  Z"
/>
<path fill="#6d84ac" d="
  M 683.10 17.46
  L 683.10 40.42
  A 1.20 1.20 0.0 0 0 684.30 41.62
  L 705.28 41.62
  A 1.71 1.71 0.0 0 1 706.99 43.32
  Q 707.03 50.59 706.77 73.41
  C 706.70 79.57 707.45 85.18 706.91 90.72
  C 706.52 94.68 703.32 95.21 699.66 95.21
  Q 680.18 95.18 657.24 95.45
  C 652.84 95.50 646.96 95.88 647.09 89.52
  Q 647.80 55.23 647.75 22.03
  Q 647.75 16.74 653.80 16.72
  Q 675.09 16.65 682.25 16.61
  A 0.85 0.85 0.0 0 1 683.10 17.46
  Z
  M 662.10 69.95
  C 667.27 70.12 674.57 71.03 675.62 64.07
  Q 676.78 56.47 669.96 55.71
  Q 664.55 55.10 659.38 55.46
  A 0.50 0.50 0.0 0 0 658.91 55.96
  L 658.91 78.54
  A 1.19 1.18 -87.3 0 0 659.98 79.72
  L 660.36 79.76
  A 1.23 1.23 0.0 0 0 661.71 78.54
  L 661.71 70.33
  A 0.38 0.37 -88.6 0 1 662.10 69.95
  Z
  M 692.38 68.79
  Q 697.86 64.50 694.91 59.13
  C 692.17 54.16 685.14 55.13 680.36 55.57
  A 0.64 0.64 0.0 0 0 679.77 56.21
  L 679.77 78.28
  A 1.46 1.46 0.0 0 0 680.94 79.71
  L 681.40 79.81
  A 1.28 1.28 0.0 0 0 682.93 78.56
  L 682.93 70.45
  A 0.64 0.63 0.0 0 1 683.57 69.82
  L 687.46 69.82
  A 2.18 2.18 0.0 0 1 689.42 71.04
  L 693.03 78.38
  A 2.61 2.61 0.0 0 0 695.37 79.83
  L 695.67 79.83
  A 1.01 1.01 0.0 0 0 696.57 78.36
  L 692.14 69.86
  A 0.87 0.86 -32.6 0 1 692.38 68.79
  Z"
/>
<path fill="#6d84ac" d="
  M 704.86 38.33
  L 687.08 38.18
  A 0.45 0.45 0.0 0 1 686.64 37.74
  L 686.29 19.96
  A 0.45 0.45 0.0 0 1 687.06 19.63
  L 705.18 37.56
  A 0.45 0.45 0.0 0 1 704.86 38.33
  Z"
/>
<path fill="#020203" d="
  M 601.07 101.01
  A 0.52 0.52 0.0 0 1 601.96 100.64
  L 620.54 119.22
  A 0.71 0.70 31.1 0 1 620.72 119.92
  C 619.03 125.64 620.36 130.52 625.02 134.23
  C 635.91 142.91 650.25 130.38 643.64 118.51
  Q 638.66 109.55 627.84 112.25
  A 1.09 1.07 -29.2 0 1 626.81 111.97
  L 607.87 93.03
  A 1.24 1.23 -63.5 0 1 607.53 92.00
  L 608.17 87.45
  A 0.76 0.70 -42.6 0 0 608.18 87.33
  Q 606.86 74.98 595.03 75.13
  C 593.55 75.14 592.12 75.74 590.64 75.89
  A 1.64 1.59 61.3 0 1 589.41 75.51
  Q 580.67 68.04 572.57 58.93
  Q 571.69 57.93 571.46 57.48
  A 1.40 1.39 -36.5 0 1 571.70 55.90
  Q 577.73 49.60 584.93 42.68
  C 586.80 40.89 588.76 39.11 591.12 38.31
  Q 599.06 35.61 605.31 41.67
  C 614.14 50.23 621.94 58.32 631.05 67.00
  Q 638.10 73.73 642.84 78.75
  A 3.60 3.59 -67.2 0 1 643.83 81.18
  L 644.02 91.77
  A 2.68 2.57 34.3 0 0 644.22 92.72
  C 646.05 97.07 649.30 99.11 654.40 99.14
  Q 659.19 99.16 661.95 99.17
  A 2.69 2.68 66.9 0 1 663.81 99.92
  Q 672.22 108.08 677.93 114.61
  C 679.93 116.90 681.58 118.88 681.68 121.97
  C 681.80 125.86 681.92 128.89 679.16 131.85
  Q 674.47 136.87 664.46 146.42
  A 1.47 1.47 0.0 0 1 663.30 146.81
  Q 659.29 146.36 654.97 146.36
  C 648.50 146.37 641.49 148.81 636.23 152.44
  Q 616.67 165.93 619.60 190.72
  A 2.11 2.11 0.0 0 1 619.03 192.43
  Q 611.48 200.41 608.07 203.82
  C 602.45 209.44 597.33 213.46 589.36 208.99
  Q 586.22 207.23 581.14 201.95
  Q 563.16 183.23 530.15 150.27
  C 526.03 146.16 519.46 139.23 513.82 133.95
  C 510.88 131.19 508.94 127.86 509.19 123.64
  Q 509.55 117.85 513.93 113.41
  Q 527.94 99.20 563.59 63.78
  A 0.57 0.57 0.0 0 1 564.38 63.75
  Q 571.63 69.99 576.30 75.25
  Q 578.22 77.42 579.65 78.65
  Q 581.49 80.24 582.86 82.01
  A 2.10 2.10 0.0 0 1 583.29 83.57
  Q 583.19 84.33 582.77 86.74
  C 581.72 92.86 585.68 97.73 590.95 100.08
  A 1.35 1.35 0.0 0 1 591.75 101.33
  Q 591.55 129.33 591.41 138.25
  Q 591.34 143.02 591.80 147.57
  A 1.29 1.27 -17.3 0 1 591.13 148.83
  C 585.50 151.93 581.80 156.37 582.98 163.00
  C 583.95 168.39 588.22 171.87 593.40 173.06
  Q 600.87 174.78 605.43 168.95
  C 609.96 163.16 609.65 156.06 603.71 151.28
  Q 602.01 149.90 601.60 149.51
  A 1.12 1.11 21.7 0 1 601.25 148.70
  L 601.07 101.01
  Z"
/>
<path fill="#191a15" d="
  M 738.76 126.79
  L 683.98 126.79
  A 0.64 0.64 0.0 0 1 683.34 126.15
  L 683.34 122.64
  A 0.68 0.68 0.0 0 1 684.02 121.96
  L 739.12 121.96
  A 0.56 0.56 0.0 0 0 739.64 121.21
  Q 737.08 114.40 735.84 111.19
  Q 735.63 110.65 735.74 110.27
  A 0.55 0.55 0.0 0 1 736.53 109.93
  L 761.43 123.25
  A 0.51 0.51 0.0 0 0 762.18 122.80
  Q 762.06 98.53 762.10 74.37
  Q 762.11 66.81 763.46 63.27
  Q 767.38 52.98 777.90 48.13
  Q 781.67 46.39 785.23 46.37
  Q 808.01 46.29 934.09 46.27
  Q 945.44 46.27 948.76 47.45
  Q 955.84 49.98 960.55 56.24
  C 965.07 62.24 966.27 67.99 966.26 76.09
  Q 966.25 92.40 966.30 121.41
  A 0.55 0.55 0.0 0 0 966.85 121.96
  L 1105.51 121.96
  A 0.74 0.74 0.0 0 0 1106.20 120.97
  L 1102.30 110.44
  A 0.34 0.34 0.0 0 1 1102.67 109.98
  Q 1103.58 110.09 1103.93 110.30
  Q 1115.69 117.18 1127.67 122.79
  Q 1128.49 123.18 1129.07 124.08
  A 1.15 1.15 0.0 0 1 1128.62 125.72
  Q 1108.00 136.17 1103.54 138.29
  Q 1103.13 138.49 1102.79 138.46
  A 0.50 0.50 0.0 0 1 1102.35 137.79
  L 1106.11 127.87
  A 0.74 0.73 10.2 0 0 1105.42 126.88
  L 966.74 126.88
  A 0.49 0.48 -90.0 0 0 966.26 127.37
  Q 966.46 158.95 966.40 178.81
  Q 966.40 180.81 964.80 185.06
  C 960.73 195.85 951.50 202.11 940.00 202.13
  Q 888.47 202.20 798.57 202.22
  Q 784.15 202.22 781.04 201.37
  C 770.77 198.55 762.29 189.07 762.10 177.93
  Q 761.69 154.76 762.16 126.09
  A 0.56 0.56 0.0 0 0 761.35 125.58
  L 735.57 138.28
  A 0.29 0.28 -7.4 0 1 735.16 137.97
  C 736.04 133.85 737.66 131.21 739.36 127.74
  A 0.66 0.66 0.0 0 0 738.76 126.79
  Z
  M 961.33 71.97
  A 20.64 20.64 0.0 0 0 940.69 51.33
  L 787.41 51.33
  A 20.64 20.64 0.0 0 0 766.77 71.97
  L 766.77 176.83
  A 20.64 20.64 0.0 0 0 787.41 197.47
  L 940.69 197.47
  A 20.64 20.64 0.0 0 0 961.33 176.83
  L 961.33 71.97
  Z"
/>
<path fill="#f4f3f4" d="
  M 961.33 176.83
  A 20.64 20.64 0.0 0 1 940.69 197.47
  L 787.41 197.47
  A 20.64 20.64 0.0 0 1 766.77 176.83
  L 766.77 71.97
  A 20.64 20.64 0.0 0 1 787.41 51.33
  L 940.69 51.33
  A 20.64 20.64 0.0 0 1 961.33 71.97
  L 961.33 176.83
  Z
  M 827.70 117.77
  Q 826.01 109.97 819.15 109.32
  C 809.40 108.42 806.34 116.89 806.78 125.01
  C 807.16 132.06 810.69 138.41 818.43 137.82
  C 823.44 137.43 826.65 134.27 827.33 129.46
  A 0.85 0.85 0.0 0 0 826.49 128.49
  L 824.76 128.49
  A 0.96 0.96 0.0 0 0 823.83 129.20
  Q 822.43 134.36 818.04 134.41
  C 810.47 134.50 810.03 124.19 810.94 119.21
  C 812.20 112.31 821.47 109.09 823.50 117.69
  A 1.29 1.29 0.0 0 0 824.76 118.69
  L 826.96 118.69
  A 0.77 0.76 84.1 0 0 827.70 117.77
  Z
  M 863.2275 110.6031
  A 0.93 0.93 0.0 0 0 862.6717 109.4111
  L 861.4313 108.9596
  A 0.93 0.93 0.0 0 0 860.2393 109.5154
  L 849.4725 139.0969
  A 0.93 0.93 0.0 0 0 850.0283 140.2889
  L 851.2687 140.7404
  A 0.93 0.93 0.0 0 0 852.4607 140.1846
  L 863.2275 110.6031
  Z
  M 875.36 123.53
  C 875.35 129.67 877.38 136.71 884.53 137.72
  C 890.89 138.61 895.56 135.57 896.52 129.25
  A 0.63 0.63 0.0 0 0 895.90 128.53
  L 893.22 128.53
  A 0.74 0.74 0.0 0 0 892.50 129.11
  Q 891.30 134.25 886.79 134.44
  C 880.50 134.71 879.37 128.27 879.37 123.53
  C 879.38 118.80 880.53 112.36 886.83 112.64
  Q 891.33 112.85 892.52 117.99
  A 0.74 0.74 0.0 0 0 893.24 118.58
  L 895.92 118.59
  A 0.63 0.63 0.0 0 0 896.54 117.87
  C 895.60 111.54 890.94 108.49 884.58 109.37
  C 877.42 110.35 875.37 117.38 875.36 123.53
  Z
  M 836.0963 110.3770
  A 0.73 0.73 0.0 0 0 835.3689 109.6445
  L 832.8489 109.6357
  A 0.73 0.73 0.0 0 0 832.1164 110.3631
  L 832.0237 136.9230
  A 0.73 0.73 0.0 0 0 832.7511 137.6555
  L 835.2711 137.6643
  A 0.73 0.73 0.0 0 0 836.0036 136.9369
  L 836.0963 110.3770
  Z
  M 900.85 109.88
  L 900.81 137.30
  A 0.39 0.39 0.0 0 0 901.20 137.69
  L 908.41 137.71
  A 12.26 12.22 0.1 0 0 920.69 125.51
  L 920.69 121.75
  A 12.26 12.22 0.1 0 0 908.45 109.51
  L 901.24 109.49
  A 0.39 0.39 0.0 0 0 900.85 109.88
  Z"
/>
<path fill="none" d="
  M 662.10 69.95
  A 0.38 0.37 -88.6 0 0 661.71 70.33
  L 661.71 78.54
  A 1.23 1.23 0.0 0 1 660.36 79.76
  L 659.98 79.72
  A 1.19 1.18 -87.3 0 1 658.91 78.54
  L 658.91 55.96
  A 0.50 0.50 0.0 0 1 659.38 55.46
  Q 664.55 55.10 669.96 55.71
  Q 676.78 56.47 675.62 64.07
  C 674.57 71.03 667.27 70.12 662.10 69.95
  Z
  M 661.95 58.80
  L 661.76 66.60
  A 0.80 0.80 0.0 0 0 662.54 67.42
  L 666.94 67.52
  A 5.62 4.27 1.4 0 0 672.66 63.39
  L 672.68 62.53
  A 5.62 4.27 1.4 0 0 667.16 58.13
  L 662.77 58.02
  A 0.80 0.80 0.0 0 0 661.95 58.80
  Z"
/>
<path fill="none" d="
  M 692.14 69.86
  L 696.57 78.36
  A 1.01 1.01 0.0 0 1 695.67 79.83
  L 695.37 79.83
  A 2.61 2.61 0.0 0 1 693.03 78.38
  L 689.42 71.04
  A 2.18 2.18 0.0 0 0 687.46 69.82
  L 683.57 69.82
  A 0.64 0.63 -0.0 0 0 682.93 70.45
  L 682.93 78.56
  A 1.28 1.28 0.0 0 1 681.40 79.81
  L 680.94 79.71
  A 1.46 1.46 0.0 0 1 679.77 78.28
  L 679.77 56.21
  A 0.64 0.64 0.0 0 1 680.36 55.57
  C 685.14 55.13 692.17 54.16 694.91 59.13
  Q 697.86 64.50 692.38 68.79
  A 0.87 0.86 -32.6 0 0 692.14 69.86
  Z
  M 683.12 58.79
  L 683.06 66.45
  A 0.58 0.58 0.0 0 0 683.63 67.03
  L 688.21 67.07
  A 4.42 4.21 0.5 0 0 692.67 62.90
  L 692.67 62.50
  A 4.42 4.21 0.5 0 0 688.29 58.25
  L 683.71 58.21
  A 0.58 0.58 0.0 0 0 683.12 58.79
  Z"
/>
<path fill="#020203" d="
  M 1200.84 55.70
  Q 1235.55 55.74 1237.42 55.88
  A 3.25 3.03 54.6 0 1 1238.11 56.02
  Q 1241.78 57.24 1244.70 61.24
  Q 1256.31 77.15 1264.50 87.42
  A 0.53 0.53 0.0 0 1 1264.08 88.28
  Q 1223.62 88.11 1200.80 88.08
  Q 1177.97 88.05 1137.52 88.12
  A 0.53 0.53 0.0 0 1 1137.10 87.26
  Q 1145.31 77.01 1156.97 61.13
  Q 1159.90 57.13 1163.57 55.92
  A 3.25 3.03 -54.4 0 1 1164.26 55.78
  Q 1166.13 55.65 1200.84 55.70
  Z"
/>
<path fill="#6d84ac" d="
  M 661.95 58.80
  A 0.80 0.80 0.0 0 1 662.77 58.02
  L 667.16 58.13
  A 5.62 4.27 1.4 0 1 672.68 62.53
  L 672.66 63.39
  A 5.62 4.27 1.4 0 1 666.94 67.52
  L 662.54 67.42
  A 0.80 0.80 0.0 0 1 661.76 66.60
  L 661.95 58.80
  Z"
/>
<path fill="#6d84ac" d="
  M 683.12 58.79
  A 0.58 0.58 0.0 0 1 683.71 58.21
  L 688.29 58.25
  A 4.42 4.21 0.5 0 1 692.67 62.50
  L 692.67 62.90
  A 4.42 4.21 0.5 0 1 688.21 67.07
  L 683.63 67.03
  A 0.58 0.58 0.0 0 1 683.06 66.45
  L 683.12 58.79
  Z"
/>
<path fill="#020203" d="
  M 77.45 64.99
  C 100.76 64.31 113.80 86.96 109.96 107.79
  C 107.12 123.12 96.31 137.29 79.57 137.77
  C 62.83 138.26 51.21 124.75 47.50 109.61
  C 42.44 89.04 54.14 65.66 77.45 64.99
  Z"
/>
<path fill="#fee4ca" d="
  M 466.04 130.06
  L 145.83 129.99
  Q 148.29 113.06 147.33 97.75
  C 146.68 87.45 144.03 72.58 158.49 72.53
  Q 173.75 72.47 189.00 72.47
  Q 276.47 72.45 377.25 72.49
  Q 387.25 72.49 451.50 72.54
  C 455.87 72.54 459.38 72.24 462.22 74.56
  C 466.91 78.39 466.89 83.26 466.60 89.00
  Q 465.53 110.14 466.09 124.00
  Q 466.26 128.39 466.04 130.06
  Z
  M 179.11 113.12
  L 173.79 102.90
  A 0.79 0.77 -29.2 0 1 174.09 101.87
  Q 178.07 99.56 178.25 94.41
  C 178.47 88.35 173.70 86.29 168.30 86.16
  Q 164.74 86.07 160.16 85.85
  A 0.65 0.65 0.0 0 0 159.48 86.50
  L 159.48 113.25
  A 0.48 0.48 0.0 0 0 159.96 113.73
  L 163.25 113.73
  A 0.54 0.53 90.0 0 0 163.78 113.19
  L 163.78 103.77
  A 0.77 0.76 0.0 0 1 164.55 103.01
  L 168.89 103.01
  A 1.24 1.22 76.7 0 1 169.99 103.70
  L 174.45 112.75
  A 2.15 2.15 0.0 0 0 176.38 113.95
  L 178.60 113.95
  A 0.57 0.57 0.0 0 0 179.11 113.12
  Z
  M 224.6382 86.2836
  A 2.29 2.07 -47.8 0 0 221.5665 86.5895
  A 2.29 2.07 -47.8 0 0 221.5618 89.6764
  A 2.29 2.07 -47.8 0 0 224.6335 89.3705
  A 2.29 2.07 -47.8 0 0 224.6382 86.2836
  Z
  M 301.96 105.87
  L 296.62 99.63
  A 0.52 0.51 -33.9 0 1 296.78 98.84
  Q 299.65 97.35 301.06 95.34
  C 306.54 87.59 294.23 82.14 289.88 88.29
  C 287.80 91.24 289.14 95.40 291.13 98.36
  A 0.68 0.67 -35.1 0 1 290.96 99.29
  Q 287.07 102.10 286.71 106.17
  C 285.98 114.38 296.70 116.50 301.60 112.44
  A 0.66 0.66 0.0 0 1 302.52 112.52
  Q 304.36 114.67 307.67 113.82
  A 0.71 0.71 0.0 0 0 307.99 112.63
  L 305.06 109.70
  A 0.92 0.91 36.0 0 1 304.89 108.64
  Q 306.90 104.75 306.77 101.59
  A 1.46 1.46 0.0 0 0 303.90 101.24
  L 302.60 105.73
  A 0.37 0.37 0.0 0 1 301.96 105.87
  Z
  M 330.64 106.91
  Q 332.31 106.91 335.16 107.04
  A 1.52 1.51 -8.9 0 1 336.51 108.02
  L 338.43 113.22
  A 1.20 1.19 79.8 0 0 339.55 114.00
  L 341.59 114.00
  A 0.78 0.77 79.7 0 0 342.31 112.95
  L 332.76 87.14
  A 1.34 1.34 0.0 0 0 332.12 86.41
  Q 331.48 86.09 330.66 86.09
  Q 329.83 86.09 329.20 86.41
  A 1.34 1.34 0.0 0 0 328.55 87.14
  L 318.95 112.93
  A 0.78 0.77 -79.6 0 0 319.67 113.98
  L 321.71 113.98
  A 1.20 1.19 -79.7 0 0 322.83 113.21
  L 324.76 108.01
  A 1.52 1.51 9.0 0 1 326.11 107.03
  Q 328.96 106.91 330.64 106.91
  Z
  M 186.17 104.92
  L 198.11 104.92
  A 0.64 0.64 0.0 0 0 198.75 104.28
  C 198.81 98.39 196.42 91.40 188.89 93.13
  C 180.63 95.02 178.99 106.72 184.64 112.12
  C 187.84 115.18 193.36 114.86 196.78 112.32
  Q 198.11 111.34 198.27 110.01
  A 1.27 1.26 -16.3 0 0 196.21 108.90
  C 192.09 112.23 185.90 112.03 185.49 105.65
  A 0.68 0.68 0.0 0 1 186.17 104.92
  Z
  M 233.81 104.81
  L 245.79 104.99
  A 0.64 0.64 0.0 0 0 246.44 104.36
  C 246.59 98.45 244.30 91.40 236.72 93.02
  C 228.41 94.79 226.58 106.50 232.17 112.01
  C 235.33 115.12 240.87 114.89 244.34 112.39
  Q 245.69 111.43 245.87 110.10
  A 1.28 1.26 -15.5 0 0 243.82 108.95
  C 239.64 112.23 233.43 111.93 233.12 105.53
  A 0.69 0.68 88.9 0 1 233.81 104.81
  Z
  M 371.19 113.09
  L 374.87 114.51
  A 3.07 3.06 -40.1 0 0 376.60 114.66
  C 383.30 113.26 384.43 106.64 383.51 100.86
  Q 382.64 95.23 379.10 93.61
  Q 375.03 91.75 370.64 94.79
  A 0.54 0.54 0.0 0 1 369.80 94.46
  Q 369.39 92.47 366.81 93.01
  A 0.70 0.69 84.1 0 0 366.27 93.68
  L 366.05 121.68
  A 0.63 0.63 0.0 0 0 366.67 122.31
  L 369.30 122.33
  A 0.91 0.91 0.0 0 0 370.22 121.43
  L 370.28 113.70
  A 0.67 0.66 10.9 0 1 371.19 113.09
  Z
  M 396.45 92.85
  L 392.73 93.91
  A 0.79 0.79 0.0 0 1 392.20 93.88
  Q 390.56 93.24 388.37 93.34
  A 0.50 0.50 0.0 0 0 387.89 93.84
  L 387.89 112.70
  A 1.04 1.04 0.0 0 0 388.93 113.74
  L 390.58 113.74
  A 1.13 1.13 0.0 0 0 391.71 112.61
  L 391.71 99.62
  A 2.53 2.52 0.0 0 1 394.24 97.10
  L 396.35 97.10
  A 1.42 1.42 0.0 0 0 397.77 95.68
  L 397.77 93.84
  A 1.03 1.03 0.0 0 0 396.45 92.85
  Z
  M 224.9333 93.9567
  A 0.78 0.78 0.0 0 0 224.1561 93.1740
  L 221.9161 93.1662
  A 0.78 0.78 0.0 0 0 221.1333 93.9434
  L 221.0667 113.0433
  A 0.78 0.78 0.0 0 0 221.8439 113.8260
  L 224.0839 113.8338
  A 0.78 0.78 0.0 0 0 224.8667 113.0566
  L 224.9333 93.9567
  Z
  M 267.39 107.48
  L 263.55 94.03
  A 0.95 0.95 0.0 0 0 262.64 93.35
  L 260.64 93.35
  A 0.76 0.76 0.0 0 0 259.91 93.90
  L 256.24 106.63
  A 0.32 0.32 0.0 0 1 255.62 106.63
  L 251.97 93.86
  A 1.06 1.06 0.0 0 0 250.95 93.09
  L 249.23 93.09
  A 0.79 0.78 -7.6 0 0 248.47 94.08
  Q 253.09 111.25 253.48 112.49
  Q 253.79 113.46 254.81 113.86
  A 1.86 1.86 0.0 0 0 257.22 112.80
  Q 259.48 107.04 261.18 100.63
  A 0.45 0.45 0.0 0 1 262.04 100.61
  L 265.93 112.82
  A 1.02 0.95 10.0 0 0 266.33 113.35
  Q 267.63 114.22 269.02 113.83
  A 0.85 0.85 0.0 0 0 269.61 113.24
  L 274.89 94.91
  A 1.41 1.41 0.0 0 0 273.60 93.11
  L 273.25 93.08
  A 1.56 1.55 10.8 0 0 271.61 94.19
  L 267.78 107.48
  A 0.20 0.20 0.0 0 1 267.39 107.48
  Z
  M 350.13 113.04
  L 353.78 114.42
  A 3.04 3.03 -40.6 0 0 355.50 114.55
  C 362.13 113.11 363.19 106.55 362.24 100.83
  Q 361.33 95.26 357.81 93.68
  Q 353.77 91.87 349.44 94.91
  A 0.54 0.53 65.8 0 1 348.61 94.59
  Q 348.18 92.63 345.63 93.18
  A 0.69 0.68 83.7 0 0 345.10 93.85
  L 345.10 121.59
  A 0.62 0.62 0.0 0 0 345.72 122.21
  L 348.33 122.21
  A 0.90 0.90 0.0 0 0 349.23 121.31
  L 349.23 113.65
  A 0.67 0.66 10.5 0 1 350.13 113.04
  Z
  M 443.37 104.97
  L 455.31 104.88
  A 0.64 0.64 0.0 0 0 455.94 104.24
  C 455.96 98.35 453.52 91.38 446.01 93.16
  C 437.76 95.11 436.20 106.82 441.89 112.18
  C 445.11 115.21 450.63 114.86 454.03 112.29
  Q 455.35 111.30 455.50 109.97
  A 1.27 1.26 -16.7 0 0 453.44 108.88
  C 449.34 112.23 443.15 112.08 442.70 105.70
  A 0.68 0.68 0.0 0 1 443.37 104.97
  Z
  M 209.11 113.96
  Q 210.65 113.96 211.17 112.48
  Q 213.64 105.47 217.53 94.25
  A 0.79 0.79 0.0 0 0 216.78 93.20
  L 214.87 93.20
  A 1.29 1.28 8.6 0 0 213.64 94.10
  Q 211.65 100.51 209.46 107.16
  Q 209.35 107.50 209.09 107.50
  Q 208.82 107.50 208.71 107.16
  Q 206.50 100.52 204.49 94.12
  A 1.29 1.28 -8.8 0 0 203.26 93.22
  L 201.35 93.23
  A 0.79 0.79 0.0 0 0 200.60 94.28
  Q 204.53 105.49 207.02 112.48
  Q 207.55 113.96 209.11 113.96
  Z
  M 408.5124 92.8801
  A 10.76 9.37 -90.2 0 0 399.1801 103.6727
  A 10.76 9.37 -90.2 0 0 408.5876 114.3999
  A 10.76 9.37 -90.2 0 0 417.9199 103.6073
  A 10.76 9.37 -90.2 0 0 408.5124 92.8801
  Z
  M 427.99 113.95
  Q 429.52 113.94 430.04 112.48
  Q 432.48 105.55 436.33 94.44
  A 0.78 0.78 0.0 0 0 435.59 93.40
  L 433.70 93.40
  A 1.28 1.27 8.6 0 0 432.48 94.29
  Q 430.51 100.64 428.34 107.22
  Q 428.23 107.56 427.97 107.56
  Q 427.71 107.56 427.60 107.22
  Q 425.42 100.64 423.43 94.31
  A 1.28 1.27 -8.7 0 0 422.21 93.42
  L 420.32 93.42
  A 0.78 0.78 0.0 0 0 419.58 94.47
  Q 423.46 105.56 425.92 112.48
  Q 426.45 113.95 427.99 113.95
  Z"
/>
<rect fill="#191a15" x="-1.99" y="-14.77" transform="translate(1050.90,90.85) rotate(0.1)" width="3.98" height="29.54" rx="0.74"/>
<path fill="#191a15" d="
  M 983.20 77.46
  A 0.28 0.28 0.0 0 1 983.48 77.18
  L 990.90 77.20
  A 12.26 12.06 0.1 0 1 1003.14 89.28
  L 1003.14 93.64
  A 12.26 12.06 0.1 0 1 990.86 105.68
  L 983.44 105.66
  A 0.28 0.28 0.0 0 1 983.16 105.38
  L 983.20 77.46
  Z
  M 987.31 81.24
  L 987.31 101.72
  A 0.52 0.52 0.0 0 0 987.83 102.24
  L 990.37 102.24
  A 8.93 8.72 90.0 0 0 999.09 93.31
  L 999.09 89.65
  A 8.93 8.72 90.0 0 0 990.37 80.72
  L 987.83 80.72
  A 0.52 0.52 0.0 0 0 987.31 81.24
  Z"
/>
<path fill="none" d="
  M 987.31 81.24
  A 0.52 0.52 0.0 0 1 987.83 80.72
  L 990.37 80.72
  A 8.93 8.72 90.0 0 1 999.09 89.65
  L 999.09 93.31
  A 8.93 8.72 -90.0 0 1 990.37 102.24
  L 987.83 102.24
  A 0.52 0.52 0.0 0 1 987.31 101.72
  L 987.31 81.24
  Z"
/>
<path fill="#191a15" d="
  M 1023.76 96.46
  L 1011.42 96.46
  A 0.72 0.72 0.0 0 0 1010.72 97.36
  Q 1012.33 103.67 1018.56 102.18
  A 0.67 0.65 -64.3 0 0 1018.75 102.11
  L 1021.72 100.65
  A 1.41 1.41 0.0 0 1 1023.61 102.54
  Q 1022.95 103.88 1021.09 104.69
  Q 1014.19 107.72 1009.21 103.19
  C 1005.11 99.46 1005.48 89.69 1009.97 86.36
  C 1014.05 83.33 1020.07 83.76 1022.81 88.28
  C 1023.74 89.83 1023.89 93.47 1024.40 95.66
  A 0.66 0.66 0.0 0 1 1023.76 96.46
  Z
  M 1011.54 93.23
  L 1019.30 93.09
  A 0.52 0.52 0.0 0 0 1019.81 92.56
  L 1019.81 92.38
  A 4.66 4.30 88.9 0 0 1015.42 87.80
  L 1015.22 87.80
  A 4.66 4.30 88.9 0 0 1011.01 92.54
  L 1011.01 92.72
  A 0.52 0.52 0.0 0 0 1011.54 93.23
  Z"
/>
<path fill="#191a15" d="
  M 1031.97 86.63
  Q 1034.04 84.90 1034.38 84.81
  Q 1041.44 83.02 1043.98 89.84
  C 1045.81 94.74 1045.25 102.22 1040.35 104.97
  Q 1036.54 107.11 1031.99 104.76
  A 0.36 0.35 -76.7 0 0 1031.48 105.08
  L 1031.48 113.05
  A 0.71 0.70 0.0 0 1 1030.77 113.75
  L 1028.23 113.75
  A 0.81 0.81 0.0 0 1 1027.42 112.91
  Q 1027.78 101.77 1027.33 86.20
  A 2.02 1.71 14.7 0 1 1030.23 84.81
  Q 1031.34 85.37 1031.41 86.40
  A 0.34 0.34 0.0 0 0 1031.97 86.63
  Z
  M 1031.49 90.34
  L 1031.47 100.26
  A 2.22 2.22 0.0 0 0 1033.69 102.49
  L 1035.69 102.49
  A 5.67 5.30 -89.9 0 0 1041.00 96.83
  L 1041.00 93.81
  A 5.67 5.30 -89.9 0 0 1035.71 88.13
  L 1033.71 88.13
  A 2.22 2.22 0.0 0 0 1031.49 90.34
  Z"
/>
<path fill="#191a15" d="
  M 1066.1671 84.2801
  A 10.91 9.45 -89.7 0 1 1075.5599 95.2395
  A 10.91 9.45 -89.7 0 1 1066.0529 106.0999
  A 10.91 9.45 -89.7 0 1 1056.6601 95.1405
  A 10.91 9.45 -89.7 0 1 1066.1671 84.2801
  Z
  M 1065.9305 87.7019
  A 7.47 5.48 -91.3 0 0 1060.6214 95.2943
  A 7.47 5.48 -91.3 0 0 1066.2695 102.6381
  A 7.47 5.48 -91.3 0 0 1071.5786 95.0457
  A 7.47 5.48 -91.3 0 0 1065.9305 87.7019
  Z"
/>
<path fill="#191a15" d="
  M 1085.83 98.77
  A 0.22 0.22 0.0 0 0 1086.24 98.75
  L 1089.95 85.87
  A 1.69 1.68 8.0 0 1 1091.57 84.65
  L 1093.62 84.65
  A 0.66 0.66 0.0 0 1 1094.24 85.53
  Q 1086.26 108.40 1085.63 109.86
  Q 1083.56 114.63 1079.03 113.68
  A 1.69 1.69 0.0 0 1 1079.11 110.36
  Q 1083.50 109.66 1083.65 104.75
  A 1.17 1.05 -56.1 0 0 1083.59 104.33
  L 1077.15 85.68
  A 0.72 0.71 -9.3 0 1 1077.83 84.74
  L 1079.61 84.74
  A 1.49 1.48 -10.2 0 1 1081.00 85.70
  L 1085.83 98.77
  Z"
/>
<path fill="#191a15" d="
  M 179.11 113.12
  A 0.57 0.57 0.0 0 1 178.60 113.95
  L 176.38 113.95
  A 2.15 2.15 0.0 0 1 174.45 112.75
  L 169.99 103.70
  A 1.24 1.22 76.7 0 0 168.89 103.01
  L 164.55 103.01
  A 0.77 0.76 0.0 0 0 163.78 103.77
  L 163.78 113.19
  A 0.54 0.53 90.0 0 1 163.25 113.73
  L 159.96 113.73
  A 0.48 0.48 0.0 0 1 159.48 113.25
  L 159.48 86.50
  A 0.65 0.65 0.0 0 1 160.16 85.85
  Q 164.74 86.07 168.30 86.16
  C 173.70 86.29 178.47 88.35 178.25 94.41
  Q 178.07 99.56 174.09 101.87
  A 0.79 0.77 -29.2 0 0 173.79 102.90
  L 179.11 113.12
  Z
  M 163.62 90.43
  L 163.64 98.63
  A 0.67 0.67 0.0 0 0 164.32 99.30
  L 169.74 99.28
  A 4.15 3.90 -0.2 0 0 173.87 95.36
  L 173.87 93.62
  A 4.15 3.90 -0.2 0 0 169.70 89.74
  L 164.28 89.76
  A 0.67 0.67 0.0 0 0 163.62 90.43
  Z"
/>
<ellipse fill="#191a15" cx="0.00" cy="0.00" transform="translate(223.10,87.98) rotate(-47.8)" rx="2.29" ry="2.07"/>
<path fill="#191a15" d="
  M 301.96 105.87
  A 0.37 0.37 0.0 0 0 302.60 105.73
  L 303.90 101.24
  A 1.46 1.46 0.0 0 1 306.77 101.59
  Q 306.90 104.75 304.89 108.64
  A 0.92 0.91 36.0 0 0 305.06 109.70
  L 307.99 112.63
  A 0.71 0.71 0.0 0 1 307.67 113.82
  Q 304.36 114.67 302.52 112.52
  A 0.66 0.66 0.0 0 0 301.60 112.44
  C 296.70 116.50 285.98 114.38 286.71 106.17
  Q 287.07 102.10 290.96 99.29
  A 0.68 0.67 -35.1 0 0 291.13 98.36
  C 289.14 95.40 287.80 91.24 289.88 88.29
  C 294.23 82.14 306.54 87.59 301.06 95.34
  Q 299.65 97.35 296.78 98.84
  A 0.52 0.51 -33.9 0 0 296.62 99.63
  L 301.96 105.87
  Z
  M 295.43 95.93
  C 297.54 94.72 300.39 91.25 297.37 89.56
  Q 295.87 88.73 293.52 89.86
  A 1.45 1.45 0.0 0 0 292.69 91.07
  Q 292.43 94.52 294.48 95.89
  A 0.92 0.91 -42.3 0 0 295.43 95.93
  Z
  M 299.47 108.82
  L 294.25 101.99
  A 0.73 0.73 0.0 0 0 293.22 101.85
  L 293.02 102.00
  A 5.76 4.89 -37.4 0 0 291.42 109.39
  L 291.59 109.61
  A 5.76 4.89 -37.4 0 0 299.13 109.99
  L 299.33 109.84
  A 0.73 0.73 0.0 0 0 299.47 108.82
  Z"
/>
<path fill="#191a15" d="
  M 330.66 86.09
  Q 331.48 86.09 332.12 86.41
  A 1.34 1.34 0.0 0 1 332.76 87.14
  L 342.31 112.95
  A 0.78 0.77 79.7 0 1 341.59 114.00
  L 339.55 114.00
  A 1.20 1.19 79.8 0 1 338.43 113.22
  L 336.51 108.02
  A 1.52 1.51 -8.9 0 0 335.16 107.04
  Q 332.31 106.91 330.64 106.91
  Q 328.96 106.91 326.11 107.03
  A 1.52 1.51 9.0 0 0 324.76 108.01
  L 322.83 113.21
  A 1.20 1.19 -79.7 0 1 321.71 113.98
  L 319.67 113.98
  A 0.78 0.77 -79.6 0 1 318.95 112.93
  L 328.55 87.14
  A 1.34 1.34 0.0 0 1 329.20 86.41
  Q 329.83 86.09 330.66 86.09
  Z
  M 326.55 103.01
  A 0.44 0.44 0.0 0 0 326.96 103.60
  L 334.24 103.60
  A 0.44 0.44 0.0 0 0 334.65 103.01
  L 331.02 92.64
  A 0.44 0.44 0.0 0 0 330.18 92.64
  L 326.55 103.01
  Z"
/>
<path fill="none" d="
  M 1011.54 93.23
  A 0.52 0.52 0.0 0 1 1011.01 92.72
  L 1011.01 92.54
  A 4.66 4.30 88.9 0 1 1015.22 87.80
  L 1015.42 87.80
  A 4.66 4.30 88.9 0 1 1019.81 92.38
  L 1019.81 92.56
  A 0.52 0.52 0.0 0 1 1019.30 93.09
  L 1011.54 93.23
  Z"
/>
<ellipse fill="none" cx="0.00" cy="0.00" transform="translate(1066.10,95.17) rotate(-91.3)" rx="7.47" ry="5.48"/>
<path fill="none" d="
  M 1031.49 90.34
  A 2.22 2.22 0.0 0 1 1033.71 88.13
  L 1035.71 88.13
  A 5.67 5.30 -89.9 0 1 1041.00 93.81
  L 1041.00 96.83
  A 5.67 5.30 -89.9 0 1 1035.69 102.49
  L 1033.69 102.49
  A 2.22 2.22 0.0 0 1 1031.47 100.26
  L 1031.49 90.34
  Z"
/>
<path fill="#fee4ca" d="
  M 294.48 95.89
  Q 292.43 94.52 292.69 91.07
  A 1.45 1.45 0.0 0 1 293.52 89.86
  Q 295.87 88.73 297.37 89.56
  C 300.39 91.25 297.54 94.72 295.43 95.93
  A 0.92 0.91 -42.3 0 1 294.48 95.89
  Z"
/>
<path fill="#fee4ca" d="
  M 163.62 90.43
  A 0.67 0.67 0.0 0 1 164.28 89.76
  L 169.70 89.74
  A 4.15 3.90 -0.2 0 1 173.87 93.62
  L 173.87 95.36
  A 4.15 3.90 -0.2 0 1 169.74 99.28
  L 164.32 99.30
  A 0.67 0.67 0.0 0 1 163.64 98.63
  L 163.62 90.43
  Z"
/>
<path fill="#fee4ca" d="
  M 326.55 103.01
  L 330.18 92.64
  A 0.44 0.44 0.0 0 1 331.02 92.64
  L 334.65 103.01
  A 0.44 0.44 0.0 0 1 334.24 103.60
  L 326.96 103.60
  A 0.44 0.44 0.0 0 1 326.55 103.01
  Z"
/>
<path fill="#191a15" d="
  M 185.49 105.65
  C 185.90 112.03 192.09 112.23 196.21 108.90
  A 1.27 1.26 -16.3 0 1 198.27 110.01
  Q 198.11 111.34 196.78 112.32
  C 193.36 114.86 187.84 115.18 184.64 112.12
  C 178.99 106.72 180.63 95.02 188.89 93.13
  C 196.42 91.40 198.81 98.39 198.75 104.28
  A 0.64 0.64 0.0 0 1 198.11 104.92
  L 186.17 104.92
  A 0.68 0.68 0.0 0 0 185.49 105.65
  Z
  M 186.52 101.89
  L 194.34 101.77
  A 0.69 0.69 0.0 0 0 195.02 101.07
  L 195.02 100.93
  A 4.61 4.43 89.1 0 0 190.52 96.39
  L 190.18 96.39
  A 4.61 4.43 89.1 0 0 185.82 101.07
  L 185.82 101.21
  A 0.69 0.69 0.0 0 0 186.52 101.89
  Z"
/>
<path fill="#191a15" d="
  M 233.81 104.81
  A 0.69 0.68 88.9 0 0 233.12 105.53
  C 233.43 111.93 239.64 112.23 243.82 108.95
  A 1.28 1.26 -15.5 0 1 245.87 110.10
  Q 245.69 111.43 244.34 112.39
  C 240.87 114.89 235.33 115.12 232.17 112.01
  C 226.58 106.50 228.41 94.79 236.72 93.02
  C 244.30 91.40 246.59 98.45 246.44 104.36
  A 0.64 0.64 0.0 0 1 245.79 104.99
  L 233.81 104.81
  Z
  M 234.01 102.03
  L 242.27 101.83
  A 0.39 0.39 0.0 0 0 242.65 101.43
  L 242.64 101.16
  A 4.98 4.39 88.6 0 0 238.13 96.29
  L 237.87 96.29
  A 4.98 4.39 88.6 0 0 233.60 101.38
  L 233.61 101.65
  A 0.39 0.39 0.0 0 0 234.01 102.03
  Z"
/>
<path fill="#191a15" d="
  M 371.19 113.09
  A 0.67 0.66 10.9 0 0 370.28 113.70
  L 370.22 121.43
  A 0.91 0.91 0.0 0 1 369.30 122.33
  L 366.67 122.31
  A 0.63 0.63 0.0 0 1 366.05 121.68
  L 366.27 93.68
  A 0.70 0.69 84.1 0 1 366.81 93.01
  Q 369.39 92.47 369.80 94.46
  A 0.54 0.54 0.0 0 0 370.64 94.79
  Q 375.03 91.75 379.10 93.61
  Q 382.64 95.23 383.51 100.86
  C 384.43 106.64 383.30 113.26 376.60 114.66
  A 3.07 3.06 -40.1 0 1 374.87 114.51
  L 371.19 113.09
  Z
  M 379.6390 100.6867
  A 4.31 4.31 0.0 0 0 375.2544 96.4525
  L 374.2746 96.4696
  A 4.31 4.31 0.0 0 0 370.0405 100.8542
  L 370.1410 106.6133
  A 4.31 4.31 0.0 0 0 374.5256 110.8475
  L 375.5054 110.8304
  A 4.31 4.31 0.0 0 0 379.7395 106.4458
  L 379.6390 100.6867
  Z"
/>
<path fill="#191a15" d="
  M 396.45 92.85
  A 1.03 1.03 0.0 0 1 397.77 93.84
  L 397.77 95.68
  A 1.42 1.42 0.0 0 1 396.35 97.10
  L 394.24 97.10
  A 2.53 2.52 0.0 0 0 391.71 99.62
  L 391.71 112.61
  A 1.13 1.13 0.0 0 1 390.58 113.74
  L 388.93 113.74
  A 1.04 1.04 0.0 0 1 387.89 112.70
  L 387.89 93.84
  A 0.50 0.50 0.0 0 1 388.37 93.34
  Q 390.56 93.24 392.20 93.88
  A 0.79 0.79 0.0 0 0 392.73 93.91
  L 396.45 92.85
  Z"
/>
<rect fill="#191a15" x="-1.90" y="-10.33" transform="translate(223.00,103.50) rotate(0.2)" width="3.80" height="20.66" rx="0.78"/>
<path fill="#191a15" d="
  M 267.39 107.48
  A 0.20 0.20 0.0 0 0 267.78 107.48
  L 271.61 94.19
  A 1.56 1.55 10.8 0 1 273.25 93.08
  L 273.60 93.11
  A 1.41 1.41 0.0 0 1 274.89 94.91
  L 269.61 113.24
  A 0.85 0.85 0.0 0 1 269.02 113.83
  Q 267.63 114.22 266.33 113.35
  A 1.02 0.95 10.0 0 1 265.93 112.82
  L 262.04 100.61
  A 0.45 0.45 0.0 0 0 261.18 100.63
  Q 259.48 107.04 257.22 112.80
  A 1.86 1.86 0.0 0 1 254.81 113.86
  Q 253.79 113.46 253.48 112.49
  Q 253.09 111.25 248.47 94.08
  A 0.79 0.78 -7.6 0 1 249.23 93.09
  L 250.95 93.09
  A 1.06 1.06 0.0 0 1 251.97 93.86
  L 255.62 106.63
  A 0.32 0.32 0.0 0 0 256.24 106.63
  L 259.91 93.90
  A 0.76 0.76 0.0 0 1 260.64 93.35
  L 262.64 93.35
  A 0.95 0.95 0.0 0 1 263.55 94.03
  L 267.39 107.48
  Z"
/>
<path fill="#191a15" d="
  M 350.13 113.04
  A 0.67 0.66 10.5 0 0 349.23 113.65
  L 349.23 121.31
  A 0.90 0.90 0.0 0 1 348.33 122.21
  L 345.72 122.21
  A 0.62 0.62 0.0 0 1 345.10 121.59
  L 345.10 93.85
  A 0.69 0.68 83.7 0 1 345.63 93.18
  Q 348.18 92.63 348.61 94.59
  A 0.54 0.53 65.8 0 0 349.44 94.91
  Q 353.77 91.87 357.81 93.68
  Q 361.33 95.26 362.24 100.83
  C 363.19 106.55 362.13 113.11 355.50 114.55
  A 3.04 3.03 -40.6 0 1 353.78 114.42
  L 350.13 113.04
  Z
  M 358.5152 100.8517
  A 4.43 4.43 0.0 0 0 354.0774 96.4294
  L 353.3974 96.4306
  A 4.43 4.43 0.0 0 0 348.9752 100.8683
  L 348.9848 106.4083
  A 4.43 4.43 0.0 0 0 353.4226 110.8306
  L 354.1026 110.8294
  A 4.43 4.43 0.0 0 0 358.5248 106.3917
  L 358.5152 100.8517
  Z
  M 346.71 115.20
  Q 346.49 116.24 346.61 116.40
  A 0.50 0.49 29.8 0 0 347.50 116.16
  Q 347.56 115.66 347.30 115.13
  A 0.31 0.31 0.0 0 0 346.71 115.20
  Z"
/>
<path fill="#191a15" d="
  M 443.37 104.97
  A 0.68 0.68 0.0 0 0 442.70 105.70
  C 443.15 112.08 449.34 112.23 453.44 108.88
  A 1.27 1.26 -16.7 0 1 455.50 109.97
  Q 455.35 111.30 454.03 112.29
  C 450.63 114.86 445.11 115.21 441.89 112.18
  C 436.20 106.82 437.76 95.11 446.01 93.16
  C 453.52 91.38 455.96 98.35 455.94 104.24
  A 0.64 0.64 0.0 0 1 455.31 104.88
  L 443.37 104.97
  Z
  M 443.37 101.99
  L 451.89 101.52
  A 0.41 0.41 0.0 0 0 452.28 101.09
  L 452.26 100.78
  A 4.70 4.68 86.8 0 0 447.33 96.34
  A 4.70 4.68 86.8 0 0 442.92 101.30
  L 442.94 101.61
  A 0.41 0.41 0.0 0 0 443.37 101.99
  Z"
/>
<path fill="#191a15" d="
  M 209.09 107.50
  Q 209.35 107.50 209.46 107.16
  Q 211.65 100.51 213.64 94.10
  A 1.29 1.28 8.6 0 1 214.87 93.20
  L 216.78 93.20
  A 0.79 0.79 0.0 0 1 217.53 94.25
  Q 213.64 105.47 211.17 112.48
  Q 210.65 113.96 209.11 113.96
  Q 207.55 113.96 207.02 112.48
  Q 204.53 105.49 200.60 94.28
  A 0.79 0.79 0.0 0 1 201.35 93.23
  L 203.26 93.22
  A 1.29 1.28 -8.8 0 1 204.49 94.12
  Q 206.50 100.52 208.71 107.16
  Q 208.82 107.50 209.09 107.50
  Z"
/>
<path fill="#191a15" d="
  M 408.5124 92.8801
  A 10.76 9.37 -90.2 0 1 417.9199 103.6073
  A 10.76 9.37 -90.2 0 1 408.5876 114.3999
  A 10.76 9.37 -90.2 0 1 399.1801 103.6727
  A 10.76 9.37 -90.2 0 1 408.5124 92.8801
  Z
  M 408.6878 96.3209
  A 7.50 5.45 -89.1 0 0 403.1207 103.7344
  A 7.50 5.45 -89.1 0 0 408.4522 111.3191
  A 7.50 5.45 -89.1 0 0 414.0193 103.9056
  A 7.50 5.45 -89.1 0 0 408.6878 96.3209
  Z"
/>
<path fill="#191a15" d="
  M 427.99 113.95
  Q 426.45 113.95 425.92 112.48
  Q 423.46 105.56 419.58 94.47
  A 0.78 0.78 0.0 0 1 420.32 93.42
  L 422.21 93.42
  A 1.28 1.27 -8.7 0 1 423.43 94.31
  Q 425.42 100.64 427.60 107.22
  Q 427.71 107.56 427.97 107.56
  Q 428.23 107.56 428.34 107.22
  Q 430.51 100.64 432.48 94.29
  A 1.28 1.27 8.6 0 1 433.70 93.40
  L 435.59 93.40
  A 0.78 0.78 0.0 0 1 436.33 94.44
  Q 432.48 105.55 430.04 112.48
  Q 429.52 113.94 427.99 113.95
  Z"
/>
<path fill="#020203" d="
  M 1247.16 112.54
  L 1232.71 129.98
  A 1.87 1.86 -70.0 0 1 1231.28 130.65
  L 1137.73 130.65
  A 2.21 2.11 -31.6 0 1 1136.84 130.46
  Q 1133.64 129.03 1132.47 125.87
  A 3.26 3.20 35.6 0 1 1132.28 124.78
  Q 1132.34 117.32 1132.37 103.62
  C 1132.38 98.96 1134.52 95.46 1139.26 95.44
  C 1178.77 95.30 1216.05 95.62 1261.60 95.29
  Q 1265.32 95.27 1266.65 96.36
  Q 1268.61 97.98 1269.54 100.15
  A 1.95 1.95 0.0 0 1 1269.69 100.90
  L 1269.69 125.46
  A 3.70 3.69 62.2 0 1 1269.05 127.54
  Q 1267.68 129.57 1265.15 130.75
  A 0.91 0.91 0.0 0 1 1264.12 130.57
  Q 1255.94 122.26 1248.52 112.57
  A 0.87 0.87 0.0 0 0 1247.16 112.54
  Z
  M 1150.13 120.20
  A 0.93 0.93 0.0 0 0 1150.98 119.65
  L 1156.39 107.65
  A 0.93 0.93 0.0 0 0 1155.54 106.34
  L 1150.42 106.34
  A 0.93 0.93 0.0 0 0 1149.57 106.89
  L 1144.16 118.89
  A 0.93 0.93 0.0 0 0 1145.01 120.20
  L 1150.13 120.20
  Z
  M 1170.70 106.36
  L 1165.57 106.36
  A 1.52 1.51 12.0 0 0 1164.19 107.25
  L 1159.05 118.64
  A 1.03 1.03 0.0 0 0 1159.99 120.09
  L 1164.27 120.09
  A 1.86 1.85 11.9 0 0 1165.97 118.99
  L 1171.27 107.24
  A 0.62 0.62 0.0 0 0 1170.70 106.36
  Z
  M 1179.99 120.18
  A 0.82 0.82 0.0 0 0 1180.74 119.70
  L 1186.29 107.40
  A 0.82 0.82 0.0 0 0 1185.54 106.24
  L 1180.01 106.24
  A 0.82 0.82 0.0 0 0 1179.26 106.72
  L 1173.72 119.02
  A 0.82 0.82 0.0 0 0 1174.47 120.18
  L 1179.99 120.18
  Z
  M 1194.76 106.32
  A 0.74 0.74 0.0 0 0 1194.08 106.76
  L 1188.52 119.11
  A 0.74 0.74 0.0 0 0 1189.19 120.15
  L 1194.63 120.15
  A 0.74 0.74 0.0 0 0 1195.31 119.71
  L 1200.87 107.36
  A 0.74 0.74 0.0 0 0 1200.20 106.32
  L 1194.76 106.32
  Z"
/>
<path fill="#fee4ca" d="
  M 234.01 102.03
  A 0.39 0.39 0.0 0 1 233.61 101.65
  L 233.60 101.38
  A 4.98 4.39 88.6 0 1 237.87 96.29
  L 238.13 96.29
  A 4.98 4.39 88.6 0 1 242.64 101.16
  L 242.65 101.43
  A 0.39 0.39 0.0 0 1 242.27 101.83
  L 234.01 102.03
  Z"
/>
<rect fill="#fee4ca" x="-4.77" y="-7.20" transform="translate(353.75,103.63) rotate(-0.1)" width="9.54" height="14.40" rx="4.43"/>
<rect fill="#fee4ca" x="-4.80" y="-7.19" transform="translate(374.89,103.65) rotate(-1.0)" width="9.60" height="14.38" rx="4.31"/>
<ellipse fill="#fee4ca" cx="0.00" cy="0.00" transform="translate(408.57,103.82) rotate(-89.1)" rx="7.50" ry="5.45"/>
<path fill="#fee4ca" d="
  M 443.37 101.99
  A 0.41 0.41 0.0 0 1 442.94 101.61
  L 442.92 101.30
  A 4.70 4.68 86.8 0 1 447.33 96.34
  A 4.70 4.68 86.8 0 1 452.26 100.78
  L 452.28 101.09
  A 0.41 0.41 0.0 0 1 451.89 101.52
  L 443.37 101.99
  Z"
/>
<path fill="#fee4ca" d="
  M 186.52 101.89
  A 0.69 0.69 0.0 0 1 185.82 101.21
  L 185.82 101.07
  A 4.61 4.43 89.1 0 1 190.18 96.39
  L 190.52 96.39
  A 4.61 4.43 89.1 0 1 195.02 100.93
  L 195.02 101.07
  A 0.69 0.69 0.0 0 1 194.34 101.77
  L 186.52 101.89
  Z"
/>
<path fill="#fee4ca" d="
  M 299.47 108.82
  A 0.73 0.73 0.0 0 1 299.33 109.84
  L 299.13 109.99
  A 5.76 4.89 -37.4 0 1 291.59 109.61
  L 291.42 109.39
  A 5.76 4.89 -37.4 0 1 293.02 102.00
  L 293.22 101.85
  A 0.73 0.73 0.0 0 1 294.25 101.99
  L 299.47 108.82
  Z"
/>
<path fill="none" d="
  M 1150.13 120.20
  L 1145.01 120.20
  A 0.93 0.93 0.0 0 1 1144.16 118.89
  L 1149.57 106.89
  A 0.93 0.93 0.0 0 1 1150.42 106.34
  L 1155.54 106.34
  A 0.93 0.93 0.0 0 1 1156.39 107.65
  L 1150.98 119.65
  A 0.93 0.93 0.0 0 1 1150.13 120.20
  Z"
/>
<path fill="#f4f3f4" d="
  M 1170.70 106.36
  A 0.62 0.62 0.0 0 1 1171.27 107.24
  L 1165.97 118.99
  A 1.86 1.85 11.9 0 1 1164.27 120.09
  L 1159.99 120.09
  A 1.03 1.03 0.0 0 1 1159.05 118.64
  L 1164.19 107.25
  A 1.52 1.51 12.0 0 1 1165.57 106.36
  L 1170.70 106.36
  Z"
/>
<path fill="#f4f3f4" d="
  M 1179.99 120.18
  L 1174.47 120.18
  A 0.82 0.82 0.0 0 1 1173.72 119.02
  L 1179.26 106.72
  A 0.82 0.82 0.0 0 1 1180.01 106.24
  L 1185.54 106.24
  A 0.82 0.82 0.0 0 1 1186.29 107.40
  L 1180.74 119.70
  A 0.82 0.82 0.0 0 1 1179.99 120.18
  Z"
/>
<path fill="#f4f3f4" d="
  M 1194.76 106.32
  L 1200.20 106.32
  A 0.74 0.74 0.0 0 1 1200.87 107.36
  L 1195.31 119.71
  A 0.74 0.74 0.0 0 1 1194.63 120.15
  L 1189.19 120.15
  A 0.74 0.74 0.0 0 1 1188.52 119.11
  L 1194.08 106.76
  A 0.74 0.74 0.0 0 1 1194.76 106.32
  Z"
/>
<path fill="#191a15" d="
  M 827.70 117.77
  A 0.77 0.76 84.1 0 1 826.96 118.69
  L 824.76 118.69
  A 1.29 1.29 0.0 0 1 823.50 117.69
  C 821.47 109.09 812.20 112.31 810.94 119.21
  C 810.03 124.19 810.47 134.50 818.04 134.41
  Q 822.43 134.36 823.83 129.20
  A 0.96 0.96 0.0 0 1 824.76 128.49
  L 826.49 128.49
  A 0.85 0.85 0.0 0 1 827.33 129.46
  C 826.65 134.27 823.44 137.43 818.43 137.82
  C 810.69 138.41 807.16 132.06 806.78 125.01
  C 806.34 116.89 809.40 108.42 819.15 109.32
  Q 826.01 109.97 827.70 117.77
  Z"
/>
<rect fill="#191a15" x="-1.59" y="-16.67" transform="translate(856.35,124.85) rotate(20.0)" width="3.18" height="33.34" rx="0.93"/>
<path fill="#191a15" d="
  M 879.37 123.53
  C 879.37 128.27 880.50 134.71 886.79 134.44
  Q 891.30 134.25 892.50 129.11
  A 0.74 0.74 0.0 0 1 893.22 128.53
  L 895.90 128.53
  A 0.63 0.63 0.0 0 1 896.52 129.25
  C 895.56 135.57 890.89 138.61 884.53 137.72
  C 877.38 136.71 875.35 129.67 875.36 123.53
  C 875.37 117.38 877.42 110.35 884.58 109.37
  C 890.94 108.49 895.60 111.54 896.54 117.87
  A 0.63 0.63 0.0 0 1 895.92 118.59
  L 893.24 118.58
  A 0.74 0.74 0.0 0 1 892.52 117.99
  Q 891.33 112.85 886.83 112.64
  C 880.53 112.36 879.38 118.80 879.37 123.53
  Z"
/>
<rect fill="#020203" x="-1.99" y="-14.01" transform="translate(834.06,123.65) rotate(0.2)" width="3.98" height="28.02" rx="0.73"/>
<path fill="#191a15" d="
  M 900.85 109.88
  A 0.39 0.39 0.0 0 1 901.24 109.49
  L 908.45 109.51
  A 12.26 12.22 0.1 0 1 920.69 121.75
  L 920.69 125.51
  A 12.26 12.22 0.1 0 1 908.41 137.71
  L 901.20 137.69
  A 0.39 0.39 0.0 0 1 900.81 137.30
  L 900.85 109.88
  Z
  M 904.83 113.51
  L 904.87 133.53
  A 0.58 0.58 0.0 0 0 905.45 134.11
  L 908.32 134.10
  A 8.51 8.21 89.9 0 0 916.51 125.58
  L 916.51 121.42
  A 8.51 8.21 89.9 0 0 908.28 112.92
  L 905.41 112.93
  A 0.58 0.58 0.0 0 0 904.83 113.51
  Z"
/>
<path fill="#f4f3f4" d="
  M 904.83 113.51
  A 0.58 0.58 0.0 0 1 905.41 112.93
  L 908.28 112.92
  A 8.51 8.21 89.9 0 1 916.51 121.42
  L 916.51 125.58
  A 8.51 8.21 89.9 0 1 908.32 134.10
  L 905.45 134.11
  A 0.58 0.58 0.0 0 1 904.87 133.53
  L 904.83 113.51
  Z"
/>
<path fill="#c67f5c" d="
  M 145.83 129.99
  L 466.04 130.06
  L 476.03 130.03
  A 0.64 0.63 84.4 0 0 476.65 129.27
  Q 475.19 122.32 472.03 115.82
  A 0.56 0.56 0.0 0 1 472.79 115.07
  L 507.74 132.82
  A 0.43 0.43 0.0 0 1 507.75 133.59
  L 473.60 151.36
  A 0.43 0.43 0.0 0 1 472.99 150.86
  L 476.72 137.93
  A 0.56 0.56 0.0 0 0 476.18 137.22
  L 136.99 137.22
  A 0.48 0.47 90.0 0 1 136.52 136.74
  L 136.52 130.63
  A 0.63 0.63 0.0 0 1 137.15 130.00
  L 145.83 129.99
  Z"
/>
<path fill="#c67f5c" d="
  M 347.30 115.13
  Q 347.56 115.66 347.50 116.16
  A 0.50 0.49 29.8 0 1 346.61 116.40
  Q 346.49 116.24 346.71 115.20
  A 0.31 0.31 0.0 0 1 347.30 115.13
  Z"
/>
<path fill="#020203" d="
  M 1239.85 192.51
  A 0.31 0.31 0.0 0 1 1239.54 192.20
  L 1239.54 155.75
  A 0.50 0.50 0.0 0 0 1239.04 155.25
  L 1222.63 155.25
  A 0.87 0.87 0.0 0 1 1221.96 153.83
  L 1247.71 122.77
  A 0.63 0.62 -45.3 0 1 1248.67 122.76
  L 1275.96 154.69
  A 0.33 0.33 0.0 0 1 1275.71 155.23
  L 1256.86 155.23
  A 0.36 0.36 0.0 0 0 1256.50 155.59
  L 1256.50 192.08
  A 0.43 0.42 90.0 0 1 1256.08 192.51
  L 1239.85 192.51
  Z"
/>
<path fill="#020203" d="
  M 1225.50 139.25
  Q 1216.19 149.64 1207.75 161.50
  A 0.44 0.44 0.0 0 0 1208.11 162.19
  L 1233.06 162.19
  A 0.54 0.54 0.0 0 1 1233.60 162.73
  L 1233.60 172.97
  A 0.61 0.60 -0.5 0 1 1233.00 173.57
  Q 1201.75 173.70 1140.25 173.85
  Q 1135.95 173.86 1133.81 171.08
  Q 1132.27 169.08 1132.29 164.64
  Q 1132.39 148.74 1132.48 144.53
  C 1132.55 141.33 1135.19 138.71 1138.58 138.61
  Q 1139.54 138.58 1141.75 138.59
  Q 1171.41 138.74 1225.13 138.43
  A 0.49 0.49 0.0 0 1 1225.50 139.25
  Z
  M 1150.33 149.05
  A 0.92 0.92 0.0 0 0 1149.50 149.59
  L 1143.98 161.83
  A 0.92 0.92 0.0 0 0 1144.82 163.13
  L 1149.92 163.13
  A 0.92 0.92 0.0 0 0 1150.75 162.59
  L 1156.27 150.35
  A 0.92 0.92 0.0 0 0 1155.44 149.05
  L 1150.33 149.05
  Z
  M 1165.19 149.02
  A 0.73 0.73 0.0 0 0 1164.53 149.45
  L 1158.98 161.73
  A 0.73 0.73 0.0 0 0 1159.65 162.76
  L 1164.88 162.76
  A 0.73 0.73 0.0 0 0 1165.54 162.33
  L 1171.08 150.05
  A 0.73 0.73 0.0 0 0 1170.41 149.02
  L 1165.19 149.02
  Z
  M 1180.02 162.97
  A 0.67 0.67 0.0 0 0 1180.63 162.58
  L 1186.33 149.91
  A 0.67 0.67 0.0 0 0 1185.72 148.96
  L 1180.04 148.96
  A 0.67 0.67 0.0 0 0 1179.43 149.35
  L 1173.73 162.02
  A 0.67 0.67 0.0 0 0 1174.34 162.97
  L 1180.02 162.97
  Z
  M 1194.50 162.98
  A 0.65 0.65 0.0 0 0 1195.09 162.60
  L 1200.82 149.90
  A 0.65 0.65 0.0 0 0 1200.22 148.98
  L 1194.73 148.98
  A 0.65 0.65 0.0 0 0 1194.14 149.36
  L 1188.42 162.06
  A 0.65 0.65 0.0 0 0 1189.02 162.98
  L 1194.50 162.98
  Z"
/>
<path fill="#020203" d="
  M 78.62 201.88
  Q 53.32 201.85 30.72 197.63
  Q 24.84 196.53 19.86 194.13
  A 2.47 2.45 -78.7 0 1 18.48 192.05
  Q 18.26 187.99 19.12 182.56
  C 21.78 165.64 29.21 152.52 44.53 144.38
  Q 49.46 141.76 56.28 140.68
  A 1.42 1.42 0.0 0 1 57.26 140.89
  Q 64.10 145.18 71.96 147.09
  Q 73.87 147.56 78.68 147.56
  Q 83.49 147.57 85.41 147.11
  Q 93.27 145.21 100.12 140.94
  A 1.42 1.42 0.0 0 1 101.10 140.73
  Q 107.92 141.82 112.84 144.45
  C 128.14 152.63 135.54 165.76 138.17 182.69
  Q 139.02 188.12 138.79 192.18
  A 2.47 2.45 78.9 0 1 137.40 194.26
  Q 132.42 196.65 126.53 197.73
  Q 103.92 201.91 78.62 201.88
  Z"
/>
<path fill="#f4f3f4" d="
  M 1150.33 149.05
  L 1155.44 149.05
  A 0.92 0.92 0.0 0 1 1156.27 150.35
  L 1150.75 162.59
  A 0.92 0.92 0.0 0 1 1149.92 163.13
  L 1144.82 163.13
  A 0.92 0.92 0.0 0 1 1143.98 161.83
  L 1149.50 149.59
  A 0.92 0.92 0.0 0 1 1150.33 149.05
  Z"
/>
<path fill="#f4f3f4" d="
  M 1165.19 149.02
  L 1170.41 149.02
  A 0.73 0.73 0.0 0 1 1171.08 150.05
  L 1165.54 162.33
  A 0.73 0.73 0.0 0 1 1164.88 162.76
  L 1159.65 162.76
  A 0.73 0.73 0.0 0 1 1158.98 161.73
  L 1164.53 149.45
  A 0.73 0.73 0.0 0 1 1165.19 149.02
  Z"
/>
<path fill="#f4f3f4" d="
  M 1180.02 162.97
  L 1174.34 162.97
  A 0.67 0.67 0.0 0 1 1173.73 162.02
  L 1179.43 149.35
  A 0.67 0.67 0.0 0 1 1180.04 148.96
  L 1185.72 148.96
  A 0.67 0.67 0.0 0 1 1186.33 149.91
  L 1180.63 162.58
  A 0.67 0.67 0.0 0 1 1180.02 162.97
  Z"
/>
<path fill="#f4f3f4" d="
  M 1194.50 162.98
  L 1189.02 162.98
  A 0.65 0.65 0.0 0 1 1188.42 162.06
  L 1194.14 149.36
  A 0.65 0.65 0.0 0 1 1194.73 148.98
  L 1200.22 148.98
  A 0.65 0.65 0.0 0 1 1200.82 149.90
  L 1195.09 162.60
  A 0.65 0.65 0.0 0 1 1194.50 162.98
  Z"
/>
<path fill="#6d84ac" d="
  M 661.1155 150.3735
  A 34.00 33.35 -81.5 0 1 689.0737 188.9294
  A 34.00 33.35 -81.5 0 1 651.0645 217.6265
  A 34.00 33.35 -81.5 0 1 623.1063 179.0706
  A 34.00 33.35 -81.5 0 1 661.1155 150.3735
  Z
  M 649.33 192.37
  L 642.15 184.42
  A 3.59 3.58 45.9 0 0 636.91 184.33
  L 636.76 184.47
  A 3.64 3.64 0.0 0 0 636.70 189.70
  L 649.66 202.52
  A 1.06 1.05 41.6 0 0 651.23 202.43
  L 674.89 172.59
  A 3.85 3.85 0.0 0 0 674.20 167.13
  L 673.89 166.89
  A 3.51 3.51 0.0 0 0 668.77 167.48
  L 650.67 192.30
  A 0.87 0.86 41.7 0 1 649.33 192.37
  Z"
/>
<path fill="none" d="
  M 649.33 192.37
  A 0.87 0.86 41.7 0 0 650.67 192.30
  L 668.77 167.48
  A 3.51 3.51 0.0 0 1 673.89 166.89
  L 674.20 167.13
  A 3.85 3.85 0.0 0 1 674.89 172.59
  L 651.23 202.43
  A 1.06 1.05 41.6 0 1 649.66 202.52
  L 636.70 189.70
  A 3.64 3.64 0.0 0 1 636.76 184.47
  L 636.91 184.33
  A 3.59 3.58 45.9 0 1 642.15 184.42
  L 649.33 192.37
  Z"
/>
<rect fill="#020203" x="-2.06" y="-1.86" transform="translate(601.73,227.59) rotate(-6.4)" width="4.12" height="3.72" rx="1.34"/>
<path fill="#020203" d="
  M 589.88 243.17
  L 585.31 243.17
  A 1.05 1.05 0.0 0 1 584.26 242.12
  L 584.26 241.27
  A 1.35 1.35 0.0 0 1 585.61 239.92
  L 594.09 239.92
  A 0.64 0.64 0.0 0 1 594.73 240.56
  L 594.73 250.00
  A 1.43 1.39 68.5 0 1 594.31 251.01
  C 591.19 254.09 586.20 254.93 582.15 253.79
  C 576.55 252.23 573.42 246.76 573.57 241.01
  C 573.83 231.07 576.46 224.79 587.93 226.31
  Q 592.73 226.95 594.67 232.58
  A 1.56 1.56 0.0 0 1 593.19 234.65
  L 592.69 234.65
  A 2.14 2.13 -9.0 0 1 590.66 233.18
  Q 589.60 229.96 587.25 229.41
  C 578.19 227.26 577.34 235.27 577.60 241.75
  C 577.87 248.44 581.89 252.64 589.15 250.32
  A 2.34 2.34 0.0 0 0 590.78 248.09
  L 590.78 244.07
  A 0.90 0.90 0.0 0 0 589.88 243.17
  Z"
/>
<path fill="#191a15" d="
  M 607.29 232.89
  L 609.16 232.89
  A 0.72 0.72 0.0 0 0 609.88 232.17
  L 609.88 228.60
  A 0.73 0.72 -0.0 0 1 610.61 227.88
  L 613.25 227.88
  A 0.67 0.67 0.0 0 1 613.92 228.55
  L 613.92 232.43
  A 0.75 0.74 -1.5 0 0 614.71 233.17
  Q 616.48 233.06 617.33 233.28
  A 1.00 0.99 -82.4 0 1 618.06 234.24
  L 618.06 234.94
  A 0.99 0.99 0.0 0 1 617.07 235.93
  L 614.70 235.93
  A 0.74 0.74 0.0 0 0 613.96 236.67
  L 613.96 249.85
  A 1.29 1.29 0.0 0 0 615.25 251.14
  L 617.18 251.14
  A 1.03 1.03 0.0 0 1 618.15 252.51
  L 618.00 252.96
  A 2.20 2.20 0.0 0 1 615.98 254.44
  Q 610.04 254.61 610.08 248.28
  Q 610.15 238.00 610.02 236.70
  A 0.63 0.62 86.9 0 0 609.40 236.14
  L 607.49 236.14
  A 0.74 0.73 -0.0 0 1 606.75 235.41
  L 606.75 233.42
  A 0.54 0.53 0.0 0 1 607.29 232.89
  Z"
/>
<path fill="#020203" d="
  M 603.51 232.79
  A 0.46 0.46 0.0 0 1 603.96 233.25
  L 603.87 252.02
  A 2.09 1.66 -89.7 0 1 602.19 254.10
  L 601.47 254.10
  A 2.09 1.66 -89.7 0 1 599.83 252.00
  L 599.92 233.23
  A 0.46 0.46 0.0 0 1 600.39 232.77
  L 603.51 232.79
  Z"
/>
</svg>
