<svg xmlns="http://www.w3.org/2000/svg" viewBox="0 0 2816 1536">
<g transform="translate(0,1536) scale(0.1,-0.1)" fill="#ffffff">
<path d="M0 15018 c0 -703 74 -1191 260 -1713 167 -473 440 -964 765 -1380
177 -225 278 -338 520 -581 261 -262 469 -443 775 -675 69 -52 150 -114 180
-137 525 -400 1413 -926 2035 -1204 50 -22 95 -44 100 -48 14 -11 289 -126
490 -204 736 -289 1183 -512 1645 -819 242 -161 277 -186 485 -356 277 -225
655 -607 886 -896 148 -184 351 -472 460 -653 24 -40 57 -94 73 -120 110 -181
302 -544 464 -877 77 -159 189 -391 249 -515 325 -670 709 -1289 1157 -1865
242 -311 491 -602 725 -849 l66 -69 -80 43 c-44 24 -120 68 -170 98 -49 30
-122 74 -161 98 -88 52 -345 223 -479 318 -205 144 -531 415 -720 597 -60 58
-125 119 -144 135 -52 45 -288 306 -398 439 -444 539 -722 1020 -1083 1880
-217 518 -560 960 -1014 1310 -337 258 -688 460 -1125 645 -286 120 -311 130
-680 255 -610 207 -899 324 -1346 545 -510 253 -821 466 -1169 800 -130 125
-318 342 -305 354 2 2 63 -19 134 -46 223 -84 530 -184 778 -252 263 -74 445
-118 459 -114 6 2 -23 16 -64 32 -100 39 -294 129 -540 252 -523 261 -1166
656 -1593 978 -114 86 -528 421 -600 485 -33 30 -75 69 -94 85 -39 36 -38 44
-3 -94 160 -617 369 -1102 677 -1565 257 -386 571 -717 967 -1015 640 -484
1312 -819 2353 -1173 453 -154 800 -293 1055 -422 457 -232 743 -452 1022
-785 51 -61 181 -263 245 -380 22 -41 78 -160 123 -265 213 -493 326 -732 488
-1025 380 -690 859 -1283 1463 -1811 242 -212 369 -311 709 -556 466 -335
1186 -746 1865 -1065 391 -184 565 -257 1290 -543 146 -58 475 -170 764 -261
63 -20 126 -34 140 -31 47 8 352 107 606 197 868 307 1772 713 2495 1123 867
491 1461 933 2041 1519 601 608 1065 1328 1480 2298 31 74 73 172 93 217 212
494 517 848 996 1159 346 225 746 402 1450 642 551 187 890 327 1324 544 251
126 307 157 571 321 505 315 953 711 1247 1102 185 247 305 445 448 737 159
327 212 469 349 933 28 97 52 207 46 213 -2 3 -44 -31 -91 -74 -127 -115 -153
-137 -329 -279 -470 -380 -932 -687 -1545 -1028 -254 -141 -781 -398 -937
-458 -50 -19 -16 -18 62 2 340 85 1177 346 1274 398 100 54 -144 -233 -367
-432 -345 -306 -580 -464 -1027 -692 -425 -216 -744 -347 -1345 -550 -853
-288 -1352 -533 -1844 -904 -307 -230 -528 -466 -744 -791 -150 -225 -205
-333 -344 -670 -119 -289 -340 -734 -488 -980 -281 -469 -549 -810 -944 -1206
-324 -323 -649 -593 -1024 -851 -171 -117 -694 -433 -718 -433 -3 0 61 71 143
158 502 533 1004 1204 1390 1855 162 274 289 515 501 952 112 231 230 474 262
540 72 147 312 588 365 670 21 33 63 101 93 150 93 155 347 508 489 681 136
167 331 380 484 529 348 338 848 700 1324 957 66 36 158 86 205 111 47 25 150
76 230 112 146 67 663 286 710 300 70 21 413 166 623 263 236 109 637 318 894
466 405 233 909 565 1198 790 456 355 655 525 909 781 370 372 620 692 873
1115 62 103 213 405 278 555 128 295 221 619 284 985 54 314 63 439 68 904 l5
429 -44 -25 c-23 -14 -146 -84 -273 -156 -349 -197 -966 -548 -1255 -715 -58
-33 -235 -135 -395 -227 -159 -92 -348 -201 -420 -242 -208 -119 -807 -458
-965 -545 -249 -138 -772 -396 -1055 -520 -44 -19 -192 -86 -330 -148 -137
-62 -358 -161 -490 -220 -370 -166 -452 -203 -555 -250 -1002 -464 -1610 -788
-2105 -1120 -270 -181 -462 -336 -676 -546 -257 -252 -471 -541 -620 -839
-196 -390 -302 -735 -369 -1199 -43 -298 -51 -457 -60 -1101 -9 -643 -15 -744
-60 -1045 -34 -228 -132 -592 -217 -809 -52 -134 -220 -475 -293 -596 -202
-337 -472 -671 -811 -1006 -413 -408 -792 -713 -1269 -1021 -261 -168 -624
-374 -923 -525 -197 -98 -861 -388 -891 -388 -16 0 -274 106 -490 201 -467
206 -968 476 -1364 736 -190 124 -548 385 -682 497 -329 274 -552 484 -759
711 -171 188 -199 221 -318 380 -85 114 -128 176 -240 345 -110 167 -271 487
-344 684 -83 223 -178 578 -208 776 -50 329 -53 375 -61 990 -8 607 -17 763
-61 1120 -82 660 -300 1233 -647 1695 -199 265 -440 503 -772 761 -425 331
-1113 720 -2040 1152 -36 17 -119 56 -185 87 -129 61 -221 103 -725 328 -179
79 -379 169 -445 200 -66 30 -203 92 -305 137 -372 167 -833 393 -1050 515
-41 24 -163 91 -270 150 -238 131 -676 379 -865 490 -77 45 -171 100 -210 122
-79 45 -755 434 -945 543 -69 40 -217 124 -329 187 -112 63 -220 125 -240 137
-51 32 -520 296 -526 296 -3 0 -5 -154 -5 -342z m1005 -1155 c39 -22 158 -93
265 -156 217 -128 397 -236 480 -289 30 -20 91 -56 135 -80 44 -25 245 -139
447 -254 809 -461 1027 -573 1928 -990 151 -70 327 -150 390 -179 63 -29 205
-94 315 -145 110 -51 254 -117 320 -147 66 -30 194 -90 285 -133 91 -42 217
-101 280 -130 227 -104 878 -430 1040 -521 809 -453 1258 -873 1539 -1440 223
-449 322 -923 347 -1672 8 -219 6 -225 -51 -144 -97 137 -438 503 -636 683
-512 465 -996 802 -1620 1127 -133 70 -209 106 -514 244 -60 28 -231 98 -380
158 -524 208 -817 339 -1200 534 -619 316 -1175 661 -1620 1006 -417 322 -679
564 -930 856 -147 171 -179 210 -246 304 -272 380 -442 700 -565 1067 -47 141
-94 310 -94 340 0 12 -1 12 85 -39z m26225 -30 c-14 -79 -107 -371 -156 -489
-356 -864 -1068 -1642 -2169 -2369 -259 -171 -396 -255 -635 -393 -210 -120
-703 -372 -885 -453 -278 -122 -557 -240 -836 -352 -156 -63 -356 -147 -444
-187 -638 -289 -1233 -655 -1739 -1069 -311 -255 -724 -674 -948 -961 l-27
-35 -1 162 c-1 397 52 841 136 1146 116 423 281 751 533 1065 91 113 305 323
418 410 43 34 101 78 128 100 148 115 432 297 685 440 157 88 659 339 935 467
116 54 318 149 450 213 132 63 328 154 435 202 403 181 1023 467 1405 649 245
116 751 378 815 421 14 10 105 61 202 114 98 53 269 148 380 212 112 65 262
151 333 192 72 41 164 96 205 122 69 43 588 352 725 432 33 19 62 34 64 32 2
-2 -2 -34 -9 -71z m-15610 -10884 c194 -155 555 -403 800 -551 510 -306 952
-523 1506 -739 l156 -61 187 72 c570 222 1145 517 1706 874 183 117 461 320
674 492 55 44 25 4 -125 -171 -355 -415 -960 -1003 -1354 -1316 -113 -90 -436
-332 -540 -406 -94 -66 -447 -300 -525 -348 -17 -10 -34 -3 -131 56 -256 154
-586 390 -947 677 -475 376 -1035 919 -1443 1399 -104 121 -124 151 -81 116
12 -10 65 -52 117 -94z"/>
<path d="M13685 14953 c-22 -1 -98 -8 -170 -13 -1024 -84 -2023 -394 -2910
-903 -250 -143 -314 -185 -602 -389 -540 -385 -1006 -826 -1445 -1368 -103
-128 -378 -522 -378 -542 0 -4 6 -8 13 -8 28 0 446 -304 566 -411 31 -27 58
-48 62 -47 4 2 51 68 104 148 235 350 416 570 734 894 312 317 635 582 1011
828 577 379 1170 644 1855 828 221 60 206 54 345 135 323 189 608 440 834 735
40 52 76 101 80 108 7 12 -5 13 -99 5z"/>
<path d="M14380 14955 c0 -3 40 -59 89 -123 203 -266 468 -507 747 -678 176
-108 230 -132 394 -175 182 -47 509 -148 630 -195 570 -219 1123 -524 1590
-873 326 -244 675 -570 960 -896 57 -66 107 -122 110 -125 6 -6 63 -79 193
-254 107 -142 233 -328 242 -356 6 -18 13 -14 73 38 108 94 318 253 447 338
66 43 122 80 124 81 13 9 -135 233 -272 413 -350 460 -857 972 -1322 1337
-343 268 -845 582 -1230 768 -262 126 -616 272 -820 337 -134 42 -462 140
-519 154 -397 99 -727 155 -1111 188 -307 27 -325 28 -325 21z"/>
<path d="M13865 13489 c-179 -7 -440 -31 -545 -49 -30 -5 -126 -21 -213 -35
-365 -60 -791 -185 -1147 -337 -615 -263 -1122 -588 -1607 -1031 -405 -369
-660 -676 -1024 -1229 -20 -29 -28 -51 -23 -60 5 -7 43 -60 84 -118 157 -215
288 -426 375 -600 l38 -75 46 95 c148 300 380 654 599 915 563 669 1290 1172
2091 1446 708 242 1398 316 2112 225 369 -47 600 -100 940 -215 555 -188 1049
-461 1489 -824 502 -415 952 -972 1216 -1504 58 -117 84 -151 84 -110 0 21
151 286 242 422 47 72 122 179 166 239 l81 110 -21 35 c-12 20 -57 90 -101
156 -476 713 -1017 1245 -1727 1697 -405 258 -907 489 -1330 613 -630 184
-1204 258 -1825 234z"/>
<path d="M12157 10949 c-333 -58 -656 -234 -902 -491 -360 -375 -529 -924
-440 -1433 20 -114 37 -176 82 -295 97 -255 201 -413 428 -647 92 -95 172
-173 178 -173 6 0 141 131 300 290 l289 291 -143 147 c-193 198 -254 293 -298
471 -42 166 -36 299 22 464 48 135 107 228 207 327 279 275 715 316 1041 96
53 -35 543 -505 559 -537 7 -13 -200 -226 -988 -1015 -1422 -1426 -1362 -1361
-1489 -1589 -324 -580 -272 -1292 135 -1830 85 -112 270 -286 382 -360 177
-116 420 -215 615 -251 120 -22 408 -30 532 -15 254 31 487 122 723 282 98 66
157 120 403 365 l287 288 298 -296 c248 -247 313 -306 397 -360 129 -84 192
-119 290 -161 234 -100 346 -121 645 -121 255 -1 357 14 537 79 294 107 471
220 673 432 206 216 355 505 422 818 20 96 23 137 22 315 0 183 -3 219 -27
332 -47 220 -136 434 -255 612 -46 70 -120 156 -241 281 -96 99 -179 182 -183
183 -5 2 -139 -128 -298 -289 l-290 -294 130 -123 c139 -133 196 -204 254
-319 63 -126 81 -208 81 -368 0 -167 -20 -248 -93 -389 -57 -108 -189 -253
-288 -316 -279 -176 -636 -171 -912 14 -40 27 -169 147 -321 299 l-253 254
1105 1104 c607 607 1137 1140 1178 1184 189 205 337 510 396 810 27 138 24
433 -5 586 -64 337 -234 663 -466 894 -142 141 -274 233 -468 324 -229 109
-420 151 -688 151 -352 0 -631 -83 -918 -273 -142 -94 -189 -136 -554 -496
l-167 -165 -243 240 c-247 244 -330 319 -428 391 -139 101 -369 209 -536 252
-214 55 -509 67 -717 30z m3684 -824 c112 -19 185 -46 286 -102 228 -128 392
-397 410 -673 13 -209 -64 -438 -199 -586 -127 -141 -3317 -3328 -3373 -3371
-72 -55 -218 -127 -299 -148 -86 -22 -229 -29 -320 -16 -192 27 -330 95 -462
227 -283 282 -341 677 -149 1019 24 44 76 109 139 174 100 104 2595 2598 3078
3077 209 208 267 259 333 298 171 100 365 135 556 101z"/>
<path d="M14601 8929 l-293 -292 366 -366 366 -366 290 290 c160 159 289 293
288 297 -3 7 -647 657 -700 706 l-25 23 -292 -292z"/>
<path d="M12840 7172 c-157 -158 -289 -292 -292 -298 -4 -6 120 -137 285 -300
161 -159 324 -322 364 -362 l72 -73 291 292 c159 160 290 294 290 296 0 3
-163 168 -362 368 l-363 363 -285 -286z"/>
</g>
</svg>
